<?xml version="1.0" encoding="utf-8" standalone="no"?>
<!DOCTYPE svg PUBLIC "-//W3C//DTD SVG 1.1//EN"
  "http://www.w3.org/Graphics/SVG/1.1/DTD/svg11.dtd">
<svg xmlns:xlink="http://www.w3.org/1999/xlink" width="402.290313pt" height="311.794344pt" viewBox="0 0 402.290313 311.794344" xmlns="http://www.w3.org/2000/svg" version="1.1">
 <metadata>
  <rdf:RDF xmlns:dc="http://purl.org/dc/elements/1.1/" xmlns:cc="http://creativecommons.org/ns#" xmlns:rdf="http://www.w3.org/1999/02/22-rdf-syntax-ns#">
   <cc:Work>
    <dc:type rdf:resource="http://purl.org/dc/dcmitype/StillImage"/>
    <dc:date>2023-02-26T18:42:05.668698</dc:date>
    <dc:format>image/svg+xml</dc:format>
    <dc:creator>
     <cc:Agent>
      <dc:title>Matplotlib v3.7.0, https://matplotlib.org/</dc:title>
     </cc:Agent>
    </dc:creator>
   </cc:Work>
  </rdf:RDF>
 </metadata>
 <defs>
  <style type="text/css">*{stroke-linejoin: round; stroke-linecap: butt}</style>
 </defs>
 <g id="figure_1">
  <g id="patch_1">
   <path d="M 0 311.794344 
L 402.290313 311.794344 
L 402.290313 0 
L 0 0 
L 0 311.794344 
z
" style="fill: none"/>
  </g>
  <g id="axes_1">
   <g id="patch_2">
    <path d="M 45.170313 280.470281 
L 402.290313 280.470281 
L 402.290313 14.358281 
L 45.170313 14.358281 
L 45.170313 280.470281 
z
" style="fill: none"/>
   </g>
   <g id="matplotlib.axis_1">
    <g id="xtick_1">
     <g id="line2d_1">
      <defs>
       <path id="m1dbed8c8d2" d="M 0 0 
L 0 3.5 
" style="stroke: #000000; stroke-width: 0.8"/>
      </defs>
      <g>
       <use xlink:href="#m1dbed8c8d2" x="61.40304" y="280.470281" style="stroke: #000000; stroke-width: 0.8"/>
      </g>
     </g>
     <g id="text_1">
      <!-- 0 -->
      <g transform="translate(57.903665 295.828562) scale(0.11 -0.11)">
       <defs>
        <path id="DejaVuSerif-30" d="M 2034 219 
Q 2513 219 2750 744 
Q 2988 1269 2988 2328 
Q 2988 3391 2750 3916 
Q 2513 4441 2034 4441 
Q 1556 4441 1318 3916 
Q 1081 3391 1081 2328 
Q 1081 1269 1318 744 
Q 1556 219 2034 219 
z
M 2034 -91 
Q 1275 -91 848 546 
Q 422 1184 422 2328 
Q 422 3475 848 4112 
Q 1275 4750 2034 4750 
Q 2797 4750 3222 4112 
Q 3647 3475 3647 2328 
Q 3647 1184 3222 546 
Q 2797 -91 2034 -91 
z
" transform="scale(0.015625)"/>
       </defs>
       <use xlink:href="#DejaVuSerif-30"/>
      </g>
     </g>
    </g>
    <g id="xtick_2">
     <g id="line2d_2">
      <g>
       <use xlink:href="#m1dbed8c8d2" x="101.984858" y="280.470281" style="stroke: #000000; stroke-width: 0.8"/>
      </g>
     </g>
     <g id="text_2">
      <!-- 25 -->
      <g transform="translate(94.986108 295.828562) scale(0.11 -0.11)">
       <defs>
        <path id="DejaVuSerif-32" d="M 819 3553 
L 469 3553 
L 469 4384 
Q 803 4563 1142 4656 
Q 1481 4750 1806 4750 
Q 2534 4750 2956 4397 
Q 3378 4044 3378 3438 
Q 3378 2753 2422 1800 
Q 2347 1728 2309 1691 
L 1131 513 
L 3078 513 
L 3078 1088 
L 3444 1088 
L 3444 0 
L 434 0 
L 434 341 
L 1850 1753 
Q 2319 2222 2519 2614 
Q 2719 3006 2719 3438 
Q 2719 3909 2473 4175 
Q 2228 4441 1797 4441 
Q 1350 4441 1106 4219 
Q 863 3997 819 3553 
z
" transform="scale(0.015625)"/>
        <path id="DejaVuSerif-35" d="M 3219 4666 
L 3219 4153 
L 1081 4153 
L 1081 2816 
Q 1244 2928 1461 2984 
Q 1678 3041 1947 3041 
Q 2703 3041 3140 2622 
Q 3578 2203 3578 1478 
Q 3578 738 3136 323 
Q 2694 -91 1894 -91 
Q 1572 -91 1234 -12 
Q 897 66 544 225 
L 544 1131 
L 897 1131 
Q 925 688 1179 453 
Q 1434 219 1894 219 
Q 2388 219 2653 544 
Q 2919 869 2919 1478 
Q 2919 2084 2655 2407 
Q 2391 2731 1894 2731 
Q 1613 2731 1398 2631 
Q 1184 2531 1019 2322 
L 750 2322 
L 750 4666 
L 3219 4666 
z
" transform="scale(0.015625)"/>
       </defs>
       <use xlink:href="#DejaVuSerif-32"/>
       <use xlink:href="#DejaVuSerif-35" x="63.623047"/>
      </g>
     </g>
    </g>
    <g id="xtick_3">
     <g id="line2d_3">
      <g>
       <use xlink:href="#m1dbed8c8d2" x="142.566676" y="280.470281" style="stroke: #000000; stroke-width: 0.8"/>
      </g>
     </g>
     <g id="text_3">
      <!-- 50 -->
      <g transform="translate(135.567926 295.828562) scale(0.11 -0.11)">
       <use xlink:href="#DejaVuSerif-35"/>
       <use xlink:href="#DejaVuSerif-30" x="63.623047"/>
      </g>
     </g>
    </g>
    <g id="xtick_4">
     <g id="line2d_4">
      <g>
       <use xlink:href="#m1dbed8c8d2" x="183.148494" y="280.470281" style="stroke: #000000; stroke-width: 0.8"/>
      </g>
     </g>
     <g id="text_4">
      <!-- 75 -->
      <g transform="translate(176.149744 295.828562) scale(0.11 -0.11)">
       <defs>
        <path id="DejaVuSerif-37" d="M 3609 4347 
L 1784 0 
L 1319 0 
L 3059 4153 
L 903 4153 
L 903 3578 
L 538 3578 
L 538 4666 
L 3609 4666 
L 3609 4347 
z
" transform="scale(0.015625)"/>
       </defs>
       <use xlink:href="#DejaVuSerif-37"/>
       <use xlink:href="#DejaVuSerif-35" x="63.623047"/>
      </g>
     </g>
    </g>
    <g id="xtick_5">
     <g id="line2d_5">
      <g>
       <use xlink:href="#m1dbed8c8d2" x="223.730312" y="280.470281" style="stroke: #000000; stroke-width: 0.8"/>
      </g>
     </g>
     <g id="text_5">
      <!-- 100 -->
      <g transform="translate(213.232188 295.828562) scale(0.11 -0.11)">
       <defs>
        <path id="DejaVuSerif-31" d="M 909 0 
L 909 331 
L 1722 331 
L 1722 4213 
L 781 3603 
L 781 4013 
L 1919 4750 
L 2350 4750 
L 2350 331 
L 3163 331 
L 3163 0 
L 909 0 
z
" transform="scale(0.015625)"/>
       </defs>
       <use xlink:href="#DejaVuSerif-31"/>
       <use xlink:href="#DejaVuSerif-30" x="63.623047"/>
       <use xlink:href="#DejaVuSerif-30" x="127.246094"/>
      </g>
     </g>
    </g>
    <g id="xtick_6">
     <g id="line2d_6">
      <g>
       <use xlink:href="#m1dbed8c8d2" x="264.312131" y="280.470281" style="stroke: #000000; stroke-width: 0.8"/>
      </g>
     </g>
     <g id="text_6">
      <!-- 125 -->
      <g transform="translate(253.814006 295.828562) scale(0.11 -0.11)">
       <use xlink:href="#DejaVuSerif-31"/>
       <use xlink:href="#DejaVuSerif-32" x="63.623047"/>
       <use xlink:href="#DejaVuSerif-35" x="127.246094"/>
      </g>
     </g>
    </g>
    <g id="xtick_7">
     <g id="line2d_7">
      <g>
       <use xlink:href="#m1dbed8c8d2" x="304.893949" y="280.470281" style="stroke: #000000; stroke-width: 0.8"/>
      </g>
     </g>
     <g id="text_7">
      <!-- 150 -->
      <g transform="translate(294.395824 295.828562) scale(0.11 -0.11)">
       <use xlink:href="#DejaVuSerif-31"/>
       <use xlink:href="#DejaVuSerif-35" x="63.623047"/>
       <use xlink:href="#DejaVuSerif-30" x="127.246094"/>
      </g>
     </g>
    </g>
    <g id="xtick_8">
     <g id="line2d_8">
      <g>
       <use xlink:href="#m1dbed8c8d2" x="345.475767" y="280.470281" style="stroke: #000000; stroke-width: 0.8"/>
      </g>
     </g>
     <g id="text_8">
      <!-- 175 -->
      <g transform="translate(334.977642 295.828562) scale(0.11 -0.11)">
       <use xlink:href="#DejaVuSerif-31"/>
       <use xlink:href="#DejaVuSerif-37" x="63.623047"/>
       <use xlink:href="#DejaVuSerif-35" x="127.246094"/>
      </g>
     </g>
    </g>
    <g id="xtick_9">
     <g id="line2d_9">
      <g>
       <use xlink:href="#m1dbed8c8d2" x="386.057585" y="280.470281" style="stroke: #000000; stroke-width: 0.8"/>
      </g>
     </g>
     <g id="text_9">
      <!-- 200 -->
      <g transform="translate(375.55946 295.828562) scale(0.11 -0.11)">
       <use xlink:href="#DejaVuSerif-32"/>
       <use xlink:href="#DejaVuSerif-30" x="63.623047"/>
       <use xlink:href="#DejaVuSerif-30" x="127.246094"/>
      </g>
     </g>
    </g>
    <g id="text_10">
     <!-- epoch -->
     <g transform="translate(208.539687 309.714656) scale(0.1 -0.1)">
      <defs>
       <path id="DejaVuSerif-65" d="M 3469 1600 
L 991 1600 
L 991 1575 
Q 991 903 1244 561 
Q 1497 219 1991 219 
Q 2369 219 2611 417 
Q 2853 616 2950 1006 
L 3413 1006 
Q 3275 459 2904 184 
Q 2534 -91 1931 -91 
Q 1203 -91 761 389 
Q 319 869 319 1663 
Q 319 2450 753 2931 
Q 1188 3413 1894 3413 
Q 2647 3413 3050 2948 
Q 3453 2484 3469 1600 
z
M 2791 1931 
Q 2772 2513 2545 2808 
Q 2319 3103 1894 3103 
Q 1497 3103 1269 2806 
Q 1041 2509 991 1931 
L 2791 1931 
z
" transform="scale(0.015625)"/>
       <path id="DejaVuSerif-70" d="M 1313 1825 
L 1313 1497 
Q 1313 897 1542 583 
Q 1772 269 2209 269 
Q 2650 269 2876 622 
Q 3103 975 3103 1663 
Q 3103 2353 2876 2703 
Q 2650 3053 2209 3053 
Q 1772 3053 1542 2737 
Q 1313 2422 1313 1825 
z
M 738 2988 
L 184 2988 
L 184 3322 
L 1313 3322 
L 1313 2803 
Q 1481 3116 1742 3264 
Q 2003 3413 2388 3413 
Q 3000 3413 3387 2928 
Q 3775 2444 3775 1663 
Q 3775 881 3387 395 
Q 3000 -91 2388 -91 
Q 2003 -91 1742 57 
Q 1481 206 1313 519 
L 1313 -997 
L 1856 -997 
L 1856 -1331 
L 184 -1331 
L 184 -997 
L 738 -997 
L 738 2988 
z
" transform="scale(0.015625)"/>
       <path id="DejaVuSerif-6f" d="M 1925 219 
Q 2388 219 2623 584 
Q 2859 950 2859 1663 
Q 2859 2375 2623 2739 
Q 2388 3103 1925 3103 
Q 1463 3103 1227 2739 
Q 991 2375 991 1663 
Q 991 950 1228 584 
Q 1466 219 1925 219 
z
M 1925 -91 
Q 1200 -91 759 389 
Q 319 869 319 1663 
Q 319 2456 758 2934 
Q 1197 3413 1925 3413 
Q 2653 3413 3092 2934 
Q 3531 2456 3531 1663 
Q 3531 869 3092 389 
Q 2653 -91 1925 -91 
z
" transform="scale(0.015625)"/>
       <path id="DejaVuSerif-63" d="M 3291 997 
Q 3169 466 2822 187 
Q 2475 -91 1925 -91 
Q 1200 -91 759 389 
Q 319 869 319 1663 
Q 319 2459 759 2936 
Q 1200 3413 1925 3413 
Q 2241 3413 2553 3339 
Q 2866 3266 3181 3116 
L 3181 2266 
L 2847 2266 
Q 2781 2703 2561 2903 
Q 2341 3103 1931 3103 
Q 1466 3103 1228 2742 
Q 991 2381 991 1663 
Q 991 944 1227 581 
Q 1463 219 1931 219 
Q 2303 219 2525 412 
Q 2747 606 2828 997 
L 3291 997 
z
" transform="scale(0.015625)"/>
       <path id="DejaVuSerif-68" d="M 263 0 
L 263 331 
L 781 331 
L 781 4531 
L 231 4531 
L 231 4863 
L 1356 4863 
L 1356 2731 
Q 1516 3069 1770 3241 
Q 2025 3413 2363 3413 
Q 2913 3413 3172 3097 
Q 3431 2781 3431 2113 
L 3431 331 
L 3944 331 
L 3944 0 
L 2356 0 
L 2356 331 
L 2853 331 
L 2853 1931 
Q 2853 2541 2704 2764 
Q 2556 2988 2175 2988 
Q 1775 2988 1565 2697 
Q 1356 2406 1356 1850 
L 1356 331 
L 1856 331 
L 1856 0 
L 263 0 
z
" transform="scale(0.015625)"/>
      </defs>
      <use xlink:href="#DejaVuSerif-65"/>
      <use xlink:href="#DejaVuSerif-70" x="59.179688"/>
      <use xlink:href="#DejaVuSerif-6f" x="123.193359"/>
      <use xlink:href="#DejaVuSerif-63" x="183.398438"/>
      <use xlink:href="#DejaVuSerif-68" x="239.404297"/>
     </g>
    </g>
   </g>
   <g id="matplotlib.axis_2">
    <g id="ytick_1">
     <g id="line2d_10">
      <defs>
       <path id="md8e52f93bf" d="M 0 0 
L -3.5 0 
" style="stroke: #000000; stroke-width: 0.8"/>
      </defs>
      <g>
       <use xlink:href="#md8e52f93bf" x="45.170313" y="257.024101" style="stroke: #000000; stroke-width: 0.8"/>
      </g>
     </g>
     <g id="text_11">
      <!-- 0.15 -->
      <g transform="translate(13.678125 261.203242) scale(0.11 -0.11)">
       <defs>
        <path id="DejaVuSerif-2e" d="M 603 325 
Q 603 500 722 622 
Q 841 744 1019 744 
Q 1191 744 1312 622 
Q 1434 500 1434 325 
Q 1434 153 1312 31 
Q 1191 -91 1019 -91 
Q 841 -91 722 29 
Q 603 150 603 325 
z
" transform="scale(0.015625)"/>
       </defs>
       <use xlink:href="#DejaVuSerif-30"/>
       <use xlink:href="#DejaVuSerif-2e" x="63.623047"/>
       <use xlink:href="#DejaVuSerif-31" x="95.410156"/>
       <use xlink:href="#DejaVuSerif-35" x="159.033203"/>
      </g>
     </g>
    </g>
    <g id="ytick_2">
     <g id="line2d_11">
      <g>
       <use xlink:href="#md8e52f93bf" x="45.170313" y="225.751098" style="stroke: #000000; stroke-width: 0.8"/>
      </g>
     </g>
     <g id="text_12">
      <!-- 0.20 -->
      <g transform="translate(13.678125 229.930238) scale(0.11 -0.11)">
       <use xlink:href="#DejaVuSerif-30"/>
       <use xlink:href="#DejaVuSerif-2e" x="63.623047"/>
       <use xlink:href="#DejaVuSerif-32" x="95.410156"/>
       <use xlink:href="#DejaVuSerif-30" x="159.033203"/>
      </g>
     </g>
    </g>
    <g id="ytick_3">
     <g id="line2d_12">
      <g>
       <use xlink:href="#md8e52f93bf" x="45.170313" y="194.478094" style="stroke: #000000; stroke-width: 0.8"/>
      </g>
     </g>
     <g id="text_13">
      <!-- 0.25 -->
      <g transform="translate(13.678125 198.657235) scale(0.11 -0.11)">
       <use xlink:href="#DejaVuSerif-30"/>
       <use xlink:href="#DejaVuSerif-2e" x="63.623047"/>
       <use xlink:href="#DejaVuSerif-32" x="95.410156"/>
       <use xlink:href="#DejaVuSerif-35" x="159.033203"/>
      </g>
     </g>
    </g>
    <g id="ytick_4">
     <g id="line2d_13">
      <g>
       <use xlink:href="#md8e52f93bf" x="45.170313" y="163.205091" style="stroke: #000000; stroke-width: 0.8"/>
      </g>
     </g>
     <g id="text_14">
      <!-- 0.30 -->
      <g transform="translate(13.678125 167.384231) scale(0.11 -0.11)">
       <defs>
        <path id="DejaVuSerif-33" d="M 622 4469 
Q 988 4606 1323 4678 
Q 1659 4750 1953 4750 
Q 2638 4750 3022 4454 
Q 3406 4159 3406 3634 
Q 3406 3213 3140 2930 
Q 2875 2647 2388 2547 
Q 2963 2466 3280 2130 
Q 3597 1794 3597 1259 
Q 3597 606 3158 257 
Q 2719 -91 1894 -91 
Q 1528 -91 1179 -12 
Q 831 66 488 225 
L 488 1131 
L 838 1131 
Q 869 681 1141 450 
Q 1413 219 1906 219 
Q 2384 219 2661 495 
Q 2938 772 2938 1253 
Q 2938 1803 2653 2086 
Q 2369 2369 1819 2369 
L 1522 2369 
L 1522 2688 
L 1678 2688 
Q 2225 2688 2498 2914 
Q 2772 3141 2772 3597 
Q 2772 4006 2547 4223 
Q 2322 4441 1900 4441 
Q 1478 4441 1245 4241 
Q 1013 4041 972 3647 
L 622 3647 
L 622 4469 
z
" transform="scale(0.015625)"/>
       </defs>
       <use xlink:href="#DejaVuSerif-30"/>
       <use xlink:href="#DejaVuSerif-2e" x="63.623047"/>
       <use xlink:href="#DejaVuSerif-33" x="95.410156"/>
       <use xlink:href="#DejaVuSerif-30" x="159.033203"/>
      </g>
     </g>
    </g>
    <g id="ytick_5">
     <g id="line2d_14">
      <g>
       <use xlink:href="#md8e52f93bf" x="45.170313" y="131.932087" style="stroke: #000000; stroke-width: 0.8"/>
      </g>
     </g>
     <g id="text_15">
      <!-- 0.35 -->
      <g transform="translate(13.678125 136.111228) scale(0.11 -0.11)">
       <use xlink:href="#DejaVuSerif-30"/>
       <use xlink:href="#DejaVuSerif-2e" x="63.623047"/>
       <use xlink:href="#DejaVuSerif-33" x="95.410156"/>
       <use xlink:href="#DejaVuSerif-35" x="159.033203"/>
      </g>
     </g>
    </g>
    <g id="ytick_6">
     <g id="line2d_15">
      <g>
       <use xlink:href="#md8e52f93bf" x="45.170313" y="100.659084" style="stroke: #000000; stroke-width: 0.8"/>
      </g>
     </g>
     <g id="text_16">
      <!-- 0.40 -->
      <g transform="translate(13.678125 104.838224) scale(0.11 -0.11)">
       <defs>
        <path id="DejaVuSerif-34" d="M 2234 1581 
L 2234 4063 
L 641 1581 
L 2234 1581 
z
M 3609 0 
L 1484 0 
L 1484 331 
L 2234 331 
L 2234 1247 
L 197 1247 
L 197 1588 
L 2241 4750 
L 2859 4750 
L 2859 1581 
L 3750 1581 
L 3750 1247 
L 2859 1247 
L 2859 331 
L 3609 331 
L 3609 0 
z
" transform="scale(0.015625)"/>
       </defs>
       <use xlink:href="#DejaVuSerif-30"/>
       <use xlink:href="#DejaVuSerif-2e" x="63.623047"/>
       <use xlink:href="#DejaVuSerif-34" x="95.410156"/>
       <use xlink:href="#DejaVuSerif-30" x="159.033203"/>
      </g>
     </g>
    </g>
    <g id="ytick_7">
     <g id="line2d_16">
      <g>
       <use xlink:href="#md8e52f93bf" x="45.170313" y="69.38608" style="stroke: #000000; stroke-width: 0.8"/>
      </g>
     </g>
     <g id="text_17">
      <!-- 0.45 -->
      <g transform="translate(13.678125 73.565221) scale(0.11 -0.11)">
       <use xlink:href="#DejaVuSerif-30"/>
       <use xlink:href="#DejaVuSerif-2e" x="63.623047"/>
       <use xlink:href="#DejaVuSerif-34" x="95.410156"/>
       <use xlink:href="#DejaVuSerif-35" x="159.033203"/>
      </g>
     </g>
    </g>
    <g id="ytick_8">
     <g id="line2d_17">
      <g>
       <use xlink:href="#md8e52f93bf" x="45.170313" y="38.113076" style="stroke: #000000; stroke-width: 0.8"/>
      </g>
     </g>
     <g id="text_18">
      <!-- 0.50 -->
      <g transform="translate(13.678125 42.292217) scale(0.11 -0.11)">
       <use xlink:href="#DejaVuSerif-30"/>
       <use xlink:href="#DejaVuSerif-2e" x="63.623047"/>
       <use xlink:href="#DejaVuSerif-35" x="95.410156"/>
       <use xlink:href="#DejaVuSerif-30" x="159.033203"/>
      </g>
     </g>
    </g>
    <g id="text_19">
     <!-- accuracy -->
     <g transform="translate(7.45625 170.211937) rotate(-90) scale(0.1 -0.1)">
      <defs>
       <path id="DejaVuSerif-61" d="M 2547 1044 
L 2547 1747 
L 1806 1747 
Q 1378 1747 1168 1562 
Q 959 1378 959 997 
Q 959 650 1171 447 
Q 1384 244 1747 244 
Q 2106 244 2326 466 
Q 2547 688 2547 1044 
z
M 3122 2075 
L 3122 331 
L 3634 331 
L 3634 0 
L 2547 0 
L 2547 359 
Q 2356 128 2106 18 
Q 1856 -91 1522 -91 
Q 969 -91 644 203 
Q 319 497 319 997 
Q 319 1513 691 1797 
Q 1063 2081 1741 2081 
L 2547 2081 
L 2547 2309 
Q 2547 2688 2317 2895 
Q 2088 3103 1672 3103 
Q 1328 3103 1125 2947 
Q 922 2791 872 2484 
L 575 2484 
L 575 3156 
Q 875 3284 1158 3348 
Q 1441 3413 1709 3413 
Q 2400 3413 2761 3070 
Q 3122 2728 3122 2075 
z
" transform="scale(0.015625)"/>
       <path id="DejaVuSerif-75" d="M 2266 3322 
L 3341 3322 
L 3341 331 
L 3884 331 
L 3884 0 
L 2766 0 
L 2766 588 
Q 2606 256 2353 82 
Q 2100 -91 1766 -91 
Q 1213 -91 952 223 
Q 691 538 691 1209 
L 691 2988 
L 172 2988 
L 172 3322 
L 1269 3322 
L 1269 1388 
Q 1269 781 1417 556 
Q 1566 331 1947 331 
Q 2347 331 2556 625 
Q 2766 919 2766 1478 
L 2766 2988 
L 2266 2988 
L 2266 3322 
z
" transform="scale(0.015625)"/>
       <path id="DejaVuSerif-72" d="M 3059 3328 
L 3059 2497 
L 2728 2497 
Q 2713 2744 2591 2866 
Q 2469 2988 2234 2988 
Q 1809 2988 1582 2694 
Q 1356 2400 1356 1850 
L 1356 331 
L 2022 331 
L 2022 0 
L 263 0 
L 263 331 
L 781 331 
L 781 2994 
L 231 2994 
L 231 3322 
L 1356 3322 
L 1356 2731 
Q 1525 3078 1790 3245 
Q 2056 3413 2438 3413 
Q 2578 3413 2733 3391 
Q 2888 3369 3059 3328 
z
" transform="scale(0.015625)"/>
       <path id="DejaVuSerif-79" d="M 1381 -609 
L 1600 -56 
L 359 2988 
L -19 2988 
L -19 3322 
L 1509 3322 
L 1509 2988 
L 978 2988 
L 1913 703 
L 2847 2988 
L 2350 2988 
L 2350 3322 
L 3597 3322 
L 3597 2988 
L 3225 2988 
L 1703 -750 
Q 1547 -1138 1356 -1280 
Q 1166 -1422 819 -1422 
Q 672 -1422 517 -1397 
Q 363 -1372 206 -1325 
L 206 -691 
L 500 -691 
Q 519 -903 608 -995 
Q 697 -1088 884 -1088 
Q 1056 -1088 1161 -992 
Q 1266 -897 1381 -609 
z
" transform="scale(0.015625)"/>
      </defs>
      <use xlink:href="#DejaVuSerif-61"/>
      <use xlink:href="#DejaVuSerif-63" x="59.619141"/>
      <use xlink:href="#DejaVuSerif-63" x="115.625"/>
      <use xlink:href="#DejaVuSerif-75" x="171.630859"/>
      <use xlink:href="#DejaVuSerif-72" x="236.035156"/>
      <use xlink:href="#DejaVuSerif-61" x="283.837891"/>
      <use xlink:href="#DejaVuSerif-63" x="343.457031"/>
      <use xlink:href="#DejaVuSerif-79" x="399.462891"/>
     </g>
    </g>
   </g>
   <g id="line2d_18">
    <path d="M 61.40304 268.374281 
L 63.03447 213.166457 
L 64.6659 213.852268 
L 66.297329 208.880135 
L 67.928759 197.564246 
L 69.560189 201.679115 
L 71.191619 182.133487 
L 72.823049 179.047336 
L 74.454479 171.331957 
L 76.085909 168.074352 
L 77.717339 151.443424 
L 79.348768 152.129235 
L 80.980198 139.613176 
L 82.611628 136.355571 
L 84.243058 135.66976 
L 85.874488 127.95438 
L 87.505918 128.983098 
L 89.137348 127.268569 
L 90.768778 118.867378 
L 92.400207 120.410454 
L 94.031637 112.866528 
L 95.663067 111.151999 
L 97.294497 112.866528 
L 98.925927 113.209434 
L 100.557357 114.581057 
L 102.188787 111.837811 
L 103.820217 101.893544 
L 105.451646 106.351319 
L 107.083076 100.179015 
L 108.714506 99.493204 
L 110.345936 96.578505 
L 111.977366 97.607222 
L 113.608796 96.578505 
L 115.240226 95.892694 
L 116.871656 96.921411 
L 118.503085 90.92056 
L 120.134515 88.863126 
L 121.765945 87.662956 
L 123.397375 89.72039 
L 125.028805 81.3192 
L 126.660235 87.32005 
L 128.291665 90.234749 
L 129.923095 80.290483 
L 131.554524 86.634239 
L 133.185954 87.834409 
L 134.817384 80.976294 
L 136.448814 85.262616 
L 138.080244 82.347917 
L 139.711674 82.690823 
L 141.343104 79.090312 
L 142.974534 79.433218 
L 144.605963 73.775273 
L 146.237393 77.204331 
L 147.868823 74.632538 
L 149.500253 71.717839 
L 151.131683 75.318349 
L 152.763113 76.004161 
L 154.394543 69.660405 
L 156.025973 72.575103 
L 157.657402 72.918009 
L 159.288832 73.946726 
L 160.920262 67.60297 
L 162.551692 66.917159 
L 164.183122 72.40365 
L 165.814552 71.717839 
L 167.445982 65.716989 
L 169.077412 64.688271 
L 170.708842 61.60212 
L 172.340271 63.145195 
L 173.971701 58.344515 
L 175.603131 61.60212 
L 178.865991 66.059894 
L 180.497421 62.80229 
L 182.128851 69.831857 
L 183.760281 60.744855 
L 185.39171 57.144345 
L 187.02314 59.716138 
L 188.65457 60.916308 
L 190.286 63.316648 
L 191.91743 61.60212 
L 193.54886 64.173913 
L 195.18029 64.173913 
L 196.81172 58.344515 
L 198.443149 54.744005 
L 200.074579 57.658704 
L 201.706009 56.972892 
L 203.337439 55.429816 
L 204.968869 57.830157 
L 206.600299 53.715288 
L 208.231729 55.601269 
L 209.863159 58.001609 
L 211.494588 53.372382 
L 213.126018 58.515968 
L 214.757448 57.144345 
L 216.388878 61.087761 
L 218.020308 56.458534 
L 219.651738 55.258363 
L 221.283168 58.515968 
L 222.914598 55.086911 
L 224.546027 54.401099 
L 226.177457 56.458534 
L 227.808887 53.200929 
L 229.440317 57.144345 
L 231.071747 52.68657 
L 232.703177 56.629986 
L 234.334607 49.08606 
L 235.966037 57.144345 
L 237.597466 49.771872 
L 239.228896 49.771872 
L 240.860326 46.514267 
L 242.491756 46.171361 
L 244.123186 45.657003 
L 245.754616 51.4864 
L 247.386046 46.342814 
L 249.017476 51.143495 
L 250.648905 47.371531 
L 252.280335 50.114777 
L 253.911765 54.058193 
L 255.543195 53.715288 
L 257.174625 51.657853 
L 258.806055 46.68572 
L 260.437485 46.68572 
L 262.068915 44.113927 
L 263.700344 49.771872 
L 265.331774 52.343665 
L 266.963204 50.114777 
L 268.594634 50.972042 
L 270.226064 51.314947 
L 271.857494 48.571702 
L 273.488924 49.428966 
L 275.120354 48.400249 
L 276.751783 46.342814 
L 278.383213 45.999908 
L 280.014643 50.972042 
L 281.646073 42.570851 
L 283.277503 47.200079 
L 284.908933 43.942474 
L 286.540363 43.08521 
L 288.171793 49.771872 
L 289.803223 47.714437 
L 291.434652 41.88504 
L 293.066082 41.199228 
L 294.697512 44.799738 
L 296.328942 50.457683 
L 297.960372 39.656152 
L 299.591802 38.113076 
L 301.223232 43.256663 
L 302.854662 42.227945 
L 304.486091 42.742304 
L 306.117521 43.599568 
L 307.748951 45.48555 
L 309.380381 43.771021 
L 311.011811 44.799738 
L 312.643241 43.256663 
L 314.274671 43.08521 
L 315.906101 39.999058 
L 317.53753 47.200079 
L 319.16896 42.056492 
L 320.80039 43.428115 
L 322.43182 35.884189 
L 324.06325 46.171361 
L 325.69468 47.371531 
L 327.32611 40.341964 
L 328.95754 44.456833 
L 330.588969 41.88504 
L 332.220399 40.684869 
L 333.851829 41.027775 
L 335.483259 38.798888 
L 337.114689 40.341964 
L 338.746119 43.428115 
L 340.377549 42.227945 
L 342.008979 45.828456 
L 343.640408 37.084359 
L 345.271838 41.542134 
L 346.903268 37.427265 
L 348.534698 43.08521 
L 350.166128 39.999058 
L 351.797558 35.884189 
L 353.428988 36.912906 
L 355.060418 32.798037 
L 356.691847 39.141794 
L 358.323277 41.027775 
L 359.954707 34.684019 
L 361.586137 35.369831 
L 363.217567 40.513417 
L 364.848997 32.626585 
L 366.480427 40.170511 
L 368.111857 35.026925 
L 369.743286 36.398548 
L 371.374716 34.512566 
L 373.006146 34.684019 
L 374.637576 36.227095 
L 376.269006 38.455982 
L 377.900436 34.16966 
L 379.531866 38.627435 
L 381.163296 31.940773 
L 382.794725 31.254962 
L 384.426155 30.740603 
L 386.057585 35.712736 
L 386.057585 35.712736 
" clip-path="url(#p4bb9d48d9a)" style="fill: none; stroke: #ff0000; stroke-linecap: square"/>
    <defs>
     <path id="ma4366716d9" d="M 0 2.5 
C 0.663008 2.5 1.29895 2.236584 1.767767 1.767767 
C 2.236584 1.29895 2.5 0.663008 2.5 0 
C 2.5 -0.663008 2.236584 -1.29895 1.767767 -1.767767 
C 1.29895 -2.236584 0.663008 -2.5 0 -2.5 
C -0.663008 -2.5 -1.29895 -2.236584 -1.767767 -1.767767 
C -2.236584 -1.29895 -2.5 -0.663008 -2.5 0 
C -2.5 0.663008 -2.236584 1.29895 -1.767767 1.767767 
C -1.29895 2.236584 -0.663008 2.5 0 2.5 
z
" style="stroke: #ff0000"/>
    </defs>
    <g clip-path="url(#p4bb9d48d9a)">
     <use xlink:href="#ma4366716d9" x="61.40304" y="268.374281" style="fill: #ff0000; stroke: #ff0000"/>
     <use xlink:href="#ma4366716d9" x="63.03447" y="213.166457" style="fill: #ff0000; stroke: #ff0000"/>
     <use xlink:href="#ma4366716d9" x="64.6659" y="213.852268" style="fill: #ff0000; stroke: #ff0000"/>
     <use xlink:href="#ma4366716d9" x="66.297329" y="208.880135" style="fill: #ff0000; stroke: #ff0000"/>
     <use xlink:href="#ma4366716d9" x="67.928759" y="197.564246" style="fill: #ff0000; stroke: #ff0000"/>
     <use xlink:href="#ma4366716d9" x="69.560189" y="201.679115" style="fill: #ff0000; stroke: #ff0000"/>
     <use xlink:href="#ma4366716d9" x="71.191619" y="182.133487" style="fill: #ff0000; stroke: #ff0000"/>
     <use xlink:href="#ma4366716d9" x="72.823049" y="179.047336" style="fill: #ff0000; stroke: #ff0000"/>
     <use xlink:href="#ma4366716d9" x="74.454479" y="171.331957" style="fill: #ff0000; stroke: #ff0000"/>
     <use xlink:href="#ma4366716d9" x="76.085909" y="168.074352" style="fill: #ff0000; stroke: #ff0000"/>
     <use xlink:href="#ma4366716d9" x="77.717339" y="151.443424" style="fill: #ff0000; stroke: #ff0000"/>
     <use xlink:href="#ma4366716d9" x="79.348768" y="152.129235" style="fill: #ff0000; stroke: #ff0000"/>
     <use xlink:href="#ma4366716d9" x="80.980198" y="139.613176" style="fill: #ff0000; stroke: #ff0000"/>
     <use xlink:href="#ma4366716d9" x="82.611628" y="136.355571" style="fill: #ff0000; stroke: #ff0000"/>
     <use xlink:href="#ma4366716d9" x="84.243058" y="135.66976" style="fill: #ff0000; stroke: #ff0000"/>
     <use xlink:href="#ma4366716d9" x="85.874488" y="127.95438" style="fill: #ff0000; stroke: #ff0000"/>
     <use xlink:href="#ma4366716d9" x="87.505918" y="128.983098" style="fill: #ff0000; stroke: #ff0000"/>
     <use xlink:href="#ma4366716d9" x="89.137348" y="127.268569" style="fill: #ff0000; stroke: #ff0000"/>
     <use xlink:href="#ma4366716d9" x="90.768778" y="118.867378" style="fill: #ff0000; stroke: #ff0000"/>
     <use xlink:href="#ma4366716d9" x="92.400207" y="120.410454" style="fill: #ff0000; stroke: #ff0000"/>
     <use xlink:href="#ma4366716d9" x="94.031637" y="112.866528" style="fill: #ff0000; stroke: #ff0000"/>
     <use xlink:href="#ma4366716d9" x="95.663067" y="111.151999" style="fill: #ff0000; stroke: #ff0000"/>
     <use xlink:href="#ma4366716d9" x="97.294497" y="112.866528" style="fill: #ff0000; stroke: #ff0000"/>
     <use xlink:href="#ma4366716d9" x="98.925927" y="113.209434" style="fill: #ff0000; stroke: #ff0000"/>
     <use xlink:href="#ma4366716d9" x="100.557357" y="114.581057" style="fill: #ff0000; stroke: #ff0000"/>
     <use xlink:href="#ma4366716d9" x="102.188787" y="111.837811" style="fill: #ff0000; stroke: #ff0000"/>
     <use xlink:href="#ma4366716d9" x="103.820217" y="101.893544" style="fill: #ff0000; stroke: #ff0000"/>
     <use xlink:href="#ma4366716d9" x="105.451646" y="106.351319" style="fill: #ff0000; stroke: #ff0000"/>
     <use xlink:href="#ma4366716d9" x="107.083076" y="100.179015" style="fill: #ff0000; stroke: #ff0000"/>
     <use xlink:href="#ma4366716d9" x="108.714506" y="99.493204" style="fill: #ff0000; stroke: #ff0000"/>
     <use xlink:href="#ma4366716d9" x="110.345936" y="96.578505" style="fill: #ff0000; stroke: #ff0000"/>
     <use xlink:href="#ma4366716d9" x="111.977366" y="97.607222" style="fill: #ff0000; stroke: #ff0000"/>
     <use xlink:href="#ma4366716d9" x="113.608796" y="96.578505" style="fill: #ff0000; stroke: #ff0000"/>
     <use xlink:href="#ma4366716d9" x="115.240226" y="95.892694" style="fill: #ff0000; stroke: #ff0000"/>
     <use xlink:href="#ma4366716d9" x="116.871656" y="96.921411" style="fill: #ff0000; stroke: #ff0000"/>
     <use xlink:href="#ma4366716d9" x="118.503085" y="90.92056" style="fill: #ff0000; stroke: #ff0000"/>
     <use xlink:href="#ma4366716d9" x="120.134515" y="88.863126" style="fill: #ff0000; stroke: #ff0000"/>
     <use xlink:href="#ma4366716d9" x="121.765945" y="87.662956" style="fill: #ff0000; stroke: #ff0000"/>
     <use xlink:href="#ma4366716d9" x="123.397375" y="89.72039" style="fill: #ff0000; stroke: #ff0000"/>
     <use xlink:href="#ma4366716d9" x="125.028805" y="81.3192" style="fill: #ff0000; stroke: #ff0000"/>
     <use xlink:href="#ma4366716d9" x="126.660235" y="87.32005" style="fill: #ff0000; stroke: #ff0000"/>
     <use xlink:href="#ma4366716d9" x="128.291665" y="90.234749" style="fill: #ff0000; stroke: #ff0000"/>
     <use xlink:href="#ma4366716d9" x="129.923095" y="80.290483" style="fill: #ff0000; stroke: #ff0000"/>
     <use xlink:href="#ma4366716d9" x="131.554524" y="86.634239" style="fill: #ff0000; stroke: #ff0000"/>
     <use xlink:href="#ma4366716d9" x="133.185954" y="87.834409" style="fill: #ff0000; stroke: #ff0000"/>
     <use xlink:href="#ma4366716d9" x="134.817384" y="80.976294" style="fill: #ff0000; stroke: #ff0000"/>
     <use xlink:href="#ma4366716d9" x="136.448814" y="85.262616" style="fill: #ff0000; stroke: #ff0000"/>
     <use xlink:href="#ma4366716d9" x="138.080244" y="82.347917" style="fill: #ff0000; stroke: #ff0000"/>
     <use xlink:href="#ma4366716d9" x="139.711674" y="82.690823" style="fill: #ff0000; stroke: #ff0000"/>
     <use xlink:href="#ma4366716d9" x="141.343104" y="79.090312" style="fill: #ff0000; stroke: #ff0000"/>
     <use xlink:href="#ma4366716d9" x="142.974534" y="79.433218" style="fill: #ff0000; stroke: #ff0000"/>
     <use xlink:href="#ma4366716d9" x="144.605963" y="73.775273" style="fill: #ff0000; stroke: #ff0000"/>
     <use xlink:href="#ma4366716d9" x="146.237393" y="77.204331" style="fill: #ff0000; stroke: #ff0000"/>
     <use xlink:href="#ma4366716d9" x="147.868823" y="74.632538" style="fill: #ff0000; stroke: #ff0000"/>
     <use xlink:href="#ma4366716d9" x="149.500253" y="71.717839" style="fill: #ff0000; stroke: #ff0000"/>
     <use xlink:href="#ma4366716d9" x="151.131683" y="75.318349" style="fill: #ff0000; stroke: #ff0000"/>
     <use xlink:href="#ma4366716d9" x="152.763113" y="76.004161" style="fill: #ff0000; stroke: #ff0000"/>
     <use xlink:href="#ma4366716d9" x="154.394543" y="69.660405" style="fill: #ff0000; stroke: #ff0000"/>
     <use xlink:href="#ma4366716d9" x="156.025973" y="72.575103" style="fill: #ff0000; stroke: #ff0000"/>
     <use xlink:href="#ma4366716d9" x="157.657402" y="72.918009" style="fill: #ff0000; stroke: #ff0000"/>
     <use xlink:href="#ma4366716d9" x="159.288832" y="73.946726" style="fill: #ff0000; stroke: #ff0000"/>
     <use xlink:href="#ma4366716d9" x="160.920262" y="67.60297" style="fill: #ff0000; stroke: #ff0000"/>
     <use xlink:href="#ma4366716d9" x="162.551692" y="66.917159" style="fill: #ff0000; stroke: #ff0000"/>
     <use xlink:href="#ma4366716d9" x="164.183122" y="72.40365" style="fill: #ff0000; stroke: #ff0000"/>
     <use xlink:href="#ma4366716d9" x="165.814552" y="71.717839" style="fill: #ff0000; stroke: #ff0000"/>
     <use xlink:href="#ma4366716d9" x="167.445982" y="65.716989" style="fill: #ff0000; stroke: #ff0000"/>
     <use xlink:href="#ma4366716d9" x="169.077412" y="64.688271" style="fill: #ff0000; stroke: #ff0000"/>
     <use xlink:href="#ma4366716d9" x="170.708842" y="61.60212" style="fill: #ff0000; stroke: #ff0000"/>
     <use xlink:href="#ma4366716d9" x="172.340271" y="63.145195" style="fill: #ff0000; stroke: #ff0000"/>
     <use xlink:href="#ma4366716d9" x="173.971701" y="58.344515" style="fill: #ff0000; stroke: #ff0000"/>
     <use xlink:href="#ma4366716d9" x="175.603131" y="61.60212" style="fill: #ff0000; stroke: #ff0000"/>
     <use xlink:href="#ma4366716d9" x="177.234561" y="63.831007" style="fill: #ff0000; stroke: #ff0000"/>
     <use xlink:href="#ma4366716d9" x="178.865991" y="66.059894" style="fill: #ff0000; stroke: #ff0000"/>
     <use xlink:href="#ma4366716d9" x="180.497421" y="62.80229" style="fill: #ff0000; stroke: #ff0000"/>
     <use xlink:href="#ma4366716d9" x="182.128851" y="69.831857" style="fill: #ff0000; stroke: #ff0000"/>
     <use xlink:href="#ma4366716d9" x="183.760281" y="60.744855" style="fill: #ff0000; stroke: #ff0000"/>
     <use xlink:href="#ma4366716d9" x="185.39171" y="57.144345" style="fill: #ff0000; stroke: #ff0000"/>
     <use xlink:href="#ma4366716d9" x="187.02314" y="59.716138" style="fill: #ff0000; stroke: #ff0000"/>
     <use xlink:href="#ma4366716d9" x="188.65457" y="60.916308" style="fill: #ff0000; stroke: #ff0000"/>
     <use xlink:href="#ma4366716d9" x="190.286" y="63.316648" style="fill: #ff0000; stroke: #ff0000"/>
     <use xlink:href="#ma4366716d9" x="191.91743" y="61.60212" style="fill: #ff0000; stroke: #ff0000"/>
     <use xlink:href="#ma4366716d9" x="193.54886" y="64.173913" style="fill: #ff0000; stroke: #ff0000"/>
     <use xlink:href="#ma4366716d9" x="195.18029" y="64.173913" style="fill: #ff0000; stroke: #ff0000"/>
     <use xlink:href="#ma4366716d9" x="196.81172" y="58.344515" style="fill: #ff0000; stroke: #ff0000"/>
     <use xlink:href="#ma4366716d9" x="198.443149" y="54.744005" style="fill: #ff0000; stroke: #ff0000"/>
     <use xlink:href="#ma4366716d9" x="200.074579" y="57.658704" style="fill: #ff0000; stroke: #ff0000"/>
     <use xlink:href="#ma4366716d9" x="201.706009" y="56.972892" style="fill: #ff0000; stroke: #ff0000"/>
     <use xlink:href="#ma4366716d9" x="203.337439" y="55.429816" style="fill: #ff0000; stroke: #ff0000"/>
     <use xlink:href="#ma4366716d9" x="204.968869" y="57.830157" style="fill: #ff0000; stroke: #ff0000"/>
     <use xlink:href="#ma4366716d9" x="206.600299" y="53.715288" style="fill: #ff0000; stroke: #ff0000"/>
     <use xlink:href="#ma4366716d9" x="208.231729" y="55.601269" style="fill: #ff0000; stroke: #ff0000"/>
     <use xlink:href="#ma4366716d9" x="209.863159" y="58.001609" style="fill: #ff0000; stroke: #ff0000"/>
     <use xlink:href="#ma4366716d9" x="211.494588" y="53.372382" style="fill: #ff0000; stroke: #ff0000"/>
     <use xlink:href="#ma4366716d9" x="213.126018" y="58.515968" style="fill: #ff0000; stroke: #ff0000"/>
     <use xlink:href="#ma4366716d9" x="214.757448" y="57.144345" style="fill: #ff0000; stroke: #ff0000"/>
     <use xlink:href="#ma4366716d9" x="216.388878" y="61.087761" style="fill: #ff0000; stroke: #ff0000"/>
     <use xlink:href="#ma4366716d9" x="218.020308" y="56.458534" style="fill: #ff0000; stroke: #ff0000"/>
     <use xlink:href="#ma4366716d9" x="219.651738" y="55.258363" style="fill: #ff0000; stroke: #ff0000"/>
     <use xlink:href="#ma4366716d9" x="221.283168" y="58.515968" style="fill: #ff0000; stroke: #ff0000"/>
     <use xlink:href="#ma4366716d9" x="222.914598" y="55.086911" style="fill: #ff0000; stroke: #ff0000"/>
     <use xlink:href="#ma4366716d9" x="224.546027" y="54.401099" style="fill: #ff0000; stroke: #ff0000"/>
     <use xlink:href="#ma4366716d9" x="226.177457" y="56.458534" style="fill: #ff0000; stroke: #ff0000"/>
     <use xlink:href="#ma4366716d9" x="227.808887" y="53.200929" style="fill: #ff0000; stroke: #ff0000"/>
     <use xlink:href="#ma4366716d9" x="229.440317" y="57.144345" style="fill: #ff0000; stroke: #ff0000"/>
     <use xlink:href="#ma4366716d9" x="231.071747" y="52.68657" style="fill: #ff0000; stroke: #ff0000"/>
     <use xlink:href="#ma4366716d9" x="232.703177" y="56.629986" style="fill: #ff0000; stroke: #ff0000"/>
     <use xlink:href="#ma4366716d9" x="234.334607" y="49.08606" style="fill: #ff0000; stroke: #ff0000"/>
     <use xlink:href="#ma4366716d9" x="235.966037" y="57.144345" style="fill: #ff0000; stroke: #ff0000"/>
     <use xlink:href="#ma4366716d9" x="237.597466" y="49.771872" style="fill: #ff0000; stroke: #ff0000"/>
     <use xlink:href="#ma4366716d9" x="239.228896" y="49.771872" style="fill: #ff0000; stroke: #ff0000"/>
     <use xlink:href="#ma4366716d9" x="240.860326" y="46.514267" style="fill: #ff0000; stroke: #ff0000"/>
     <use xlink:href="#ma4366716d9" x="242.491756" y="46.171361" style="fill: #ff0000; stroke: #ff0000"/>
     <use xlink:href="#ma4366716d9" x="244.123186" y="45.657003" style="fill: #ff0000; stroke: #ff0000"/>
     <use xlink:href="#ma4366716d9" x="245.754616" y="51.4864" style="fill: #ff0000; stroke: #ff0000"/>
     <use xlink:href="#ma4366716d9" x="247.386046" y="46.342814" style="fill: #ff0000; stroke: #ff0000"/>
     <use xlink:href="#ma4366716d9" x="249.017476" y="51.143495" style="fill: #ff0000; stroke: #ff0000"/>
     <use xlink:href="#ma4366716d9" x="250.648905" y="47.371531" style="fill: #ff0000; stroke: #ff0000"/>
     <use xlink:href="#ma4366716d9" x="252.280335" y="50.114777" style="fill: #ff0000; stroke: #ff0000"/>
     <use xlink:href="#ma4366716d9" x="253.911765" y="54.058193" style="fill: #ff0000; stroke: #ff0000"/>
     <use xlink:href="#ma4366716d9" x="255.543195" y="53.715288" style="fill: #ff0000; stroke: #ff0000"/>
     <use xlink:href="#ma4366716d9" x="257.174625" y="51.657853" style="fill: #ff0000; stroke: #ff0000"/>
     <use xlink:href="#ma4366716d9" x="258.806055" y="46.68572" style="fill: #ff0000; stroke: #ff0000"/>
     <use xlink:href="#ma4366716d9" x="260.437485" y="46.68572" style="fill: #ff0000; stroke: #ff0000"/>
     <use xlink:href="#ma4366716d9" x="262.068915" y="44.113927" style="fill: #ff0000; stroke: #ff0000"/>
     <use xlink:href="#ma4366716d9" x="263.700344" y="49.771872" style="fill: #ff0000; stroke: #ff0000"/>
     <use xlink:href="#ma4366716d9" x="265.331774" y="52.343665" style="fill: #ff0000; stroke: #ff0000"/>
     <use xlink:href="#ma4366716d9" x="266.963204" y="50.114777" style="fill: #ff0000; stroke: #ff0000"/>
     <use xlink:href="#ma4366716d9" x="268.594634" y="50.972042" style="fill: #ff0000; stroke: #ff0000"/>
     <use xlink:href="#ma4366716d9" x="270.226064" y="51.314947" style="fill: #ff0000; stroke: #ff0000"/>
     <use xlink:href="#ma4366716d9" x="271.857494" y="48.571702" style="fill: #ff0000; stroke: #ff0000"/>
     <use xlink:href="#ma4366716d9" x="273.488924" y="49.428966" style="fill: #ff0000; stroke: #ff0000"/>
     <use xlink:href="#ma4366716d9" x="275.120354" y="48.400249" style="fill: #ff0000; stroke: #ff0000"/>
     <use xlink:href="#ma4366716d9" x="276.751783" y="46.342814" style="fill: #ff0000; stroke: #ff0000"/>
     <use xlink:href="#ma4366716d9" x="278.383213" y="45.999908" style="fill: #ff0000; stroke: #ff0000"/>
     <use xlink:href="#ma4366716d9" x="280.014643" y="50.972042" style="fill: #ff0000; stroke: #ff0000"/>
     <use xlink:href="#ma4366716d9" x="281.646073" y="42.570851" style="fill: #ff0000; stroke: #ff0000"/>
     <use xlink:href="#ma4366716d9" x="283.277503" y="47.200079" style="fill: #ff0000; stroke: #ff0000"/>
     <use xlink:href="#ma4366716d9" x="284.908933" y="43.942474" style="fill: #ff0000; stroke: #ff0000"/>
     <use xlink:href="#ma4366716d9" x="286.540363" y="43.08521" style="fill: #ff0000; stroke: #ff0000"/>
     <use xlink:href="#ma4366716d9" x="288.171793" y="49.771872" style="fill: #ff0000; stroke: #ff0000"/>
     <use xlink:href="#ma4366716d9" x="289.803223" y="47.714437" style="fill: #ff0000; stroke: #ff0000"/>
     <use xlink:href="#ma4366716d9" x="291.434652" y="41.88504" style="fill: #ff0000; stroke: #ff0000"/>
     <use xlink:href="#ma4366716d9" x="293.066082" y="41.199228" style="fill: #ff0000; stroke: #ff0000"/>
     <use xlink:href="#ma4366716d9" x="294.697512" y="44.799738" style="fill: #ff0000; stroke: #ff0000"/>
     <use xlink:href="#ma4366716d9" x="296.328942" y="50.457683" style="fill: #ff0000; stroke: #ff0000"/>
     <use xlink:href="#ma4366716d9" x="297.960372" y="39.656152" style="fill: #ff0000; stroke: #ff0000"/>
     <use xlink:href="#ma4366716d9" x="299.591802" y="38.113076" style="fill: #ff0000; stroke: #ff0000"/>
     <use xlink:href="#ma4366716d9" x="301.223232" y="43.256663" style="fill: #ff0000; stroke: #ff0000"/>
     <use xlink:href="#ma4366716d9" x="302.854662" y="42.227945" style="fill: #ff0000; stroke: #ff0000"/>
     <use xlink:href="#ma4366716d9" x="304.486091" y="42.742304" style="fill: #ff0000; stroke: #ff0000"/>
     <use xlink:href="#ma4366716d9" x="306.117521" y="43.599568" style="fill: #ff0000; stroke: #ff0000"/>
     <use xlink:href="#ma4366716d9" x="307.748951" y="45.48555" style="fill: #ff0000; stroke: #ff0000"/>
     <use xlink:href="#ma4366716d9" x="309.380381" y="43.771021" style="fill: #ff0000; stroke: #ff0000"/>
     <use xlink:href="#ma4366716d9" x="311.011811" y="44.799738" style="fill: #ff0000; stroke: #ff0000"/>
     <use xlink:href="#ma4366716d9" x="312.643241" y="43.256663" style="fill: #ff0000; stroke: #ff0000"/>
     <use xlink:href="#ma4366716d9" x="314.274671" y="43.08521" style="fill: #ff0000; stroke: #ff0000"/>
     <use xlink:href="#ma4366716d9" x="315.906101" y="39.999058" style="fill: #ff0000; stroke: #ff0000"/>
     <use xlink:href="#ma4366716d9" x="317.53753" y="47.200079" style="fill: #ff0000; stroke: #ff0000"/>
     <use xlink:href="#ma4366716d9" x="319.16896" y="42.056492" style="fill: #ff0000; stroke: #ff0000"/>
     <use xlink:href="#ma4366716d9" x="320.80039" y="43.428115" style="fill: #ff0000; stroke: #ff0000"/>
     <use xlink:href="#ma4366716d9" x="322.43182" y="35.884189" style="fill: #ff0000; stroke: #ff0000"/>
     <use xlink:href="#ma4366716d9" x="324.06325" y="46.171361" style="fill: #ff0000; stroke: #ff0000"/>
     <use xlink:href="#ma4366716d9" x="325.69468" y="47.371531" style="fill: #ff0000; stroke: #ff0000"/>
     <use xlink:href="#ma4366716d9" x="327.32611" y="40.341964" style="fill: #ff0000; stroke: #ff0000"/>
     <use xlink:href="#ma4366716d9" x="328.95754" y="44.456833" style="fill: #ff0000; stroke: #ff0000"/>
     <use xlink:href="#ma4366716d9" x="330.588969" y="41.88504" style="fill: #ff0000; stroke: #ff0000"/>
     <use xlink:href="#ma4366716d9" x="332.220399" y="40.684869" style="fill: #ff0000; stroke: #ff0000"/>
     <use xlink:href="#ma4366716d9" x="333.851829" y="41.027775" style="fill: #ff0000; stroke: #ff0000"/>
     <use xlink:href="#ma4366716d9" x="335.483259" y="38.798888" style="fill: #ff0000; stroke: #ff0000"/>
     <use xlink:href="#ma4366716d9" x="337.114689" y="40.341964" style="fill: #ff0000; stroke: #ff0000"/>
     <use xlink:href="#ma4366716d9" x="338.746119" y="43.428115" style="fill: #ff0000; stroke: #ff0000"/>
     <use xlink:href="#ma4366716d9" x="340.377549" y="42.227945" style="fill: #ff0000; stroke: #ff0000"/>
     <use xlink:href="#ma4366716d9" x="342.008979" y="45.828456" style="fill: #ff0000; stroke: #ff0000"/>
     <use xlink:href="#ma4366716d9" x="343.640408" y="37.084359" style="fill: #ff0000; stroke: #ff0000"/>
     <use xlink:href="#ma4366716d9" x="345.271838" y="41.542134" style="fill: #ff0000; stroke: #ff0000"/>
     <use xlink:href="#ma4366716d9" x="346.903268" y="37.427265" style="fill: #ff0000; stroke: #ff0000"/>
     <use xlink:href="#ma4366716d9" x="348.534698" y="43.08521" style="fill: #ff0000; stroke: #ff0000"/>
     <use xlink:href="#ma4366716d9" x="350.166128" y="39.999058" style="fill: #ff0000; stroke: #ff0000"/>
     <use xlink:href="#ma4366716d9" x="351.797558" y="35.884189" style="fill: #ff0000; stroke: #ff0000"/>
     <use xlink:href="#ma4366716d9" x="353.428988" y="36.912906" style="fill: #ff0000; stroke: #ff0000"/>
     <use xlink:href="#ma4366716d9" x="355.060418" y="32.798037" style="fill: #ff0000; stroke: #ff0000"/>
     <use xlink:href="#ma4366716d9" x="356.691847" y="39.141794" style="fill: #ff0000; stroke: #ff0000"/>
     <use xlink:href="#ma4366716d9" x="358.323277" y="41.027775" style="fill: #ff0000; stroke: #ff0000"/>
     <use xlink:href="#ma4366716d9" x="359.954707" y="34.684019" style="fill: #ff0000; stroke: #ff0000"/>
     <use xlink:href="#ma4366716d9" x="361.586137" y="35.369831" style="fill: #ff0000; stroke: #ff0000"/>
     <use xlink:href="#ma4366716d9" x="363.217567" y="40.513417" style="fill: #ff0000; stroke: #ff0000"/>
     <use xlink:href="#ma4366716d9" x="364.848997" y="32.626585" style="fill: #ff0000; stroke: #ff0000"/>
     <use xlink:href="#ma4366716d9" x="366.480427" y="40.170511" style="fill: #ff0000; stroke: #ff0000"/>
     <use xlink:href="#ma4366716d9" x="368.111857" y="35.026925" style="fill: #ff0000; stroke: #ff0000"/>
     <use xlink:href="#ma4366716d9" x="369.743286" y="36.398548" style="fill: #ff0000; stroke: #ff0000"/>
     <use xlink:href="#ma4366716d9" x="371.374716" y="34.512566" style="fill: #ff0000; stroke: #ff0000"/>
     <use xlink:href="#ma4366716d9" x="373.006146" y="34.684019" style="fill: #ff0000; stroke: #ff0000"/>
     <use xlink:href="#ma4366716d9" x="374.637576" y="36.227095" style="fill: #ff0000; stroke: #ff0000"/>
     <use xlink:href="#ma4366716d9" x="376.269006" y="38.455982" style="fill: #ff0000; stroke: #ff0000"/>
     <use xlink:href="#ma4366716d9" x="377.900436" y="34.16966" style="fill: #ff0000; stroke: #ff0000"/>
     <use xlink:href="#ma4366716d9" x="379.531866" y="38.627435" style="fill: #ff0000; stroke: #ff0000"/>
     <use xlink:href="#ma4366716d9" x="381.163296" y="31.940773" style="fill: #ff0000; stroke: #ff0000"/>
     <use xlink:href="#ma4366716d9" x="382.794725" y="31.254962" style="fill: #ff0000; stroke: #ff0000"/>
     <use xlink:href="#ma4366716d9" x="384.426155" y="30.740603" style="fill: #ff0000; stroke: #ff0000"/>
     <use xlink:href="#ma4366716d9" x="386.057585" y="35.712736" style="fill: #ff0000; stroke: #ff0000"/>
    </g>
   </g>
   <g id="line2d_19">
    <path d="M 61.40304 189.677414 
L 63.03447 194.992453 
L 64.6659 210.423211 
L 66.297329 206.308342 
L 67.928759 195.849717 
L 69.560189 179.9046 
L 71.191619 189.163055 
L 72.823049 149.214536 
L 74.454479 157.958633 
L 76.085909 141.842063 
L 77.717339 134.126684 
L 79.348768 133.440872 
L 80.980198 127.440022 
L 82.611628 125.55404 
L 84.243058 109.780376 
L 85.874488 118.010114 
L 87.505918 108.065848 
L 89.137348 107.03713 
L 90.768778 107.208583 
L 92.400207 99.664657 
L 94.031637 102.579356 
L 95.663067 96.407052 
L 97.294497 95.206882 
L 98.925927 95.378335 
L 100.557357 96.235599 
L 102.188787 91.434919 
L 103.820217 90.577655 
L 105.451646 89.377485 
L 107.083076 87.148597 
L 108.714506 91.606372 
L 110.345936 84.405351 
L 111.977366 85.605522 
L 113.608796 86.291333 
L 115.240226 79.947577 
L 116.871656 79.090312 
L 118.503085 76.518519 
L 120.134515 72.746556 
L 121.765945 83.548087 
L 123.397375 79.090312 
L 125.028805 82.690823 
L 126.660235 75.832708 
L 128.291665 72.232198 
L 129.923095 72.575103 
L 131.554524 77.718689 
L 133.185954 74.118179 
L 134.817384 79.090312 
L 136.448814 72.918009 
L 138.080244 79.261765 
L 139.711674 69.831857 
L 141.343104 65.888441 
L 142.974534 68.117329 
L 144.605963 63.659554 
L 146.237393 64.516818 
L 147.868823 62.459384 
L 149.500253 63.316648 
L 151.131683 60.230497 
L 152.763113 64.345366 
L 154.394543 58.687421 
L 156.025973 58.687421 
L 157.657402 58.173062 
L 159.288832 54.401099 
L 160.920262 54.915458 
L 162.551692 55.944175 
L 164.183122 52.68657 
L 165.814552 54.915458 
L 167.445982 53.372382 
L 169.077412 53.715288 
L 170.708842 53.029476 
L 172.340271 52.68657 
L 173.971701 53.029476 
L 175.603131 53.88674 
L 177.234561 51.143495 
L 178.865991 52.172212 
L 180.497421 55.258363 
L 182.128851 50.800589 
L 183.760281 51.657853 
L 185.39171 51.4864 
L 187.02314 53.715288 
L 188.65457 59.030327 
L 190.286 48.400249 
L 191.91743 49.771872 
L 193.54886 49.08606 
L 195.18029 48.057343 
L 196.81172 49.428966 
L 198.443149 48.057343 
L 200.074579 51.4864 
L 201.706009 46.857173 
L 203.337439 49.771872 
L 204.968869 49.600419 
L 206.600299 48.743154 
L 208.231729 50.28623 
L 209.863159 47.88589 
L 211.494588 47.542984 
L 213.126018 47.028626 
L 214.757448 49.08606 
L 216.388878 47.200079 
L 218.020308 48.228796 
L 219.651738 45.314097 
L 221.283168 49.771872 
L 222.914598 46.171361 
L 224.546027 45.657003 
L 226.177457 45.828456 
L 227.808887 45.48555 
L 229.440317 45.657003 
L 231.071747 47.714437 
L 232.703177 47.200079 
L 234.334607 44.113927 
L 235.966037 46.68572 
L 237.597466 50.972042 
L 239.228896 43.428115 
L 240.860326 46.342814 
L 242.491756 43.08521 
L 244.123186 45.142644 
L 245.754616 44.799738 
L 247.386046 42.399398 
L 249.017476 43.08521 
L 250.648905 42.399398 
L 252.280335 44.799738 
L 253.911765 45.142644 
L 255.543195 42.227945 
L 257.174625 43.08521 
L 258.806055 40.856322 
L 260.437485 44.28538 
L 262.068915 42.227945 
L 263.700344 42.913757 
L 265.331774 43.256663 
L 266.963204 41.88504 
L 268.594634 42.056492 
L 270.226064 42.399398 
L 271.857494 43.08521 
L 273.488924 40.170511 
L 275.120354 40.513417 
L 276.751783 42.056492 
L 278.383213 41.542134 
L 280.014643 39.484699 
L 281.646073 39.484699 
L 283.277503 40.341964 
L 284.908933 42.399398 
L 286.540363 39.484699 
L 288.171793 37.770171 
L 289.803223 37.598718 
L 291.434652 41.027775 
L 293.066082 36.570001 
L 294.697512 40.170511 
L 296.328942 38.627435 
L 297.960372 39.484699 
L 299.591802 40.856322 
L 301.223232 35.712736 
L 302.854662 36.570001 
L 304.486091 41.370681 
L 306.117521 37.255812 
L 307.748951 38.284529 
L 309.380381 36.741453 
L 311.011811 35.712736 
L 312.643241 37.770171 
L 314.274671 33.483849 
L 315.906101 36.227095 
L 317.53753 38.627435 
L 319.16896 34.855472 
L 320.80039 34.684019 
L 322.43182 35.712736 
L 324.06325 35.026925 
L 325.69468 36.912906 
L 327.32611 34.855472 
L 328.95754 34.341113 
L 330.588969 35.198378 
L 332.220399 34.16966 
L 333.851829 31.597867 
L 335.483259 33.655302 
L 337.114689 33.998208 
L 338.746119 27.825904 
L 340.377549 33.312396 
L 342.008979 29.540433 
L 343.640408 34.341113 
L 345.271838 35.198378 
L 346.903268 31.76932 
L 348.534698 31.76932 
L 350.166128 30.740603 
L 351.797558 35.198378 
L 353.428988 31.426414 
L 355.060418 33.312396 
L 356.691847 30.054792 
L 358.323277 27.825904 
L 359.954707 31.254962 
L 361.586137 31.940773 
L 363.217567 31.083509 
L 364.848997 29.711886 
L 366.480427 28.16881 
L 368.111857 28.854621 
L 369.743286 26.797187 
L 371.374716 30.740603 
L 373.006146 29.197527 
L 374.637576 26.454281 
L 376.269006 26.96864 
L 377.900436 28.854621 
L 379.531866 27.482998 
L 381.163296 27.140093 
L 382.794725 29.026074 
L 384.426155 29.711886 
L 386.057585 27.140093 
L 386.057585 27.140093 
" clip-path="url(#p4bb9d48d9a)" style="fill: none; stroke: #0000ff; stroke-linecap: square"/>
    <defs>
     <path id="m18542adec3" d="M 0 2.5 
C 0.663008 2.5 1.29895 2.236584 1.767767 1.767767 
C 2.236584 1.29895 2.5 0.663008 2.5 0 
C 2.5 -0.663008 2.236584 -1.29895 1.767767 -1.767767 
C 1.29895 -2.236584 0.663008 -2.5 0 -2.5 
C -0.663008 -2.5 -1.29895 -2.236584 -1.767767 -1.767767 
C -2.236584 -1.29895 -2.5 -0.663008 -2.5 0 
C -2.5 0.663008 -2.236584 1.29895 -1.767767 1.767767 
C -1.29895 2.236584 -0.663008 2.5 0 2.5 
z
" style="stroke: #0000ff"/>
    </defs>
    <g clip-path="url(#p4bb9d48d9a)">
     <use xlink:href="#m18542adec3" x="61.40304" y="189.677414" style="fill: #0000ff; stroke: #0000ff"/>
     <use xlink:href="#m18542adec3" x="63.03447" y="194.992453" style="fill: #0000ff; stroke: #0000ff"/>
     <use xlink:href="#m18542adec3" x="64.6659" y="210.423211" style="fill: #0000ff; stroke: #0000ff"/>
     <use xlink:href="#m18542adec3" x="66.297329" y="206.308342" style="fill: #0000ff; stroke: #0000ff"/>
     <use xlink:href="#m18542adec3" x="67.928759" y="195.849717" style="fill: #0000ff; stroke: #0000ff"/>
     <use xlink:href="#m18542adec3" x="69.560189" y="179.9046" style="fill: #0000ff; stroke: #0000ff"/>
     <use xlink:href="#m18542adec3" x="71.191619" y="189.163055" style="fill: #0000ff; stroke: #0000ff"/>
     <use xlink:href="#m18542adec3" x="72.823049" y="149.214536" style="fill: #0000ff; stroke: #0000ff"/>
     <use xlink:href="#m18542adec3" x="74.454479" y="157.958633" style="fill: #0000ff; stroke: #0000ff"/>
     <use xlink:href="#m18542adec3" x="76.085909" y="141.842063" style="fill: #0000ff; stroke: #0000ff"/>
     <use xlink:href="#m18542adec3" x="77.717339" y="134.126684" style="fill: #0000ff; stroke: #0000ff"/>
     <use xlink:href="#m18542adec3" x="79.348768" y="133.440872" style="fill: #0000ff; stroke: #0000ff"/>
     <use xlink:href="#m18542adec3" x="80.980198" y="127.440022" style="fill: #0000ff; stroke: #0000ff"/>
     <use xlink:href="#m18542adec3" x="82.611628" y="125.55404" style="fill: #0000ff; stroke: #0000ff"/>
     <use xlink:href="#m18542adec3" x="84.243058" y="109.780376" style="fill: #0000ff; stroke: #0000ff"/>
     <use xlink:href="#m18542adec3" x="85.874488" y="118.010114" style="fill: #0000ff; stroke: #0000ff"/>
     <use xlink:href="#m18542adec3" x="87.505918" y="108.065848" style="fill: #0000ff; stroke: #0000ff"/>
     <use xlink:href="#m18542adec3" x="89.137348" y="107.03713" style="fill: #0000ff; stroke: #0000ff"/>
     <use xlink:href="#m18542adec3" x="90.768778" y="107.208583" style="fill: #0000ff; stroke: #0000ff"/>
     <use xlink:href="#m18542adec3" x="92.400207" y="99.664657" style="fill: #0000ff; stroke: #0000ff"/>
     <use xlink:href="#m18542adec3" x="94.031637" y="102.579356" style="fill: #0000ff; stroke: #0000ff"/>
     <use xlink:href="#m18542adec3" x="95.663067" y="96.407052" style="fill: #0000ff; stroke: #0000ff"/>
     <use xlink:href="#m18542adec3" x="97.294497" y="95.206882" style="fill: #0000ff; stroke: #0000ff"/>
     <use xlink:href="#m18542adec3" x="98.925927" y="95.378335" style="fill: #0000ff; stroke: #0000ff"/>
     <use xlink:href="#m18542adec3" x="100.557357" y="96.235599" style="fill: #0000ff; stroke: #0000ff"/>
     <use xlink:href="#m18542adec3" x="102.188787" y="91.434919" style="fill: #0000ff; stroke: #0000ff"/>
     <use xlink:href="#m18542adec3" x="103.820217" y="90.577655" style="fill: #0000ff; stroke: #0000ff"/>
     <use xlink:href="#m18542adec3" x="105.451646" y="89.377485" style="fill: #0000ff; stroke: #0000ff"/>
     <use xlink:href="#m18542adec3" x="107.083076" y="87.148597" style="fill: #0000ff; stroke: #0000ff"/>
     <use xlink:href="#m18542adec3" x="108.714506" y="91.606372" style="fill: #0000ff; stroke: #0000ff"/>
     <use xlink:href="#m18542adec3" x="110.345936" y="84.405351" style="fill: #0000ff; stroke: #0000ff"/>
     <use xlink:href="#m18542adec3" x="111.977366" y="85.605522" style="fill: #0000ff; stroke: #0000ff"/>
     <use xlink:href="#m18542adec3" x="113.608796" y="86.291333" style="fill: #0000ff; stroke: #0000ff"/>
     <use xlink:href="#m18542adec3" x="115.240226" y="79.947577" style="fill: #0000ff; stroke: #0000ff"/>
     <use xlink:href="#m18542adec3" x="116.871656" y="79.090312" style="fill: #0000ff; stroke: #0000ff"/>
     <use xlink:href="#m18542adec3" x="118.503085" y="76.518519" style="fill: #0000ff; stroke: #0000ff"/>
     <use xlink:href="#m18542adec3" x="120.134515" y="72.746556" style="fill: #0000ff; stroke: #0000ff"/>
     <use xlink:href="#m18542adec3" x="121.765945" y="83.548087" style="fill: #0000ff; stroke: #0000ff"/>
     <use xlink:href="#m18542adec3" x="123.397375" y="79.090312" style="fill: #0000ff; stroke: #0000ff"/>
     <use xlink:href="#m18542adec3" x="125.028805" y="82.690823" style="fill: #0000ff; stroke: #0000ff"/>
     <use xlink:href="#m18542adec3" x="126.660235" y="75.832708" style="fill: #0000ff; stroke: #0000ff"/>
     <use xlink:href="#m18542adec3" x="128.291665" y="72.232198" style="fill: #0000ff; stroke: #0000ff"/>
     <use xlink:href="#m18542adec3" x="129.923095" y="72.575103" style="fill: #0000ff; stroke: #0000ff"/>
     <use xlink:href="#m18542adec3" x="131.554524" y="77.718689" style="fill: #0000ff; stroke: #0000ff"/>
     <use xlink:href="#m18542adec3" x="133.185954" y="74.118179" style="fill: #0000ff; stroke: #0000ff"/>
     <use xlink:href="#m18542adec3" x="134.817384" y="79.090312" style="fill: #0000ff; stroke: #0000ff"/>
     <use xlink:href="#m18542adec3" x="136.448814" y="72.918009" style="fill: #0000ff; stroke: #0000ff"/>
     <use xlink:href="#m18542adec3" x="138.080244" y="79.261765" style="fill: #0000ff; stroke: #0000ff"/>
     <use xlink:href="#m18542adec3" x="139.711674" y="69.831857" style="fill: #0000ff; stroke: #0000ff"/>
     <use xlink:href="#m18542adec3" x="141.343104" y="65.888441" style="fill: #0000ff; stroke: #0000ff"/>
     <use xlink:href="#m18542adec3" x="142.974534" y="68.117329" style="fill: #0000ff; stroke: #0000ff"/>
     <use xlink:href="#m18542adec3" x="144.605963" y="63.659554" style="fill: #0000ff; stroke: #0000ff"/>
     <use xlink:href="#m18542adec3" x="146.237393" y="64.516818" style="fill: #0000ff; stroke: #0000ff"/>
     <use xlink:href="#m18542adec3" x="147.868823" y="62.459384" style="fill: #0000ff; stroke: #0000ff"/>
     <use xlink:href="#m18542adec3" x="149.500253" y="63.316648" style="fill: #0000ff; stroke: #0000ff"/>
     <use xlink:href="#m18542adec3" x="151.131683" y="60.230497" style="fill: #0000ff; stroke: #0000ff"/>
     <use xlink:href="#m18542adec3" x="152.763113" y="64.345366" style="fill: #0000ff; stroke: #0000ff"/>
     <use xlink:href="#m18542adec3" x="154.394543" y="58.687421" style="fill: #0000ff; stroke: #0000ff"/>
     <use xlink:href="#m18542adec3" x="156.025973" y="58.687421" style="fill: #0000ff; stroke: #0000ff"/>
     <use xlink:href="#m18542adec3" x="157.657402" y="58.173062" style="fill: #0000ff; stroke: #0000ff"/>
     <use xlink:href="#m18542adec3" x="159.288832" y="54.401099" style="fill: #0000ff; stroke: #0000ff"/>
     <use xlink:href="#m18542adec3" x="160.920262" y="54.915458" style="fill: #0000ff; stroke: #0000ff"/>
     <use xlink:href="#m18542adec3" x="162.551692" y="55.944175" style="fill: #0000ff; stroke: #0000ff"/>
     <use xlink:href="#m18542adec3" x="164.183122" y="52.68657" style="fill: #0000ff; stroke: #0000ff"/>
     <use xlink:href="#m18542adec3" x="165.814552" y="54.915458" style="fill: #0000ff; stroke: #0000ff"/>
     <use xlink:href="#m18542adec3" x="167.445982" y="53.372382" style="fill: #0000ff; stroke: #0000ff"/>
     <use xlink:href="#m18542adec3" x="169.077412" y="53.715288" style="fill: #0000ff; stroke: #0000ff"/>
     <use xlink:href="#m18542adec3" x="170.708842" y="53.029476" style="fill: #0000ff; stroke: #0000ff"/>
     <use xlink:href="#m18542adec3" x="172.340271" y="52.68657" style="fill: #0000ff; stroke: #0000ff"/>
     <use xlink:href="#m18542adec3" x="173.971701" y="53.029476" style="fill: #0000ff; stroke: #0000ff"/>
     <use xlink:href="#m18542adec3" x="175.603131" y="53.88674" style="fill: #0000ff; stroke: #0000ff"/>
     <use xlink:href="#m18542adec3" x="177.234561" y="51.143495" style="fill: #0000ff; stroke: #0000ff"/>
     <use xlink:href="#m18542adec3" x="178.865991" y="52.172212" style="fill: #0000ff; stroke: #0000ff"/>
     <use xlink:href="#m18542adec3" x="180.497421" y="55.258363" style="fill: #0000ff; stroke: #0000ff"/>
     <use xlink:href="#m18542adec3" x="182.128851" y="50.800589" style="fill: #0000ff; stroke: #0000ff"/>
     <use xlink:href="#m18542adec3" x="183.760281" y="51.657853" style="fill: #0000ff; stroke: #0000ff"/>
     <use xlink:href="#m18542adec3" x="185.39171" y="51.4864" style="fill: #0000ff; stroke: #0000ff"/>
     <use xlink:href="#m18542adec3" x="187.02314" y="53.715288" style="fill: #0000ff; stroke: #0000ff"/>
     <use xlink:href="#m18542adec3" x="188.65457" y="59.030327" style="fill: #0000ff; stroke: #0000ff"/>
     <use xlink:href="#m18542adec3" x="190.286" y="48.400249" style="fill: #0000ff; stroke: #0000ff"/>
     <use xlink:href="#m18542adec3" x="191.91743" y="49.771872" style="fill: #0000ff; stroke: #0000ff"/>
     <use xlink:href="#m18542adec3" x="193.54886" y="49.08606" style="fill: #0000ff; stroke: #0000ff"/>
     <use xlink:href="#m18542adec3" x="195.18029" y="48.057343" style="fill: #0000ff; stroke: #0000ff"/>
     <use xlink:href="#m18542adec3" x="196.81172" y="49.428966" style="fill: #0000ff; stroke: #0000ff"/>
     <use xlink:href="#m18542adec3" x="198.443149" y="48.057343" style="fill: #0000ff; stroke: #0000ff"/>
     <use xlink:href="#m18542adec3" x="200.074579" y="51.4864" style="fill: #0000ff; stroke: #0000ff"/>
     <use xlink:href="#m18542adec3" x="201.706009" y="46.857173" style="fill: #0000ff; stroke: #0000ff"/>
     <use xlink:href="#m18542adec3" x="203.337439" y="49.771872" style="fill: #0000ff; stroke: #0000ff"/>
     <use xlink:href="#m18542adec3" x="204.968869" y="49.600419" style="fill: #0000ff; stroke: #0000ff"/>
     <use xlink:href="#m18542adec3" x="206.600299" y="48.743154" style="fill: #0000ff; stroke: #0000ff"/>
     <use xlink:href="#m18542adec3" x="208.231729" y="50.28623" style="fill: #0000ff; stroke: #0000ff"/>
     <use xlink:href="#m18542adec3" x="209.863159" y="47.88589" style="fill: #0000ff; stroke: #0000ff"/>
     <use xlink:href="#m18542adec3" x="211.494588" y="47.542984" style="fill: #0000ff; stroke: #0000ff"/>
     <use xlink:href="#m18542adec3" x="213.126018" y="47.028626" style="fill: #0000ff; stroke: #0000ff"/>
     <use xlink:href="#m18542adec3" x="214.757448" y="49.08606" style="fill: #0000ff; stroke: #0000ff"/>
     <use xlink:href="#m18542adec3" x="216.388878" y="47.200079" style="fill: #0000ff; stroke: #0000ff"/>
     <use xlink:href="#m18542adec3" x="218.020308" y="48.228796" style="fill: #0000ff; stroke: #0000ff"/>
     <use xlink:href="#m18542adec3" x="219.651738" y="45.314097" style="fill: #0000ff; stroke: #0000ff"/>
     <use xlink:href="#m18542adec3" x="221.283168" y="49.771872" style="fill: #0000ff; stroke: #0000ff"/>
     <use xlink:href="#m18542adec3" x="222.914598" y="46.171361" style="fill: #0000ff; stroke: #0000ff"/>
     <use xlink:href="#m18542adec3" x="224.546027" y="45.657003" style="fill: #0000ff; stroke: #0000ff"/>
     <use xlink:href="#m18542adec3" x="226.177457" y="45.828456" style="fill: #0000ff; stroke: #0000ff"/>
     <use xlink:href="#m18542adec3" x="227.808887" y="45.48555" style="fill: #0000ff; stroke: #0000ff"/>
     <use xlink:href="#m18542adec3" x="229.440317" y="45.657003" style="fill: #0000ff; stroke: #0000ff"/>
     <use xlink:href="#m18542adec3" x="231.071747" y="47.714437" style="fill: #0000ff; stroke: #0000ff"/>
     <use xlink:href="#m18542adec3" x="232.703177" y="47.200079" style="fill: #0000ff; stroke: #0000ff"/>
     <use xlink:href="#m18542adec3" x="234.334607" y="44.113927" style="fill: #0000ff; stroke: #0000ff"/>
     <use xlink:href="#m18542adec3" x="235.966037" y="46.68572" style="fill: #0000ff; stroke: #0000ff"/>
     <use xlink:href="#m18542adec3" x="237.597466" y="50.972042" style="fill: #0000ff; stroke: #0000ff"/>
     <use xlink:href="#m18542adec3" x="239.228896" y="43.428115" style="fill: #0000ff; stroke: #0000ff"/>
     <use xlink:href="#m18542adec3" x="240.860326" y="46.342814" style="fill: #0000ff; stroke: #0000ff"/>
     <use xlink:href="#m18542adec3" x="242.491756" y="43.08521" style="fill: #0000ff; stroke: #0000ff"/>
     <use xlink:href="#m18542adec3" x="244.123186" y="45.142644" style="fill: #0000ff; stroke: #0000ff"/>
     <use xlink:href="#m18542adec3" x="245.754616" y="44.799738" style="fill: #0000ff; stroke: #0000ff"/>
     <use xlink:href="#m18542adec3" x="247.386046" y="42.399398" style="fill: #0000ff; stroke: #0000ff"/>
     <use xlink:href="#m18542adec3" x="249.017476" y="43.08521" style="fill: #0000ff; stroke: #0000ff"/>
     <use xlink:href="#m18542adec3" x="250.648905" y="42.399398" style="fill: #0000ff; stroke: #0000ff"/>
     <use xlink:href="#m18542adec3" x="252.280335" y="44.799738" style="fill: #0000ff; stroke: #0000ff"/>
     <use xlink:href="#m18542adec3" x="253.911765" y="45.142644" style="fill: #0000ff; stroke: #0000ff"/>
     <use xlink:href="#m18542adec3" x="255.543195" y="42.227945" style="fill: #0000ff; stroke: #0000ff"/>
     <use xlink:href="#m18542adec3" x="257.174625" y="43.08521" style="fill: #0000ff; stroke: #0000ff"/>
     <use xlink:href="#m18542adec3" x="258.806055" y="40.856322" style="fill: #0000ff; stroke: #0000ff"/>
     <use xlink:href="#m18542adec3" x="260.437485" y="44.28538" style="fill: #0000ff; stroke: #0000ff"/>
     <use xlink:href="#m18542adec3" x="262.068915" y="42.227945" style="fill: #0000ff; stroke: #0000ff"/>
     <use xlink:href="#m18542adec3" x="263.700344" y="42.913757" style="fill: #0000ff; stroke: #0000ff"/>
     <use xlink:href="#m18542adec3" x="265.331774" y="43.256663" style="fill: #0000ff; stroke: #0000ff"/>
     <use xlink:href="#m18542adec3" x="266.963204" y="41.88504" style="fill: #0000ff; stroke: #0000ff"/>
     <use xlink:href="#m18542adec3" x="268.594634" y="42.056492" style="fill: #0000ff; stroke: #0000ff"/>
     <use xlink:href="#m18542adec3" x="270.226064" y="42.399398" style="fill: #0000ff; stroke: #0000ff"/>
     <use xlink:href="#m18542adec3" x="271.857494" y="43.08521" style="fill: #0000ff; stroke: #0000ff"/>
     <use xlink:href="#m18542adec3" x="273.488924" y="40.170511" style="fill: #0000ff; stroke: #0000ff"/>
     <use xlink:href="#m18542adec3" x="275.120354" y="40.513417" style="fill: #0000ff; stroke: #0000ff"/>
     <use xlink:href="#m18542adec3" x="276.751783" y="42.056492" style="fill: #0000ff; stroke: #0000ff"/>
     <use xlink:href="#m18542adec3" x="278.383213" y="41.542134" style="fill: #0000ff; stroke: #0000ff"/>
     <use xlink:href="#m18542adec3" x="280.014643" y="39.484699" style="fill: #0000ff; stroke: #0000ff"/>
     <use xlink:href="#m18542adec3" x="281.646073" y="39.484699" style="fill: #0000ff; stroke: #0000ff"/>
     <use xlink:href="#m18542adec3" x="283.277503" y="40.341964" style="fill: #0000ff; stroke: #0000ff"/>
     <use xlink:href="#m18542adec3" x="284.908933" y="42.399398" style="fill: #0000ff; stroke: #0000ff"/>
     <use xlink:href="#m18542adec3" x="286.540363" y="39.484699" style="fill: #0000ff; stroke: #0000ff"/>
     <use xlink:href="#m18542adec3" x="288.171793" y="37.770171" style="fill: #0000ff; stroke: #0000ff"/>
     <use xlink:href="#m18542adec3" x="289.803223" y="37.598718" style="fill: #0000ff; stroke: #0000ff"/>
     <use xlink:href="#m18542adec3" x="291.434652" y="41.027775" style="fill: #0000ff; stroke: #0000ff"/>
     <use xlink:href="#m18542adec3" x="293.066082" y="36.570001" style="fill: #0000ff; stroke: #0000ff"/>
     <use xlink:href="#m18542adec3" x="294.697512" y="40.170511" style="fill: #0000ff; stroke: #0000ff"/>
     <use xlink:href="#m18542adec3" x="296.328942" y="38.627435" style="fill: #0000ff; stroke: #0000ff"/>
     <use xlink:href="#m18542adec3" x="297.960372" y="39.484699" style="fill: #0000ff; stroke: #0000ff"/>
     <use xlink:href="#m18542adec3" x="299.591802" y="40.856322" style="fill: #0000ff; stroke: #0000ff"/>
     <use xlink:href="#m18542adec3" x="301.223232" y="35.712736" style="fill: #0000ff; stroke: #0000ff"/>
     <use xlink:href="#m18542adec3" x="302.854662" y="36.570001" style="fill: #0000ff; stroke: #0000ff"/>
     <use xlink:href="#m18542adec3" x="304.486091" y="41.370681" style="fill: #0000ff; stroke: #0000ff"/>
     <use xlink:href="#m18542adec3" x="306.117521" y="37.255812" style="fill: #0000ff; stroke: #0000ff"/>
     <use xlink:href="#m18542adec3" x="307.748951" y="38.284529" style="fill: #0000ff; stroke: #0000ff"/>
     <use xlink:href="#m18542adec3" x="309.380381" y="36.741453" style="fill: #0000ff; stroke: #0000ff"/>
     <use xlink:href="#m18542adec3" x="311.011811" y="35.712736" style="fill: #0000ff; stroke: #0000ff"/>
     <use xlink:href="#m18542adec3" x="312.643241" y="37.770171" style="fill: #0000ff; stroke: #0000ff"/>
     <use xlink:href="#m18542adec3" x="314.274671" y="33.483849" style="fill: #0000ff; stroke: #0000ff"/>
     <use xlink:href="#m18542adec3" x="315.906101" y="36.227095" style="fill: #0000ff; stroke: #0000ff"/>
     <use xlink:href="#m18542adec3" x="317.53753" y="38.627435" style="fill: #0000ff; stroke: #0000ff"/>
     <use xlink:href="#m18542adec3" x="319.16896" y="34.855472" style="fill: #0000ff; stroke: #0000ff"/>
     <use xlink:href="#m18542adec3" x="320.80039" y="34.684019" style="fill: #0000ff; stroke: #0000ff"/>
     <use xlink:href="#m18542adec3" x="322.43182" y="35.712736" style="fill: #0000ff; stroke: #0000ff"/>
     <use xlink:href="#m18542adec3" x="324.06325" y="35.026925" style="fill: #0000ff; stroke: #0000ff"/>
     <use xlink:href="#m18542adec3" x="325.69468" y="36.912906" style="fill: #0000ff; stroke: #0000ff"/>
     <use xlink:href="#m18542adec3" x="327.32611" y="34.855472" style="fill: #0000ff; stroke: #0000ff"/>
     <use xlink:href="#m18542adec3" x="328.95754" y="34.341113" style="fill: #0000ff; stroke: #0000ff"/>
     <use xlink:href="#m18542adec3" x="330.588969" y="35.198378" style="fill: #0000ff; stroke: #0000ff"/>
     <use xlink:href="#m18542adec3" x="332.220399" y="34.16966" style="fill: #0000ff; stroke: #0000ff"/>
     <use xlink:href="#m18542adec3" x="333.851829" y="31.597867" style="fill: #0000ff; stroke: #0000ff"/>
     <use xlink:href="#m18542adec3" x="335.483259" y="33.655302" style="fill: #0000ff; stroke: #0000ff"/>
     <use xlink:href="#m18542adec3" x="337.114689" y="33.998208" style="fill: #0000ff; stroke: #0000ff"/>
     <use xlink:href="#m18542adec3" x="338.746119" y="27.825904" style="fill: #0000ff; stroke: #0000ff"/>
     <use xlink:href="#m18542adec3" x="340.377549" y="33.312396" style="fill: #0000ff; stroke: #0000ff"/>
     <use xlink:href="#m18542adec3" x="342.008979" y="29.540433" style="fill: #0000ff; stroke: #0000ff"/>
     <use xlink:href="#m18542adec3" x="343.640408" y="34.341113" style="fill: #0000ff; stroke: #0000ff"/>
     <use xlink:href="#m18542adec3" x="345.271838" y="35.198378" style="fill: #0000ff; stroke: #0000ff"/>
     <use xlink:href="#m18542adec3" x="346.903268" y="31.76932" style="fill: #0000ff; stroke: #0000ff"/>
     <use xlink:href="#m18542adec3" x="348.534698" y="31.76932" style="fill: #0000ff; stroke: #0000ff"/>
     <use xlink:href="#m18542adec3" x="350.166128" y="30.740603" style="fill: #0000ff; stroke: #0000ff"/>
     <use xlink:href="#m18542adec3" x="351.797558" y="35.198378" style="fill: #0000ff; stroke: #0000ff"/>
     <use xlink:href="#m18542adec3" x="353.428988" y="31.426414" style="fill: #0000ff; stroke: #0000ff"/>
     <use xlink:href="#m18542adec3" x="355.060418" y="33.312396" style="fill: #0000ff; stroke: #0000ff"/>
     <use xlink:href="#m18542adec3" x="356.691847" y="30.054792" style="fill: #0000ff; stroke: #0000ff"/>
     <use xlink:href="#m18542adec3" x="358.323277" y="27.825904" style="fill: #0000ff; stroke: #0000ff"/>
     <use xlink:href="#m18542adec3" x="359.954707" y="31.254962" style="fill: #0000ff; stroke: #0000ff"/>
     <use xlink:href="#m18542adec3" x="361.586137" y="31.940773" style="fill: #0000ff; stroke: #0000ff"/>
     <use xlink:href="#m18542adec3" x="363.217567" y="31.083509" style="fill: #0000ff; stroke: #0000ff"/>
     <use xlink:href="#m18542adec3" x="364.848997" y="29.711886" style="fill: #0000ff; stroke: #0000ff"/>
     <use xlink:href="#m18542adec3" x="366.480427" y="28.16881" style="fill: #0000ff; stroke: #0000ff"/>
     <use xlink:href="#m18542adec3" x="368.111857" y="28.854621" style="fill: #0000ff; stroke: #0000ff"/>
     <use xlink:href="#m18542adec3" x="369.743286" y="26.797187" style="fill: #0000ff; stroke: #0000ff"/>
     <use xlink:href="#m18542adec3" x="371.374716" y="30.740603" style="fill: #0000ff; stroke: #0000ff"/>
     <use xlink:href="#m18542adec3" x="373.006146" y="29.197527" style="fill: #0000ff; stroke: #0000ff"/>
     <use xlink:href="#m18542adec3" x="374.637576" y="26.454281" style="fill: #0000ff; stroke: #0000ff"/>
     <use xlink:href="#m18542adec3" x="376.269006" y="26.96864" style="fill: #0000ff; stroke: #0000ff"/>
     <use xlink:href="#m18542adec3" x="377.900436" y="28.854621" style="fill: #0000ff; stroke: #0000ff"/>
     <use xlink:href="#m18542adec3" x="379.531866" y="27.482998" style="fill: #0000ff; stroke: #0000ff"/>
     <use xlink:href="#m18542adec3" x="381.163296" y="27.140093" style="fill: #0000ff; stroke: #0000ff"/>
     <use xlink:href="#m18542adec3" x="382.794725" y="29.026074" style="fill: #0000ff; stroke: #0000ff"/>
     <use xlink:href="#m18542adec3" x="384.426155" y="29.711886" style="fill: #0000ff; stroke: #0000ff"/>
     <use xlink:href="#m18542adec3" x="386.057585" y="27.140093" style="fill: #0000ff; stroke: #0000ff"/>
    </g>
   </g>
   <g id="patch_3">
    <path d="M 45.170313 280.470281 
L 45.170313 14.358281 
" style="fill: none; stroke: #000000; stroke-width: 0.8; stroke-linejoin: miter; stroke-linecap: square"/>
   </g>
   <g id="patch_4">
    <path d="M 402.290313 280.470281 
L 402.290313 14.358281 
" style="fill: none; stroke: #000000; stroke-width: 0.8; stroke-linejoin: miter; stroke-linecap: square"/>
   </g>
   <g id="patch_5">
    <path d="M 45.170313 280.470281 
L 402.290312 280.470281 
" style="fill: none; stroke: #000000; stroke-width: 0.8; stroke-linejoin: miter; stroke-linecap: square"/>
   </g>
   <g id="patch_6">
    <path d="M 45.170313 14.358281 
L 402.290312 14.358281 
" style="fill: none; stroke: #000000; stroke-width: 0.8; stroke-linejoin: miter; stroke-linecap: square"/>
   </g>
   <g id="text_20">
    <!-- NeuralNetWithDropout: Accuracy -->
    <g transform="translate(119.572344 8.358281) scale(0.11 -0.11)">
     <defs>
      <path id="DejaVuSerif-Bold-4e" d="M 281 0 
L 281 378 
L 878 378 
L 878 4288 
L 281 4288 
L 281 4666 
L 1741 4666 
L 4556 1363 
L 4556 4288 
L 3963 4288 
L 3963 4666 
L 5594 4666 
L 5594 4288 
L 4997 4288 
L 4997 0 
L 4178 0 
L 1319 3372 
L 1319 378 
L 1913 378 
L 1913 0 
L 281 0 
z
" transform="scale(0.015625)"/>
      <path id="DejaVuSerif-Bold-65" d="M 2566 1875 
Q 2566 2531 2444 2795 
Q 2322 3059 2028 3059 
Q 1744 3059 1620 2800 
Q 1497 2541 1497 1931 
L 1497 1875 
L 2566 1875 
z
M 3781 1503 
L 1497 1503 
L 1497 1478 
Q 1497 834 1690 548 
Q 1884 263 2316 263 
Q 2675 263 2897 453 
Q 3119 644 3181 1006 
L 3700 1006 
Q 3566 441 3166 175 
Q 2766 -91 2047 -91 
Q 1184 -91 723 364 
Q 263 819 263 1663 
Q 263 2488 734 2950 
Q 1206 3413 2047 3413 
Q 2872 3413 3312 2927 
Q 3753 2441 3781 1503 
z
" transform="scale(0.015625)"/>
      <path id="DejaVuSerif-Bold-75" d="M 3963 3322 
L 3963 378 
L 4434 378 
L 4434 0 
L 2853 0 
L 2853 469 
Q 2656 172 2400 40 
Q 2144 -91 1753 -91 
Q 1194 -91 908 239 
Q 622 569 622 1209 
L 622 2944 
L 147 2944 
L 147 3322 
L 1728 3322 
L 1728 1381 
Q 1728 763 1831 595 
Q 1934 428 2209 428 
Q 2544 428 2698 675 
Q 2853 922 2853 1459 
L 2853 2944 
L 2450 2944 
L 2450 3322 
L 3963 3322 
z
" transform="scale(0.015625)"/>
      <path id="DejaVuSerif-Bold-72" d="M 3438 3359 
L 3438 2369 
L 3084 2369 
Q 3066 2634 2941 2764 
Q 2816 2894 2578 2894 
Q 2216 2894 2006 2575 
Q 1797 2256 1797 1691 
L 1797 378 
L 2400 378 
L 2400 0 
L 219 0 
L 219 378 
L 691 378 
L 691 2944 
L 184 2944 
L 184 3322 
L 1797 3322 
L 1797 2731 
Q 1959 3078 2226 3245 
Q 2494 3413 2881 3413 
Q 2978 3413 3117 3398 
Q 3256 3384 3438 3359 
z
" transform="scale(0.015625)"/>
      <path id="DejaVuSerif-Bold-61" d="M 3525 2041 
L 3525 378 
L 4000 378 
L 4000 0 
L 2419 0 
L 2419 422 
Q 2200 159 1931 34 
Q 1663 -91 1319 -91 
Q 809 -91 536 182 
Q 263 456 263 966 
Q 263 1525 655 1803 
Q 1047 2081 1838 2081 
L 2419 2081 
L 2419 2278 
Q 2419 2681 2228 2873 
Q 2038 3066 1638 3066 
Q 1306 3066 1126 2930 
Q 947 2794 872 2484 
L 519 2484 
L 519 3200 
Q 816 3306 1134 3359 
Q 1453 3413 1806 3413 
Q 2697 3413 3111 3081 
Q 3525 2750 3525 2041 
z
M 2419 1044 
L 2419 1709 
L 2003 1709 
Q 1694 1709 1528 1540 
Q 1363 1372 1363 1056 
Q 1363 741 1483 584 
Q 1603 428 1850 428 
Q 2106 428 2262 597 
Q 2419 766 2419 1044 
z
" transform="scale(0.015625)"/>
      <path id="DejaVuSerif-Bold-6c" d="M 1797 378 
L 2272 378 
L 2272 0 
L 219 0 
L 219 378 
L 691 378 
L 691 4488 
L 219 4488 
L 219 4863 
L 1797 4863 
L 1797 378 
z
" transform="scale(0.015625)"/>
      <path id="DejaVuSerif-Bold-74" d="M 634 2944 
L 153 2944 
L 153 3322 
L 634 3322 
L 634 4353 
L 1741 4353 
L 1741 3322 
L 2663 3322 
L 2663 2944 
L 1741 2944 
L 1741 909 
Q 1741 475 1809 369 
Q 1878 263 2059 263 
Q 2259 263 2356 397 
Q 2453 531 2459 813 
L 2925 813 
Q 2897 313 2651 111 
Q 2406 -91 1806 -91 
Q 1122 -91 878 123 
Q 634 338 634 909 
L 634 2944 
z
" transform="scale(0.015625)"/>
      <path id="DejaVuSerif-Bold-57" d="M 5453 0 
L 4647 0 
L 3591 3397 
L 2534 0 
L 1728 0 
L 397 4288 
L -56 4288 
L -56 4666 
L 2156 4666 
L 2156 4288 
L 1656 4288 
L 2547 1422 
L 3553 4666 
L 4441 4666 
L 5466 1369 
L 6375 4288 
L 5819 4288 
L 5819 4666 
L 7263 4666 
L 7263 4288 
L 6784 4288 
L 5453 0 
z
" transform="scale(0.015625)"/>
      <path id="DejaVuSerif-Bold-69" d="M 588 4263 
Q 588 4516 763 4689 
Q 938 4863 1191 4863 
Q 1438 4863 1611 4689 
Q 1784 4516 1784 4263 
Q 1784 4016 1611 3842 
Q 1438 3669 1191 3669 
Q 938 3669 763 3841 
Q 588 4013 588 4263 
z
M 1797 378 
L 2272 378 
L 2272 0 
L 219 0 
L 219 378 
L 691 378 
L 691 2944 
L 219 2944 
L 219 3322 
L 1797 3322 
L 1797 378 
z
" transform="scale(0.015625)"/>
      <path id="DejaVuSerif-Bold-68" d="M 219 0 
L 219 378 
L 691 378 
L 691 4488 
L 197 4488 
L 197 4863 
L 1797 4863 
L 1797 2853 
Q 1997 3150 2253 3281 
Q 2509 3413 2900 3413 
Q 3459 3413 3745 3083 
Q 4031 2753 4031 2113 
L 4031 378 
L 4506 378 
L 4506 0 
L 2522 0 
L 2522 378 
L 2925 378 
L 2925 2144 
Q 2925 2566 2817 2730 
Q 2709 2894 2444 2894 
Q 2109 2894 1953 2648 
Q 1797 2403 1797 1869 
L 1797 378 
L 2203 378 
L 2203 0 
L 219 0 
z
" transform="scale(0.015625)"/>
      <path id="DejaVuSerif-Bold-44" d="M 2100 378 
L 2534 378 
Q 3266 378 3605 847 
Q 3944 1316 3944 2338 
Q 3944 3353 3606 3820 
Q 3269 4288 2534 4288 
L 2100 4288 
L 2100 378 
z
M 300 0 
L 300 378 
L 897 378 
L 897 4288 
L 300 4288 
L 300 4666 
L 2694 4666 
Q 3950 4666 4615 4066 
Q 5281 3466 5281 2338 
Q 5281 1203 4614 601 
Q 3947 0 2694 0 
L 300 0 
z
" transform="scale(0.015625)"/>
      <path id="DejaVuSerif-Bold-6f" d="M 2138 263 
Q 2488 263 2630 563 
Q 2772 863 2772 1663 
Q 2772 2463 2631 2761 
Q 2491 3059 2138 3059 
Q 1784 3059 1640 2757 
Q 1497 2456 1497 1663 
Q 1497 869 1640 566 
Q 1784 263 2138 263 
z
M 2138 -91 
Q 1259 -91 761 376 
Q 263 844 263 1663 
Q 263 2484 761 2948 
Q 1259 3413 2138 3413 
Q 3019 3413 3516 2948 
Q 4013 2484 4013 1663 
Q 4013 844 3514 376 
Q 3016 -91 2138 -91 
z
" transform="scale(0.015625)"/>
      <path id="DejaVuSerif-Bold-70" d="M 1728 1825 
L 1728 1497 
Q 1728 916 1876 656 
Q 2025 397 2356 397 
Q 2697 397 2836 672 
Q 2975 947 2975 1663 
Q 2975 2378 2836 2651 
Q 2697 2925 2356 2925 
Q 2025 2925 1876 2665 
Q 1728 2406 1728 1825 
z
M 622 2944 
L 147 2944 
L 147 3322 
L 1728 3322 
L 1728 2900 
Q 1869 3159 2106 3286 
Q 2344 3413 2694 3413 
Q 3403 3413 3811 2945 
Q 4219 2478 4219 1663 
Q 4219 847 3811 378 
Q 3403 -91 2694 -91 
Q 2344 -91 2106 36 
Q 1869 163 1728 422 
L 1728 -953 
L 2241 -953 
L 2241 -1331 
L 147 -1331 
L 147 -953 
L 622 -953 
L 622 2944 
z
" transform="scale(0.015625)"/>
      <path id="DejaVuSerif-Bold-3a" d="M 588 2541 
Q 588 2788 761 2963 
Q 934 3138 1178 3138 
Q 1422 3138 1597 2961 
Q 1772 2784 1772 2541 
Q 1772 2297 1598 2125 
Q 1425 1953 1178 1953 
Q 931 1953 759 2125 
Q 588 2297 588 2541 
z
M 588 506 
Q 588 750 761 925 
Q 934 1100 1178 1100 
Q 1422 1100 1597 925 
Q 1772 750 1772 506 
Q 1772 259 1597 84 
Q 1422 -91 1178 -91 
Q 934 -91 761 84 
Q 588 259 588 506 
z
" transform="scale(0.015625)"/>
      <path id="DejaVuSerif-Bold-20" transform="scale(0.015625)"/>
      <path id="DejaVuSerif-Bold-41" d="M -50 0 
L -50 378 
L 331 378 
L 2088 4666 
L 2834 4666 
L 4594 378 
L 5038 378 
L 5038 0 
L 2853 0 
L 2853 378 
L 3309 378 
L 2925 1331 
L 1172 1331 
L 781 378 
L 1338 378 
L 1338 0 
L -50 0 
z
M 1325 1709 
L 2772 1709 
L 2053 3494 
L 1325 1709 
z
" transform="scale(0.015625)"/>
      <path id="DejaVuSerif-Bold-63" d="M 3609 1038 
Q 3491 469 3123 189 
Q 2756 -91 2125 -91 
Q 1238 -91 750 368 
Q 263 828 263 1663 
Q 263 2488 744 2950 
Q 1225 3413 2081 3413 
Q 2428 3413 2781 3347 
Q 3134 3281 3500 3150 
L 3500 2228 
L 3150 2228 
Q 3100 2650 2903 2854 
Q 2706 3059 2350 3059 
Q 1888 3059 1692 2746 
Q 1497 2434 1497 1663 
Q 1497 909 1687 586 
Q 1878 263 2309 263 
Q 2644 263 2845 463 
Q 3047 663 3091 1038 
L 3609 1038 
z
" transform="scale(0.015625)"/>
      <path id="DejaVuSerif-Bold-79" d="M 1997 -750 
Q 1847 -1116 1634 -1269 
Q 1422 -1422 1063 -1422 
Q 909 -1422 721 -1387 
Q 534 -1353 313 -1288 
L 313 -594 
L 666 -597 
Q 675 -838 779 -953 
Q 884 -1069 1094 -1069 
Q 1297 -1069 1422 -958 
Q 1547 -847 1672 -538 
L 1722 -422 
L 275 2944 
L -84 2944 
L -84 3322 
L 1831 3322 
L 1831 2944 
L 1434 2944 
L 2278 978 
L 3066 2944 
L 2625 2944 
L 2625 3322 
L 3872 3322 
L 3872 2944 
L 3469 2944 
L 1997 -750 
z
" transform="scale(0.015625)"/>
     </defs>
     <use xlink:href="#DejaVuSerif-Bold-4e"/>
     <use xlink:href="#DejaVuSerif-Bold-65" x="91.40625"/>
     <use xlink:href="#DejaVuSerif-Bold-75" x="155.029297"/>
     <use xlink:href="#DejaVuSerif-Bold-72" x="227.734375"/>
     <use xlink:href="#DejaVuSerif-Bold-61" x="280.419922"/>
     <use xlink:href="#DejaVuSerif-Bold-6c" x="345.214844"/>
     <use xlink:href="#DejaVuSerif-Bold-4e" x="383.203125"/>
     <use xlink:href="#DejaVuSerif-Bold-65" x="474.609375"/>
     <use xlink:href="#DejaVuSerif-Bold-74" x="538.232422"/>
     <use xlink:href="#DejaVuSerif-Bold-57" x="584.423828"/>
     <use xlink:href="#DejaVuSerif-Bold-69" x="694.978516"/>
     <use xlink:href="#DejaVuSerif-Bold-74" x="732.966797"/>
     <use xlink:href="#DejaVuSerif-Bold-68" x="779.158203"/>
     <use xlink:href="#DejaVuSerif-Bold-44" x="851.863281"/>
     <use xlink:href="#DejaVuSerif-Bold-72" x="938.582031"/>
     <use xlink:href="#DejaVuSerif-Bold-6f" x="991.267578"/>
     <use xlink:href="#DejaVuSerif-Bold-70" x="1057.966797"/>
     <use xlink:href="#DejaVuSerif-Bold-6f" x="1127.888672"/>
     <use xlink:href="#DejaVuSerif-Bold-75" x="1194.587891"/>
     <use xlink:href="#DejaVuSerif-Bold-74" x="1267.292969"/>
     <use xlink:href="#DejaVuSerif-Bold-3a" x="1313.484375"/>
     <use xlink:href="#DejaVuSerif-Bold-20" x="1350.398438"/>
     <use xlink:href="#DejaVuSerif-Bold-41" x="1385.212891"/>
     <use xlink:href="#DejaVuSerif-Bold-63" x="1462.800781"/>
     <use xlink:href="#DejaVuSerif-Bold-63" x="1523.689453"/>
     <use xlink:href="#DejaVuSerif-Bold-75" x="1584.578125"/>
     <use xlink:href="#DejaVuSerif-Bold-72" x="1657.283203"/>
     <use xlink:href="#DejaVuSerif-Bold-61" x="1709.96875"/>
     <use xlink:href="#DejaVuSerif-Bold-63" x="1774.763672"/>
     <use xlink:href="#DejaVuSerif-Bold-79" x="1835.652344"/>
    </g>
   </g>
   <g id="legend_1">
    <g id="patch_7">
     <path d="M 52.870313 55.450156 
L 114.922344 55.450156 
Q 117.122344 55.450156 117.122344 53.250156 
L 117.122344 22.058281 
Q 117.122344 19.858281 114.922344 19.858281 
L 52.870313 19.858281 
Q 50.670313 19.858281 50.670313 22.058281 
L 50.670313 53.250156 
Q 50.670313 55.450156 52.870313 55.450156 
z
" style="fill: #ffffff; opacity: 0.8; stroke: #cccccc; stroke-linejoin: miter"/>
    </g>
    <g id="line2d_20">
     <path d="M 55.070312 28.766562 
L 66.070312 28.766562 
L 77.070312 28.766562 
" style="fill: none; stroke: #ff0000; stroke-linecap: square"/>
     <g>
      <use xlink:href="#ma4366716d9" x="66.070312" y="28.766562" style="fill: #ff0000; stroke: #ff0000"/>
     </g>
    </g>
    <g id="text_21">
     <!-- train -->
     <g transform="translate(85.870312 32.616562) scale(0.11 -0.11)">
      <defs>
       <path id="DejaVuSerif-74" d="M 691 2988 
L 184 2988 
L 184 3322 
L 691 3322 
L 691 4353 
L 1269 4353 
L 1269 3322 
L 2350 3322 
L 2350 2988 
L 1269 2988 
L 1269 878 
Q 1269 456 1350 337 
Q 1431 219 1650 219 
Q 1875 219 1978 351 
Q 2081 484 2088 781 
L 2522 781 
Q 2497 328 2275 118 
Q 2053 -91 1600 -91 
Q 1103 -91 897 129 
Q 691 350 691 878 
L 691 2988 
z
" transform="scale(0.015625)"/>
       <path id="DejaVuSerif-69" d="M 622 4353 
Q 622 4497 726 4603 
Q 831 4709 978 4709 
Q 1122 4709 1226 4603 
Q 1331 4497 1331 4353 
Q 1331 4206 1228 4103 
Q 1125 4000 978 4000 
Q 831 4000 726 4103 
Q 622 4206 622 4353 
z
M 1356 331 
L 1900 331 
L 1900 0 
L 231 0 
L 231 331 
L 781 331 
L 781 2988 
L 231 2988 
L 231 3322 
L 1356 3322 
L 1356 331 
z
" transform="scale(0.015625)"/>
       <path id="DejaVuSerif-6e" d="M 263 0 
L 263 331 
L 781 331 
L 781 2988 
L 231 2988 
L 231 3322 
L 1356 3322 
L 1356 2731 
Q 1516 3069 1770 3241 
Q 2025 3413 2363 3413 
Q 2913 3413 3172 3097 
Q 3431 2781 3431 2113 
L 3431 331 
L 3944 331 
L 3944 0 
L 2356 0 
L 2356 331 
L 2853 331 
L 2853 1931 
Q 2853 2541 2703 2767 
Q 2553 2994 2175 2994 
Q 1775 2994 1565 2701 
Q 1356 2409 1356 1850 
L 1356 331 
L 1856 331 
L 1856 0 
L 263 0 
z
" transform="scale(0.015625)"/>
      </defs>
      <use xlink:href="#DejaVuSerif-74"/>
      <use xlink:href="#DejaVuSerif-72" x="40.185547"/>
      <use xlink:href="#DejaVuSerif-61" x="87.988281"/>
      <use xlink:href="#DejaVuSerif-69" x="147.607422"/>
      <use xlink:href="#DejaVuSerif-6e" x="179.589844"/>
     </g>
    </g>
    <g id="line2d_21">
     <path d="M 55.070312 44.9125 
L 66.070312 44.9125 
L 77.070312 44.9125 
" style="fill: none; stroke: #0000ff; stroke-linecap: square"/>
     <g>
      <use xlink:href="#m18542adec3" x="66.070312" y="44.9125" style="fill: #0000ff; stroke: #0000ff"/>
     </g>
    </g>
    <g id="text_22">
     <!-- valid -->
     <g transform="translate(85.870312 48.7625) scale(0.11 -0.11)">
      <defs>
       <path id="DejaVuSerif-76" d="M 1581 0 
L 359 2988 
L -19 2988 
L -19 3322 
L 1509 3322 
L 1509 2988 
L 978 2988 
L 1913 703 
L 2847 2988 
L 2350 2988 
L 2350 3322 
L 3597 3322 
L 3597 2988 
L 3225 2988 
L 2003 0 
L 1581 0 
z
" transform="scale(0.015625)"/>
       <path id="DejaVuSerif-6c" d="M 1313 331 
L 1856 331 
L 1856 0 
L 184 0 
L 184 331 
L 738 331 
L 738 4531 
L 184 4531 
L 184 4863 
L 1313 4863 
L 1313 331 
z
" transform="scale(0.015625)"/>
       <path id="DejaVuSerif-64" d="M 3359 331 
L 3909 331 
L 3909 0 
L 2784 0 
L 2784 519 
Q 2616 206 2355 57 
Q 2094 -91 1709 -91 
Q 1097 -91 708 395 
Q 319 881 319 1663 
Q 319 2444 706 2928 
Q 1094 3413 1709 3413 
Q 2094 3413 2355 3264 
Q 2616 3116 2784 2803 
L 2784 4531 
L 2241 4531 
L 2241 4863 
L 3359 4863 
L 3359 331 
z
M 2784 1497 
L 2784 1825 
Q 2784 2422 2554 2737 
Q 2325 3053 1888 3053 
Q 1444 3053 1217 2703 
Q 991 2353 991 1663 
Q 991 975 1217 622 
Q 1444 269 1888 269 
Q 2325 269 2554 583 
Q 2784 897 2784 1497 
z
" transform="scale(0.015625)"/>
      </defs>
      <use xlink:href="#DejaVuSerif-76"/>
      <use xlink:href="#DejaVuSerif-61" x="56.494141"/>
      <use xlink:href="#DejaVuSerif-6c" x="116.113281"/>
      <use xlink:href="#DejaVuSerif-69" x="148.095703"/>
      <use xlink:href="#DejaVuSerif-64" x="180.078125"/>
     </g>
    </g>
   </g>
  </g>
 </g>
 <defs>
  <clipPath id="p4bb9d48d9a">
   <rect x="45.170313" y="14.358281" width="357.12" height="266.112"/>
  </clipPath>
 </defs>
</svg>
