<?xml version="1.0" encoding="utf-8" standalone="no"?>
<!DOCTYPE svg PUBLIC "-//W3C//DTD SVG 1.1//EN"
  "http://www.w3.org/Graphics/SVG/1.1/DTD/svg11.dtd">
<svg xmlns:xlink="http://www.w3.org/1999/xlink" width="395.291562pt" height="311.637937pt" viewBox="0 0 395.291562 311.637937" xmlns="http://www.w3.org/2000/svg" version="1.1">
 <metadata>
  <rdf:RDF xmlns:dc="http://purl.org/dc/elements/1.1/" xmlns:cc="http://creativecommons.org/ns#" xmlns:rdf="http://www.w3.org/1999/02/22-rdf-syntax-ns#">
   <cc:Work>
    <dc:type rdf:resource="http://purl.org/dc/dcmitype/StillImage"/>
    <dc:date>2023-02-26T20:42:15.927635</dc:date>
    <dc:format>image/svg+xml</dc:format>
    <dc:creator>
     <cc:Agent>
      <dc:title>Matplotlib v3.7.0, https://matplotlib.org/</dc:title>
     </cc:Agent>
    </dc:creator>
   </cc:Work>
  </rdf:RDF>
 </metadata>
 <defs>
  <style type="text/css">*{stroke-linejoin: round; stroke-linecap: butt}</style>
 </defs>
 <g id="figure_1">
  <g id="patch_1">
   <path d="M 0 311.637937 
L 395.291562 311.637937 
L 395.291562 0 
L 0 0 
L 0 311.637937 
z
" style="fill: none"/>
  </g>
  <g id="axes_1">
   <g id="patch_2">
    <path d="M 38.171563 280.313875 
L 395.291563 280.313875 
L 395.291563 14.201875 
L 38.171563 14.201875 
L 38.171563 280.313875 
z
" style="fill: none"/>
   </g>
   <g id="matplotlib.axis_1">
    <g id="xtick_1">
     <g id="line2d_1">
      <defs>
       <path id="m4af0757662" d="M 0 0 
L 0 3.5 
" style="stroke: #000000; stroke-width: 0.8"/>
      </defs>
      <g>
       <use xlink:href="#m4af0757662" x="54.40429" y="280.313875" style="stroke: #000000; stroke-width: 0.8"/>
      </g>
     </g>
     <g id="text_1">
      <!-- 0 -->
      <g transform="translate(50.904915 295.672156) scale(0.11 -0.11)">
       <defs>
        <path id="DejaVuSerif-30" d="M 2034 219 
Q 2513 219 2750 744 
Q 2988 1269 2988 2328 
Q 2988 3391 2750 3916 
Q 2513 4441 2034 4441 
Q 1556 4441 1318 3916 
Q 1081 3391 1081 2328 
Q 1081 1269 1318 744 
Q 1556 219 2034 219 
z
M 2034 -91 
Q 1275 -91 848 546 
Q 422 1184 422 2328 
Q 422 3475 848 4112 
Q 1275 4750 2034 4750 
Q 2797 4750 3222 4112 
Q 3647 3475 3647 2328 
Q 3647 1184 3222 546 
Q 2797 -91 2034 -91 
z
" transform="scale(0.015625)"/>
       </defs>
       <use xlink:href="#DejaVuSerif-30"/>
      </g>
     </g>
    </g>
    <g id="xtick_2">
     <g id="line2d_2">
      <g>
       <use xlink:href="#m4af0757662" x="94.986108" y="280.313875" style="stroke: #000000; stroke-width: 0.8"/>
      </g>
     </g>
     <g id="text_2">
      <!-- 25 -->
      <g transform="translate(87.987358 295.672156) scale(0.11 -0.11)">
       <defs>
        <path id="DejaVuSerif-32" d="M 819 3553 
L 469 3553 
L 469 4384 
Q 803 4563 1142 4656 
Q 1481 4750 1806 4750 
Q 2534 4750 2956 4397 
Q 3378 4044 3378 3438 
Q 3378 2753 2422 1800 
Q 2347 1728 2309 1691 
L 1131 513 
L 3078 513 
L 3078 1088 
L 3444 1088 
L 3444 0 
L 434 0 
L 434 341 
L 1850 1753 
Q 2319 2222 2519 2614 
Q 2719 3006 2719 3438 
Q 2719 3909 2473 4175 
Q 2228 4441 1797 4441 
Q 1350 4441 1106 4219 
Q 863 3997 819 3553 
z
" transform="scale(0.015625)"/>
        <path id="DejaVuSerif-35" d="M 3219 4666 
L 3219 4153 
L 1081 4153 
L 1081 2816 
Q 1244 2928 1461 2984 
Q 1678 3041 1947 3041 
Q 2703 3041 3140 2622 
Q 3578 2203 3578 1478 
Q 3578 738 3136 323 
Q 2694 -91 1894 -91 
Q 1572 -91 1234 -12 
Q 897 66 544 225 
L 544 1131 
L 897 1131 
Q 925 688 1179 453 
Q 1434 219 1894 219 
Q 2388 219 2653 544 
Q 2919 869 2919 1478 
Q 2919 2084 2655 2407 
Q 2391 2731 1894 2731 
Q 1613 2731 1398 2631 
Q 1184 2531 1019 2322 
L 750 2322 
L 750 4666 
L 3219 4666 
z
" transform="scale(0.015625)"/>
       </defs>
       <use xlink:href="#DejaVuSerif-32"/>
       <use xlink:href="#DejaVuSerif-35" x="63.623047"/>
      </g>
     </g>
    </g>
    <g id="xtick_3">
     <g id="line2d_3">
      <g>
       <use xlink:href="#m4af0757662" x="135.567926" y="280.313875" style="stroke: #000000; stroke-width: 0.8"/>
      </g>
     </g>
     <g id="text_3">
      <!-- 50 -->
      <g transform="translate(128.569176 295.672156) scale(0.11 -0.11)">
       <use xlink:href="#DejaVuSerif-35"/>
       <use xlink:href="#DejaVuSerif-30" x="63.623047"/>
      </g>
     </g>
    </g>
    <g id="xtick_4">
     <g id="line2d_4">
      <g>
       <use xlink:href="#m4af0757662" x="176.149744" y="280.313875" style="stroke: #000000; stroke-width: 0.8"/>
      </g>
     </g>
     <g id="text_4">
      <!-- 75 -->
      <g transform="translate(169.150994 295.672156) scale(0.11 -0.11)">
       <defs>
        <path id="DejaVuSerif-37" d="M 3609 4347 
L 1784 0 
L 1319 0 
L 3059 4153 
L 903 4153 
L 903 3578 
L 538 3578 
L 538 4666 
L 3609 4666 
L 3609 4347 
z
" transform="scale(0.015625)"/>
       </defs>
       <use xlink:href="#DejaVuSerif-37"/>
       <use xlink:href="#DejaVuSerif-35" x="63.623047"/>
      </g>
     </g>
    </g>
    <g id="xtick_5">
     <g id="line2d_5">
      <g>
       <use xlink:href="#m4af0757662" x="216.731563" y="280.313875" style="stroke: #000000; stroke-width: 0.8"/>
      </g>
     </g>
     <g id="text_5">
      <!-- 100 -->
      <g transform="translate(206.233438 295.672156) scale(0.11 -0.11)">
       <defs>
        <path id="DejaVuSerif-31" d="M 909 0 
L 909 331 
L 1722 331 
L 1722 4213 
L 781 3603 
L 781 4013 
L 1919 4750 
L 2350 4750 
L 2350 331 
L 3163 331 
L 3163 0 
L 909 0 
z
" transform="scale(0.015625)"/>
       </defs>
       <use xlink:href="#DejaVuSerif-31"/>
       <use xlink:href="#DejaVuSerif-30" x="63.623047"/>
       <use xlink:href="#DejaVuSerif-30" x="127.246094"/>
      </g>
     </g>
    </g>
    <g id="xtick_6">
     <g id="line2d_6">
      <g>
       <use xlink:href="#m4af0757662" x="257.313381" y="280.313875" style="stroke: #000000; stroke-width: 0.8"/>
      </g>
     </g>
     <g id="text_6">
      <!-- 125 -->
      <g transform="translate(246.815256 295.672156) scale(0.11 -0.11)">
       <use xlink:href="#DejaVuSerif-31"/>
       <use xlink:href="#DejaVuSerif-32" x="63.623047"/>
       <use xlink:href="#DejaVuSerif-35" x="127.246094"/>
      </g>
     </g>
    </g>
    <g id="xtick_7">
     <g id="line2d_7">
      <g>
       <use xlink:href="#m4af0757662" x="297.895199" y="280.313875" style="stroke: #000000; stroke-width: 0.8"/>
      </g>
     </g>
     <g id="text_7">
      <!-- 150 -->
      <g transform="translate(287.397074 295.672156) scale(0.11 -0.11)">
       <use xlink:href="#DejaVuSerif-31"/>
       <use xlink:href="#DejaVuSerif-35" x="63.623047"/>
       <use xlink:href="#DejaVuSerif-30" x="127.246094"/>
      </g>
     </g>
    </g>
    <g id="xtick_8">
     <g id="line2d_8">
      <g>
       <use xlink:href="#m4af0757662" x="338.477017" y="280.313875" style="stroke: #000000; stroke-width: 0.8"/>
      </g>
     </g>
     <g id="text_8">
      <!-- 175 -->
      <g transform="translate(327.978892 295.672156) scale(0.11 -0.11)">
       <use xlink:href="#DejaVuSerif-31"/>
       <use xlink:href="#DejaVuSerif-37" x="63.623047"/>
       <use xlink:href="#DejaVuSerif-35" x="127.246094"/>
      </g>
     </g>
    </g>
    <g id="xtick_9">
     <g id="line2d_9">
      <g>
       <use xlink:href="#m4af0757662" x="379.058835" y="280.313875" style="stroke: #000000; stroke-width: 0.8"/>
      </g>
     </g>
     <g id="text_9">
      <!-- 200 -->
      <g transform="translate(368.56071 295.672156) scale(0.11 -0.11)">
       <use xlink:href="#DejaVuSerif-32"/>
       <use xlink:href="#DejaVuSerif-30" x="63.623047"/>
       <use xlink:href="#DejaVuSerif-30" x="127.246094"/>
      </g>
     </g>
    </g>
    <g id="text_10">
     <!-- epoch -->
     <g transform="translate(201.540938 309.55825) scale(0.1 -0.1)">
      <defs>
       <path id="DejaVuSerif-65" d="M 3469 1600 
L 991 1600 
L 991 1575 
Q 991 903 1244 561 
Q 1497 219 1991 219 
Q 2369 219 2611 417 
Q 2853 616 2950 1006 
L 3413 1006 
Q 3275 459 2904 184 
Q 2534 -91 1931 -91 
Q 1203 -91 761 389 
Q 319 869 319 1663 
Q 319 2450 753 2931 
Q 1188 3413 1894 3413 
Q 2647 3413 3050 2948 
Q 3453 2484 3469 1600 
z
M 2791 1931 
Q 2772 2513 2545 2808 
Q 2319 3103 1894 3103 
Q 1497 3103 1269 2806 
Q 1041 2509 991 1931 
L 2791 1931 
z
" transform="scale(0.015625)"/>
       <path id="DejaVuSerif-70" d="M 1313 1825 
L 1313 1497 
Q 1313 897 1542 583 
Q 1772 269 2209 269 
Q 2650 269 2876 622 
Q 3103 975 3103 1663 
Q 3103 2353 2876 2703 
Q 2650 3053 2209 3053 
Q 1772 3053 1542 2737 
Q 1313 2422 1313 1825 
z
M 738 2988 
L 184 2988 
L 184 3322 
L 1313 3322 
L 1313 2803 
Q 1481 3116 1742 3264 
Q 2003 3413 2388 3413 
Q 3000 3413 3387 2928 
Q 3775 2444 3775 1663 
Q 3775 881 3387 395 
Q 3000 -91 2388 -91 
Q 2003 -91 1742 57 
Q 1481 206 1313 519 
L 1313 -997 
L 1856 -997 
L 1856 -1331 
L 184 -1331 
L 184 -997 
L 738 -997 
L 738 2988 
z
" transform="scale(0.015625)"/>
       <path id="DejaVuSerif-6f" d="M 1925 219 
Q 2388 219 2623 584 
Q 2859 950 2859 1663 
Q 2859 2375 2623 2739 
Q 2388 3103 1925 3103 
Q 1463 3103 1227 2739 
Q 991 2375 991 1663 
Q 991 950 1228 584 
Q 1466 219 1925 219 
z
M 1925 -91 
Q 1200 -91 759 389 
Q 319 869 319 1663 
Q 319 2456 758 2934 
Q 1197 3413 1925 3413 
Q 2653 3413 3092 2934 
Q 3531 2456 3531 1663 
Q 3531 869 3092 389 
Q 2653 -91 1925 -91 
z
" transform="scale(0.015625)"/>
       <path id="DejaVuSerif-63" d="M 3291 997 
Q 3169 466 2822 187 
Q 2475 -91 1925 -91 
Q 1200 -91 759 389 
Q 319 869 319 1663 
Q 319 2459 759 2936 
Q 1200 3413 1925 3413 
Q 2241 3413 2553 3339 
Q 2866 3266 3181 3116 
L 3181 2266 
L 2847 2266 
Q 2781 2703 2561 2903 
Q 2341 3103 1931 3103 
Q 1466 3103 1228 2742 
Q 991 2381 991 1663 
Q 991 944 1227 581 
Q 1463 219 1931 219 
Q 2303 219 2525 412 
Q 2747 606 2828 997 
L 3291 997 
z
" transform="scale(0.015625)"/>
       <path id="DejaVuSerif-68" d="M 263 0 
L 263 331 
L 781 331 
L 781 4531 
L 231 4531 
L 231 4863 
L 1356 4863 
L 1356 2731 
Q 1516 3069 1770 3241 
Q 2025 3413 2363 3413 
Q 2913 3413 3172 3097 
Q 3431 2781 3431 2113 
L 3431 331 
L 3944 331 
L 3944 0 
L 2356 0 
L 2356 331 
L 2853 331 
L 2853 1931 
Q 2853 2541 2704 2764 
Q 2556 2988 2175 2988 
Q 1775 2988 1565 2697 
Q 1356 2406 1356 1850 
L 1356 331 
L 1856 331 
L 1856 0 
L 263 0 
z
" transform="scale(0.015625)"/>
      </defs>
      <use xlink:href="#DejaVuSerif-65"/>
      <use xlink:href="#DejaVuSerif-70" x="59.179688"/>
      <use xlink:href="#DejaVuSerif-6f" x="123.193359"/>
      <use xlink:href="#DejaVuSerif-63" x="183.398438"/>
      <use xlink:href="#DejaVuSerif-68" x="239.404297"/>
     </g>
    </g>
   </g>
   <g id="matplotlib.axis_2">
    <g id="ytick_1">
     <g id="line2d_10">
      <defs>
       <path id="m8ce4798e5f" d="M 0 0 
L -3.5 0 
" style="stroke: #000000; stroke-width: 0.8"/>
      </defs>
      <g>
       <use xlink:href="#m8ce4798e5f" x="38.171563" y="232.617303" style="stroke: #000000; stroke-width: 0.8"/>
      </g>
     </g>
     <g id="text_11">
      <!-- 0.2 -->
      <g transform="translate(13.678125 236.796444) scale(0.11 -0.11)">
       <defs>
        <path id="DejaVuSerif-2e" d="M 603 325 
Q 603 500 722 622 
Q 841 744 1019 744 
Q 1191 744 1312 622 
Q 1434 500 1434 325 
Q 1434 153 1312 31 
Q 1191 -91 1019 -91 
Q 841 -91 722 29 
Q 603 150 603 325 
z
" transform="scale(0.015625)"/>
       </defs>
       <use xlink:href="#DejaVuSerif-30"/>
       <use xlink:href="#DejaVuSerif-2e" x="63.623047"/>
       <use xlink:href="#DejaVuSerif-32" x="95.410156"/>
      </g>
     </g>
    </g>
    <g id="ytick_2">
     <g id="line2d_11">
      <g>
       <use xlink:href="#m8ce4798e5f" x="38.171563" y="180.720695" style="stroke: #000000; stroke-width: 0.8"/>
      </g>
     </g>
     <g id="text_12">
      <!-- 0.4 -->
      <g transform="translate(13.678125 184.899835) scale(0.11 -0.11)">
       <defs>
        <path id="DejaVuSerif-34" d="M 2234 1581 
L 2234 4063 
L 641 1581 
L 2234 1581 
z
M 3609 0 
L 1484 0 
L 1484 331 
L 2234 331 
L 2234 1247 
L 197 1247 
L 197 1588 
L 2241 4750 
L 2859 4750 
L 2859 1581 
L 3750 1581 
L 3750 1247 
L 2859 1247 
L 2859 331 
L 3609 331 
L 3609 0 
z
" transform="scale(0.015625)"/>
       </defs>
       <use xlink:href="#DejaVuSerif-30"/>
       <use xlink:href="#DejaVuSerif-2e" x="63.623047"/>
       <use xlink:href="#DejaVuSerif-34" x="95.410156"/>
      </g>
     </g>
    </g>
    <g id="ytick_3">
     <g id="line2d_12">
      <g>
       <use xlink:href="#m8ce4798e5f" x="38.171563" y="128.824086" style="stroke: #000000; stroke-width: 0.8"/>
      </g>
     </g>
     <g id="text_13">
      <!-- 0.6 -->
      <g transform="translate(13.678125 133.003226) scale(0.11 -0.11)">
       <defs>
        <path id="DejaVuSerif-36" d="M 2094 219 
Q 2534 219 2771 542 
Q 3009 866 3009 1472 
Q 3009 2078 2771 2401 
Q 2534 2725 2094 2725 
Q 1647 2725 1412 2412 
Q 1178 2100 1178 1509 
Q 1178 888 1415 553 
Q 1653 219 2094 219 
z
M 1075 2569 
Q 1288 2803 1556 2918 
Q 1825 3034 2163 3034 
Q 2859 3034 3264 2615 
Q 3669 2197 3669 1472 
Q 3669 763 3233 336 
Q 2797 -91 2069 -91 
Q 1278 -91 853 498 
Q 428 1088 428 2181 
Q 428 3406 931 4078 
Q 1434 4750 2350 4750 
Q 2597 4750 2869 4703 
Q 3141 4656 3425 4563 
L 3425 3794 
L 3072 3794 
Q 3034 4109 2831 4275 
Q 2628 4441 2284 4441 
Q 1678 4441 1381 3981 
Q 1084 3522 1075 2569 
z
" transform="scale(0.015625)"/>
       </defs>
       <use xlink:href="#DejaVuSerif-30"/>
       <use xlink:href="#DejaVuSerif-2e" x="63.623047"/>
       <use xlink:href="#DejaVuSerif-36" x="95.410156"/>
      </g>
     </g>
    </g>
    <g id="ytick_4">
     <g id="line2d_13">
      <g>
       <use xlink:href="#m8ce4798e5f" x="38.171563" y="76.927477" style="stroke: #000000; stroke-width: 0.8"/>
      </g>
     </g>
     <g id="text_14">
      <!-- 0.8 -->
      <g transform="translate(13.678125 81.106617) scale(0.11 -0.11)">
       <defs>
        <path id="DejaVuSerif-38" d="M 2981 1275 
Q 2981 1775 2732 2051 
Q 2484 2328 2034 2328 
Q 1584 2328 1336 2051 
Q 1088 1775 1088 1275 
Q 1088 772 1336 495 
Q 1584 219 2034 219 
Q 2484 219 2732 495 
Q 2981 772 2981 1275 
z
M 2853 3541 
Q 2853 3966 2637 4203 
Q 2422 4441 2034 4441 
Q 1650 4441 1433 4203 
Q 1216 3966 1216 3541 
Q 1216 3113 1433 2875 
Q 1650 2638 2034 2638 
Q 2422 2638 2637 2875 
Q 2853 3113 2853 3541 
z
M 2516 2484 
Q 3047 2413 3344 2092 
Q 3641 1772 3641 1275 
Q 3641 619 3225 264 
Q 2809 -91 2034 -91 
Q 1263 -91 845 264 
Q 428 619 428 1275 
Q 428 1772 725 2092 
Q 1022 2413 1556 2484 
Q 1084 2569 832 2842 
Q 581 3116 581 3541 
Q 581 4103 968 4426 
Q 1356 4750 2034 4750 
Q 2713 4750 3100 4426 
Q 3488 4103 3488 3541 
Q 3488 3116 3236 2842 
Q 2984 2569 2516 2484 
z
" transform="scale(0.015625)"/>
       </defs>
       <use xlink:href="#DejaVuSerif-30"/>
       <use xlink:href="#DejaVuSerif-2e" x="63.623047"/>
       <use xlink:href="#DejaVuSerif-38" x="95.410156"/>
      </g>
     </g>
    </g>
    <g id="ytick_5">
     <g id="line2d_14">
      <g>
       <use xlink:href="#m8ce4798e5f" x="38.171563" y="25.030868" style="stroke: #000000; stroke-width: 0.8"/>
      </g>
     </g>
     <g id="text_15">
      <!-- 1.0 -->
      <g transform="translate(13.678125 29.210009) scale(0.11 -0.11)">
       <use xlink:href="#DejaVuSerif-31"/>
       <use xlink:href="#DejaVuSerif-2e" x="63.623047"/>
       <use xlink:href="#DejaVuSerif-30" x="95.410156"/>
      </g>
     </g>
    </g>
    <g id="text_16">
     <!-- accuracy -->
     <g transform="translate(7.45625 170.055531) rotate(-90) scale(0.1 -0.1)">
      <defs>
       <path id="DejaVuSerif-61" d="M 2547 1044 
L 2547 1747 
L 1806 1747 
Q 1378 1747 1168 1562 
Q 959 1378 959 997 
Q 959 650 1171 447 
Q 1384 244 1747 244 
Q 2106 244 2326 466 
Q 2547 688 2547 1044 
z
M 3122 2075 
L 3122 331 
L 3634 331 
L 3634 0 
L 2547 0 
L 2547 359 
Q 2356 128 2106 18 
Q 1856 -91 1522 -91 
Q 969 -91 644 203 
Q 319 497 319 997 
Q 319 1513 691 1797 
Q 1063 2081 1741 2081 
L 2547 2081 
L 2547 2309 
Q 2547 2688 2317 2895 
Q 2088 3103 1672 3103 
Q 1328 3103 1125 2947 
Q 922 2791 872 2484 
L 575 2484 
L 575 3156 
Q 875 3284 1158 3348 
Q 1441 3413 1709 3413 
Q 2400 3413 2761 3070 
Q 3122 2728 3122 2075 
z
" transform="scale(0.015625)"/>
       <path id="DejaVuSerif-75" d="M 2266 3322 
L 3341 3322 
L 3341 331 
L 3884 331 
L 3884 0 
L 2766 0 
L 2766 588 
Q 2606 256 2353 82 
Q 2100 -91 1766 -91 
Q 1213 -91 952 223 
Q 691 538 691 1209 
L 691 2988 
L 172 2988 
L 172 3322 
L 1269 3322 
L 1269 1388 
Q 1269 781 1417 556 
Q 1566 331 1947 331 
Q 2347 331 2556 625 
Q 2766 919 2766 1478 
L 2766 2988 
L 2266 2988 
L 2266 3322 
z
" transform="scale(0.015625)"/>
       <path id="DejaVuSerif-72" d="M 3059 3328 
L 3059 2497 
L 2728 2497 
Q 2713 2744 2591 2866 
Q 2469 2988 2234 2988 
Q 1809 2988 1582 2694 
Q 1356 2400 1356 1850 
L 1356 331 
L 2022 331 
L 2022 0 
L 263 0 
L 263 331 
L 781 331 
L 781 2994 
L 231 2994 
L 231 3322 
L 1356 3322 
L 1356 2731 
Q 1525 3078 1790 3245 
Q 2056 3413 2438 3413 
Q 2578 3413 2733 3391 
Q 2888 3369 3059 3328 
z
" transform="scale(0.015625)"/>
       <path id="DejaVuSerif-79" d="M 1381 -609 
L 1600 -56 
L 359 2988 
L -19 2988 
L -19 3322 
L 1509 3322 
L 1509 2988 
L 978 2988 
L 1913 703 
L 2847 2988 
L 2350 2988 
L 2350 3322 
L 3597 3322 
L 3597 2988 
L 3225 2988 
L 1703 -750 
Q 1547 -1138 1356 -1280 
Q 1166 -1422 819 -1422 
Q 672 -1422 517 -1397 
Q 363 -1372 206 -1325 
L 206 -691 
L 500 -691 
Q 519 -903 608 -995 
Q 697 -1088 884 -1088 
Q 1056 -1088 1161 -992 
Q 1266 -897 1381 -609 
z
" transform="scale(0.015625)"/>
      </defs>
      <use xlink:href="#DejaVuSerif-61"/>
      <use xlink:href="#DejaVuSerif-63" x="59.619141"/>
      <use xlink:href="#DejaVuSerif-63" x="115.625"/>
      <use xlink:href="#DejaVuSerif-75" x="171.630859"/>
      <use xlink:href="#DejaVuSerif-72" x="236.035156"/>
      <use xlink:href="#DejaVuSerif-61" x="283.837891"/>
      <use xlink:href="#DejaVuSerif-63" x="343.457031"/>
      <use xlink:href="#DejaVuSerif-79" x="399.462891"/>
     </g>
    </g>
   </g>
   <g id="line2d_15">
    <path d="M 54.40429 249.87008 
L 56.03572 249.87008 
L 57.66715 249.567173 
L 59.298579 248.658452 
L 60.930009 250.627347 
L 62.561439 249.112812 
L 64.192869 248.961359 
L 65.824299 249.173226 
L 67.455729 244.565432 
L 69.087159 236.473368 
L 70.718589 230.757992 
L 72.350018 227.524187 
L 73.981448 219.286543 
L 75.612878 215.942819 
L 77.244308 214.397658 
L 78.875738 211.602271 
L 80.507168 210.913388 
L 82.138598 208.445661 
L 83.770028 205.035651 
L 85.401457 201.025699 
L 87.032887 201.284135 
L 88.664317 197.651349 
L 90.295747 196.246733 
L 91.927177 193.578047 
L 93.558607 194.483832 
L 95.190037 192.118052 
L 96.821467 190.38284 
L 98.452896 188.355628 
L 100.084326 185.96216 
L 101.715756 185.303904 
L 103.347186 183.937886 
L 104.978616 185.174266 
L 106.610046 182.899527 
L 108.241476 184.449723 
L 109.872906 182.67885 
L 111.504335 182.590746 
L 113.135765 181.199975 
L 114.767195 180.034917 
L 116.398625 180.637794 
L 118.030055 180.194342 
L 119.661485 178.856012 
L 121.292915 176.539739 
L 122.924345 177.875131 
L 124.555774 174.135362 
L 126.187204 174.812498 
L 127.818634 174.140396 
L 129.450064 174.151305 
L 131.081494 169.968084 
L 132.712924 170.278963 
L 134.344354 169.557356 
L 135.975784 167.73404 
L 137.607213 164.977251 
L 139.238643 163.745904 
L 140.870073 163.809255 
L 142.501503 161.500952 
L 144.132933 158.314556 
L 145.764363 158.143384 
L 147.395793 155.714255 
L 149.027223 154.28195 
L 150.658652 153.532653 
L 152.290082 149.525638 
L 153.921512 147.537025 
L 155.552942 145.270257 
L 157.184372 145.806847 
L 158.815802 142.782812 
L 160.447232 137.406842 
L 162.078662 136.756557 
L 163.710092 134.08787 
L 165.341521 133.106989 
L 166.972951 131.81523 
L 168.604381 127.830031 
L 170.235811 126.53827 
L 171.867241 126.391852 
L 173.498671 123.029249 
L 175.130101 122.351273 
L 176.761531 120.489361 
L 178.39296 119.1976 
L 180.02439 115.13227 
L 181.65582 113.383214 
L 183.28725 108.905057 
L 184.91868 108.345811 
L 186.55011 107.568826 
L 189.81297 101.826598 
L 191.444399 100.102294 
L 193.075829 97.89594 
L 194.707259 98.361209 
L 196.338689 93.618743 
L 197.970119 94.485928 
L 199.601549 92.084488 
L 201.232979 90.261174 
L 202.864409 88.895155 
L 204.495838 87.269861 
L 206.127268 86.294854 
L 207.758698 84.714032 
L 209.390128 82.766952 
L 211.021558 82.507677 
L 212.652988 82.102823 
L 214.284418 80.508157 
L 215.915848 80.692334 
L 217.547277 78.428503 
L 219.178707 77.428741 
L 220.810137 74.746211 
L 222.441567 74.968985 
L 224.072997 72.694246 
L 225.704427 72.831856 
L 227.335857 70.617531 
L 228.967287 69.694964 
L 230.598716 71.650015 
L 232.230146 70.069193 
L 233.861576 67.742011 
L 235.493006 67.006561 
L 237.124436 65.77815 
L 238.755866 66.876923 
L 240.387296 65.004101 
L 242.018726 62.599725 
L 243.650155 63.051148 
L 245.281585 62.660138 
L 246.913015 61.230769 
L 250.175875 60.302331 
L 253.438735 56.837779 
L 255.070165 59.109582 
L 256.701594 55.796485 
L 259.964454 56.082609 
L 261.595884 53.276315 
L 263.227314 52.744758 
L 264.858744 52.791328 
L 268.121604 50.362199 
L 269.753033 51.408528 
L 271.384463 50.207808 
L 273.015893 48.436934 
L 274.647323 48.433998 
L 276.278753 45.490095 
L 279.541613 45.878168 
L 281.173043 45.498066 
L 282.804473 45.927674 
L 284.435902 43.473792 
L 286.067332 44.42111 
L 287.698762 42.763093 
L 289.330192 43.00265 
L 290.961622 42.016733 
L 292.593052 42.305796 
L 294.224482 41.091232 
L 295.855912 40.876427 
L 297.487341 40.496325 
L 299.118771 40.443882 
L 300.750201 39.204566 
L 302.381631 38.887814 
L 304.013061 39.884637 
L 305.644491 37.962311 
L 307.275921 38.000909 
L 308.907351 37.758415 
L 310.53878 36.860603 
L 312.17021 37.61787 
L 313.80164 35.797491 
L 315.43307 34.885834 
L 317.0645 35.25209 
L 318.69593 34.379031 
L 321.95879 34.22464 
L 323.590219 32.795273 
L 325.221649 32.541871 
L 326.853079 31.707407 
L 328.484509 31.99647 
L 330.115939 30.781906 
L 331.747369 30.679957 
L 335.010229 30.690865 
L 336.641658 30.085052 
L 338.273088 30.247412 
L 339.904518 28.66659 
L 341.535948 29.501054 
L 343.167378 29.184303 
L 344.798808 28.74085 
L 346.430238 28.691344 
L 348.061668 27.804439 
L 349.693097 28.286488 
L 351.324527 27.438181 
L 352.955957 28.132099 
L 354.587387 27.980646 
L 356.218817 27.399583 
L 357.850247 27.12143 
L 359.481677 27.360987 
L 364.375966 27.234286 
L 366.007396 27.815347 
L 367.638826 26.741327 
L 369.270256 26.980885 
L 370.901686 26.766079 
L 372.533116 27.259038 
L 374.164546 27.157091 
L 375.795975 26.361225 
L 377.427405 26.297875 
L 379.058835 26.449328 
L 379.058835 26.449328 
" clip-path="url(#p13a0ea2604)" style="fill: none; stroke: #ff0000; stroke-linecap: square"/>
    <defs>
     <path id="m045b0e6375" d="M 0 2.5 
C 0.663008 2.5 1.29895 2.236584 1.767767 1.767767 
C 2.236584 1.29895 2.5 0.663008 2.5 0 
C 2.5 -0.663008 2.236584 -1.29895 1.767767 -1.767767 
C 1.29895 -2.236584 0.663008 -2.5 0 -2.5 
C -0.663008 -2.5 -1.29895 -2.236584 -1.767767 -1.767767 
C -2.236584 -1.29895 -2.5 -0.663008 -2.5 0 
C -2.5 0.663008 -2.236584 1.29895 -1.767767 1.767767 
C -1.29895 2.236584 -0.663008 2.5 0 2.5 
z
" style="stroke: #ff0000"/>
    </defs>
    <g clip-path="url(#p13a0ea2604)">
     <use xlink:href="#m045b0e6375" x="54.40429" y="249.87008" style="fill: #ff0000; stroke: #ff0000"/>
     <use xlink:href="#m045b0e6375" x="56.03572" y="249.87008" style="fill: #ff0000; stroke: #ff0000"/>
     <use xlink:href="#m045b0e6375" x="57.66715" y="249.567173" style="fill: #ff0000; stroke: #ff0000"/>
     <use xlink:href="#m045b0e6375" x="59.298579" y="248.658452" style="fill: #ff0000; stroke: #ff0000"/>
     <use xlink:href="#m045b0e6375" x="60.930009" y="250.627347" style="fill: #ff0000; stroke: #ff0000"/>
     <use xlink:href="#m045b0e6375" x="62.561439" y="249.112812" style="fill: #ff0000; stroke: #ff0000"/>
     <use xlink:href="#m045b0e6375" x="64.192869" y="248.961359" style="fill: #ff0000; stroke: #ff0000"/>
     <use xlink:href="#m045b0e6375" x="65.824299" y="249.173226" style="fill: #ff0000; stroke: #ff0000"/>
     <use xlink:href="#m045b0e6375" x="67.455729" y="244.565432" style="fill: #ff0000; stroke: #ff0000"/>
     <use xlink:href="#m045b0e6375" x="69.087159" y="236.473368" style="fill: #ff0000; stroke: #ff0000"/>
     <use xlink:href="#m045b0e6375" x="70.718589" y="230.757992" style="fill: #ff0000; stroke: #ff0000"/>
     <use xlink:href="#m045b0e6375" x="72.350018" y="227.524187" style="fill: #ff0000; stroke: #ff0000"/>
     <use xlink:href="#m045b0e6375" x="73.981448" y="219.286543" style="fill: #ff0000; stroke: #ff0000"/>
     <use xlink:href="#m045b0e6375" x="75.612878" y="215.942819" style="fill: #ff0000; stroke: #ff0000"/>
     <use xlink:href="#m045b0e6375" x="77.244308" y="214.397658" style="fill: #ff0000; stroke: #ff0000"/>
     <use xlink:href="#m045b0e6375" x="78.875738" y="211.602271" style="fill: #ff0000; stroke: #ff0000"/>
     <use xlink:href="#m045b0e6375" x="80.507168" y="210.913388" style="fill: #ff0000; stroke: #ff0000"/>
     <use xlink:href="#m045b0e6375" x="82.138598" y="208.445661" style="fill: #ff0000; stroke: #ff0000"/>
     <use xlink:href="#m045b0e6375" x="83.770028" y="205.035651" style="fill: #ff0000; stroke: #ff0000"/>
     <use xlink:href="#m045b0e6375" x="85.401457" y="201.025699" style="fill: #ff0000; stroke: #ff0000"/>
     <use xlink:href="#m045b0e6375" x="87.032887" y="201.284135" style="fill: #ff0000; stroke: #ff0000"/>
     <use xlink:href="#m045b0e6375" x="88.664317" y="197.651349" style="fill: #ff0000; stroke: #ff0000"/>
     <use xlink:href="#m045b0e6375" x="90.295747" y="196.246733" style="fill: #ff0000; stroke: #ff0000"/>
     <use xlink:href="#m045b0e6375" x="91.927177" y="193.578047" style="fill: #ff0000; stroke: #ff0000"/>
     <use xlink:href="#m045b0e6375" x="93.558607" y="194.483832" style="fill: #ff0000; stroke: #ff0000"/>
     <use xlink:href="#m045b0e6375" x="95.190037" y="192.118052" style="fill: #ff0000; stroke: #ff0000"/>
     <use xlink:href="#m045b0e6375" x="96.821467" y="190.38284" style="fill: #ff0000; stroke: #ff0000"/>
     <use xlink:href="#m045b0e6375" x="98.452896" y="188.355628" style="fill: #ff0000; stroke: #ff0000"/>
     <use xlink:href="#m045b0e6375" x="100.084326" y="185.96216" style="fill: #ff0000; stroke: #ff0000"/>
     <use xlink:href="#m045b0e6375" x="101.715756" y="185.303904" style="fill: #ff0000; stroke: #ff0000"/>
     <use xlink:href="#m045b0e6375" x="103.347186" y="183.937886" style="fill: #ff0000; stroke: #ff0000"/>
     <use xlink:href="#m045b0e6375" x="104.978616" y="185.174266" style="fill: #ff0000; stroke: #ff0000"/>
     <use xlink:href="#m045b0e6375" x="106.610046" y="182.899527" style="fill: #ff0000; stroke: #ff0000"/>
     <use xlink:href="#m045b0e6375" x="108.241476" y="184.449723" style="fill: #ff0000; stroke: #ff0000"/>
     <use xlink:href="#m045b0e6375" x="109.872906" y="182.67885" style="fill: #ff0000; stroke: #ff0000"/>
     <use xlink:href="#m045b0e6375" x="111.504335" y="182.590746" style="fill: #ff0000; stroke: #ff0000"/>
     <use xlink:href="#m045b0e6375" x="113.135765" y="181.199975" style="fill: #ff0000; stroke: #ff0000"/>
     <use xlink:href="#m045b0e6375" x="114.767195" y="180.034917" style="fill: #ff0000; stroke: #ff0000"/>
     <use xlink:href="#m045b0e6375" x="116.398625" y="180.637794" style="fill: #ff0000; stroke: #ff0000"/>
     <use xlink:href="#m045b0e6375" x="118.030055" y="180.194342" style="fill: #ff0000; stroke: #ff0000"/>
     <use xlink:href="#m045b0e6375" x="119.661485" y="178.856012" style="fill: #ff0000; stroke: #ff0000"/>
     <use xlink:href="#m045b0e6375" x="121.292915" y="176.539739" style="fill: #ff0000; stroke: #ff0000"/>
     <use xlink:href="#m045b0e6375" x="122.924345" y="177.875131" style="fill: #ff0000; stroke: #ff0000"/>
     <use xlink:href="#m045b0e6375" x="124.555774" y="174.135362" style="fill: #ff0000; stroke: #ff0000"/>
     <use xlink:href="#m045b0e6375" x="126.187204" y="174.812498" style="fill: #ff0000; stroke: #ff0000"/>
     <use xlink:href="#m045b0e6375" x="127.818634" y="174.140396" style="fill: #ff0000; stroke: #ff0000"/>
     <use xlink:href="#m045b0e6375" x="129.450064" y="174.151305" style="fill: #ff0000; stroke: #ff0000"/>
     <use xlink:href="#m045b0e6375" x="131.081494" y="169.968084" style="fill: #ff0000; stroke: #ff0000"/>
     <use xlink:href="#m045b0e6375" x="132.712924" y="170.278963" style="fill: #ff0000; stroke: #ff0000"/>
     <use xlink:href="#m045b0e6375" x="134.344354" y="169.557356" style="fill: #ff0000; stroke: #ff0000"/>
     <use xlink:href="#m045b0e6375" x="135.975784" y="167.73404" style="fill: #ff0000; stroke: #ff0000"/>
     <use xlink:href="#m045b0e6375" x="137.607213" y="164.977251" style="fill: #ff0000; stroke: #ff0000"/>
     <use xlink:href="#m045b0e6375" x="139.238643" y="163.745904" style="fill: #ff0000; stroke: #ff0000"/>
     <use xlink:href="#m045b0e6375" x="140.870073" y="163.809255" style="fill: #ff0000; stroke: #ff0000"/>
     <use xlink:href="#m045b0e6375" x="142.501503" y="161.500952" style="fill: #ff0000; stroke: #ff0000"/>
     <use xlink:href="#m045b0e6375" x="144.132933" y="158.314556" style="fill: #ff0000; stroke: #ff0000"/>
     <use xlink:href="#m045b0e6375" x="145.764363" y="158.143384" style="fill: #ff0000; stroke: #ff0000"/>
     <use xlink:href="#m045b0e6375" x="147.395793" y="155.714255" style="fill: #ff0000; stroke: #ff0000"/>
     <use xlink:href="#m045b0e6375" x="149.027223" y="154.28195" style="fill: #ff0000; stroke: #ff0000"/>
     <use xlink:href="#m045b0e6375" x="150.658652" y="153.532653" style="fill: #ff0000; stroke: #ff0000"/>
     <use xlink:href="#m045b0e6375" x="152.290082" y="149.525638" style="fill: #ff0000; stroke: #ff0000"/>
     <use xlink:href="#m045b0e6375" x="153.921512" y="147.537025" style="fill: #ff0000; stroke: #ff0000"/>
     <use xlink:href="#m045b0e6375" x="155.552942" y="145.270257" style="fill: #ff0000; stroke: #ff0000"/>
     <use xlink:href="#m045b0e6375" x="157.184372" y="145.806847" style="fill: #ff0000; stroke: #ff0000"/>
     <use xlink:href="#m045b0e6375" x="158.815802" y="142.782812" style="fill: #ff0000; stroke: #ff0000"/>
     <use xlink:href="#m045b0e6375" x="160.447232" y="137.406842" style="fill: #ff0000; stroke: #ff0000"/>
     <use xlink:href="#m045b0e6375" x="162.078662" y="136.756557" style="fill: #ff0000; stroke: #ff0000"/>
     <use xlink:href="#m045b0e6375" x="163.710092" y="134.08787" style="fill: #ff0000; stroke: #ff0000"/>
     <use xlink:href="#m045b0e6375" x="165.341521" y="133.106989" style="fill: #ff0000; stroke: #ff0000"/>
     <use xlink:href="#m045b0e6375" x="166.972951" y="131.81523" style="fill: #ff0000; stroke: #ff0000"/>
     <use xlink:href="#m045b0e6375" x="168.604381" y="127.830031" style="fill: #ff0000; stroke: #ff0000"/>
     <use xlink:href="#m045b0e6375" x="170.235811" y="126.53827" style="fill: #ff0000; stroke: #ff0000"/>
     <use xlink:href="#m045b0e6375" x="171.867241" y="126.391852" style="fill: #ff0000; stroke: #ff0000"/>
     <use xlink:href="#m045b0e6375" x="173.498671" y="123.029249" style="fill: #ff0000; stroke: #ff0000"/>
     <use xlink:href="#m045b0e6375" x="175.130101" y="122.351273" style="fill: #ff0000; stroke: #ff0000"/>
     <use xlink:href="#m045b0e6375" x="176.761531" y="120.489361" style="fill: #ff0000; stroke: #ff0000"/>
     <use xlink:href="#m045b0e6375" x="178.39296" y="119.1976" style="fill: #ff0000; stroke: #ff0000"/>
     <use xlink:href="#m045b0e6375" x="180.02439" y="115.13227" style="fill: #ff0000; stroke: #ff0000"/>
     <use xlink:href="#m045b0e6375" x="181.65582" y="113.383214" style="fill: #ff0000; stroke: #ff0000"/>
     <use xlink:href="#m045b0e6375" x="183.28725" y="108.905057" style="fill: #ff0000; stroke: #ff0000"/>
     <use xlink:href="#m045b0e6375" x="184.91868" y="108.345811" style="fill: #ff0000; stroke: #ff0000"/>
     <use xlink:href="#m045b0e6375" x="186.55011" y="107.568826" style="fill: #ff0000; stroke: #ff0000"/>
     <use xlink:href="#m045b0e6375" x="188.18154" y="104.720997" style="fill: #ff0000; stroke: #ff0000"/>
     <use xlink:href="#m045b0e6375" x="189.81297" y="101.826598" style="fill: #ff0000; stroke: #ff0000"/>
     <use xlink:href="#m045b0e6375" x="191.444399" y="100.102294" style="fill: #ff0000; stroke: #ff0000"/>
     <use xlink:href="#m045b0e6375" x="193.075829" y="97.89594" style="fill: #ff0000; stroke: #ff0000"/>
     <use xlink:href="#m045b0e6375" x="194.707259" y="98.361209" style="fill: #ff0000; stroke: #ff0000"/>
     <use xlink:href="#m045b0e6375" x="196.338689" y="93.618743" style="fill: #ff0000; stroke: #ff0000"/>
     <use xlink:href="#m045b0e6375" x="197.970119" y="94.485928" style="fill: #ff0000; stroke: #ff0000"/>
     <use xlink:href="#m045b0e6375" x="199.601549" y="92.084488" style="fill: #ff0000; stroke: #ff0000"/>
     <use xlink:href="#m045b0e6375" x="201.232979" y="90.261174" style="fill: #ff0000; stroke: #ff0000"/>
     <use xlink:href="#m045b0e6375" x="202.864409" y="88.895155" style="fill: #ff0000; stroke: #ff0000"/>
     <use xlink:href="#m045b0e6375" x="204.495838" y="87.269861" style="fill: #ff0000; stroke: #ff0000"/>
     <use xlink:href="#m045b0e6375" x="206.127268" y="86.294854" style="fill: #ff0000; stroke: #ff0000"/>
     <use xlink:href="#m045b0e6375" x="207.758698" y="84.714032" style="fill: #ff0000; stroke: #ff0000"/>
     <use xlink:href="#m045b0e6375" x="209.390128" y="82.766952" style="fill: #ff0000; stroke: #ff0000"/>
     <use xlink:href="#m045b0e6375" x="211.021558" y="82.507677" style="fill: #ff0000; stroke: #ff0000"/>
     <use xlink:href="#m045b0e6375" x="212.652988" y="82.102823" style="fill: #ff0000; stroke: #ff0000"/>
     <use xlink:href="#m045b0e6375" x="214.284418" y="80.508157" style="fill: #ff0000; stroke: #ff0000"/>
     <use xlink:href="#m045b0e6375" x="215.915848" y="80.692334" style="fill: #ff0000; stroke: #ff0000"/>
     <use xlink:href="#m045b0e6375" x="217.547277" y="78.428503" style="fill: #ff0000; stroke: #ff0000"/>
     <use xlink:href="#m045b0e6375" x="219.178707" y="77.428741" style="fill: #ff0000; stroke: #ff0000"/>
     <use xlink:href="#m045b0e6375" x="220.810137" y="74.746211" style="fill: #ff0000; stroke: #ff0000"/>
     <use xlink:href="#m045b0e6375" x="222.441567" y="74.968985" style="fill: #ff0000; stroke: #ff0000"/>
     <use xlink:href="#m045b0e6375" x="224.072997" y="72.694246" style="fill: #ff0000; stroke: #ff0000"/>
     <use xlink:href="#m045b0e6375" x="225.704427" y="72.831856" style="fill: #ff0000; stroke: #ff0000"/>
     <use xlink:href="#m045b0e6375" x="227.335857" y="70.617531" style="fill: #ff0000; stroke: #ff0000"/>
     <use xlink:href="#m045b0e6375" x="228.967287" y="69.694964" style="fill: #ff0000; stroke: #ff0000"/>
     <use xlink:href="#m045b0e6375" x="230.598716" y="71.650015" style="fill: #ff0000; stroke: #ff0000"/>
     <use xlink:href="#m045b0e6375" x="232.230146" y="70.069193" style="fill: #ff0000; stroke: #ff0000"/>
     <use xlink:href="#m045b0e6375" x="233.861576" y="67.742011" style="fill: #ff0000; stroke: #ff0000"/>
     <use xlink:href="#m045b0e6375" x="235.493006" y="67.006561" style="fill: #ff0000; stroke: #ff0000"/>
     <use xlink:href="#m045b0e6375" x="237.124436" y="65.77815" style="fill: #ff0000; stroke: #ff0000"/>
     <use xlink:href="#m045b0e6375" x="238.755866" y="66.876923" style="fill: #ff0000; stroke: #ff0000"/>
     <use xlink:href="#m045b0e6375" x="240.387296" y="65.004101" style="fill: #ff0000; stroke: #ff0000"/>
     <use xlink:href="#m045b0e6375" x="242.018726" y="62.599725" style="fill: #ff0000; stroke: #ff0000"/>
     <use xlink:href="#m045b0e6375" x="243.650155" y="63.051148" style="fill: #ff0000; stroke: #ff0000"/>
     <use xlink:href="#m045b0e6375" x="245.281585" y="62.660138" style="fill: #ff0000; stroke: #ff0000"/>
     <use xlink:href="#m045b0e6375" x="246.913015" y="61.230769" style="fill: #ff0000; stroke: #ff0000"/>
     <use xlink:href="#m045b0e6375" x="248.544445" y="60.745783" style="fill: #ff0000; stroke: #ff0000"/>
     <use xlink:href="#m045b0e6375" x="250.175875" y="60.302331" style="fill: #ff0000; stroke: #ff0000"/>
     <use xlink:href="#m045b0e6375" x="251.807305" y="58.61956" style="fill: #ff0000; stroke: #ff0000"/>
     <use xlink:href="#m045b0e6375" x="253.438735" y="56.837779" style="fill: #ff0000; stroke: #ff0000"/>
     <use xlink:href="#m045b0e6375" x="255.070165" y="59.109582" style="fill: #ff0000; stroke: #ff0000"/>
     <use xlink:href="#m045b0e6375" x="256.701594" y="55.796485" style="fill: #ff0000; stroke: #ff0000"/>
     <use xlink:href="#m045b0e6375" x="258.333024" y="55.920249" style="fill: #ff0000; stroke: #ff0000"/>
     <use xlink:href="#m045b0e6375" x="259.964454" y="56.082609" style="fill: #ff0000; stroke: #ff0000"/>
     <use xlink:href="#m045b0e6375" x="261.595884" y="53.276315" style="fill: #ff0000; stroke: #ff0000"/>
     <use xlink:href="#m045b0e6375" x="263.227314" y="52.744758" style="fill: #ff0000; stroke: #ff0000"/>
     <use xlink:href="#m045b0e6375" x="264.858744" y="52.791328" style="fill: #ff0000; stroke: #ff0000"/>
     <use xlink:href="#m045b0e6375" x="266.490174" y="51.5797" style="fill: #ff0000; stroke: #ff0000"/>
     <use xlink:href="#m045b0e6375" x="268.121604" y="50.362199" style="fill: #ff0000; stroke: #ff0000"/>
     <use xlink:href="#m045b0e6375" x="269.753033" y="51.408528" style="fill: #ff0000; stroke: #ff0000"/>
     <use xlink:href="#m045b0e6375" x="271.384463" y="50.207808" style="fill: #ff0000; stroke: #ff0000"/>
     <use xlink:href="#m045b0e6375" x="273.015893" y="48.436934" style="fill: #ff0000; stroke: #ff0000"/>
     <use xlink:href="#m045b0e6375" x="274.647323" y="48.433998" style="fill: #ff0000; stroke: #ff0000"/>
     <use xlink:href="#m045b0e6375" x="276.278753" y="45.490095" style="fill: #ff0000; stroke: #ff0000"/>
     <use xlink:href="#m045b0e6375" x="277.910183" y="45.715808" style="fill: #ff0000; stroke: #ff0000"/>
     <use xlink:href="#m045b0e6375" x="279.541613" y="45.878168" style="fill: #ff0000; stroke: #ff0000"/>
     <use xlink:href="#m045b0e6375" x="281.173043" y="45.498066" style="fill: #ff0000; stroke: #ff0000"/>
     <use xlink:href="#m045b0e6375" x="282.804473" y="45.927674" style="fill: #ff0000; stroke: #ff0000"/>
     <use xlink:href="#m045b0e6375" x="284.435902" y="43.473792" style="fill: #ff0000; stroke: #ff0000"/>
     <use xlink:href="#m045b0e6375" x="286.067332" y="44.42111" style="fill: #ff0000; stroke: #ff0000"/>
     <use xlink:href="#m045b0e6375" x="287.698762" y="42.763093" style="fill: #ff0000; stroke: #ff0000"/>
     <use xlink:href="#m045b0e6375" x="289.330192" y="43.00265" style="fill: #ff0000; stroke: #ff0000"/>
     <use xlink:href="#m045b0e6375" x="290.961622" y="42.016733" style="fill: #ff0000; stroke: #ff0000"/>
     <use xlink:href="#m045b0e6375" x="292.593052" y="42.305796" style="fill: #ff0000; stroke: #ff0000"/>
     <use xlink:href="#m045b0e6375" x="294.224482" y="41.091232" style="fill: #ff0000; stroke: #ff0000"/>
     <use xlink:href="#m045b0e6375" x="295.855912" y="40.876427" style="fill: #ff0000; stroke: #ff0000"/>
     <use xlink:href="#m045b0e6375" x="297.487341" y="40.496325" style="fill: #ff0000; stroke: #ff0000"/>
     <use xlink:href="#m045b0e6375" x="299.118771" y="40.443882" style="fill: #ff0000; stroke: #ff0000"/>
     <use xlink:href="#m045b0e6375" x="300.750201" y="39.204566" style="fill: #ff0000; stroke: #ff0000"/>
     <use xlink:href="#m045b0e6375" x="302.381631" y="38.887814" style="fill: #ff0000; stroke: #ff0000"/>
     <use xlink:href="#m045b0e6375" x="304.013061" y="39.884637" style="fill: #ff0000; stroke: #ff0000"/>
     <use xlink:href="#m045b0e6375" x="305.644491" y="37.962311" style="fill: #ff0000; stroke: #ff0000"/>
     <use xlink:href="#m045b0e6375" x="307.275921" y="38.000909" style="fill: #ff0000; stroke: #ff0000"/>
     <use xlink:href="#m045b0e6375" x="308.907351" y="37.758415" style="fill: #ff0000; stroke: #ff0000"/>
     <use xlink:href="#m045b0e6375" x="310.53878" y="36.860603" style="fill: #ff0000; stroke: #ff0000"/>
     <use xlink:href="#m045b0e6375" x="312.17021" y="37.61787" style="fill: #ff0000; stroke: #ff0000"/>
     <use xlink:href="#m045b0e6375" x="313.80164" y="35.797491" style="fill: #ff0000; stroke: #ff0000"/>
     <use xlink:href="#m045b0e6375" x="315.43307" y="34.885834" style="fill: #ff0000; stroke: #ff0000"/>
     <use xlink:href="#m045b0e6375" x="317.0645" y="35.25209" style="fill: #ff0000; stroke: #ff0000"/>
     <use xlink:href="#m045b0e6375" x="318.69593" y="34.379031" style="fill: #ff0000; stroke: #ff0000"/>
     <use xlink:href="#m045b0e6375" x="320.32736" y="34.249394" style="fill: #ff0000; stroke: #ff0000"/>
     <use xlink:href="#m045b0e6375" x="321.95879" y="34.22464" style="fill: #ff0000; stroke: #ff0000"/>
     <use xlink:href="#m045b0e6375" x="323.590219" y="32.795273" style="fill: #ff0000; stroke: #ff0000"/>
     <use xlink:href="#m045b0e6375" x="325.221649" y="32.541871" style="fill: #ff0000; stroke: #ff0000"/>
     <use xlink:href="#m045b0e6375" x="326.853079" y="31.707407" style="fill: #ff0000; stroke: #ff0000"/>
     <use xlink:href="#m045b0e6375" x="328.484509" y="31.99647" style="fill: #ff0000; stroke: #ff0000"/>
     <use xlink:href="#m045b0e6375" x="330.115939" y="30.781906" style="fill: #ff0000; stroke: #ff0000"/>
     <use xlink:href="#m045b0e6375" x="331.747369" y="30.679957" style="fill: #ff0000; stroke: #ff0000"/>
     <use xlink:href="#m045b0e6375" x="333.378799" y="30.704711" style="fill: #ff0000; stroke: #ff0000"/>
     <use xlink:href="#m045b0e6375" x="335.010229" y="30.690865" style="fill: #ff0000; stroke: #ff0000"/>
     <use xlink:href="#m045b0e6375" x="336.641658" y="30.085052" style="fill: #ff0000; stroke: #ff0000"/>
     <use xlink:href="#m045b0e6375" x="338.273088" y="30.247412" style="fill: #ff0000; stroke: #ff0000"/>
     <use xlink:href="#m045b0e6375" x="339.904518" y="28.66659" style="fill: #ff0000; stroke: #ff0000"/>
     <use xlink:href="#m045b0e6375" x="341.535948" y="29.501054" style="fill: #ff0000; stroke: #ff0000"/>
     <use xlink:href="#m045b0e6375" x="343.167378" y="29.184303" style="fill: #ff0000; stroke: #ff0000"/>
     <use xlink:href="#m045b0e6375" x="344.798808" y="28.74085" style="fill: #ff0000; stroke: #ff0000"/>
     <use xlink:href="#m045b0e6375" x="346.430238" y="28.691344" style="fill: #ff0000; stroke: #ff0000"/>
     <use xlink:href="#m045b0e6375" x="348.061668" y="27.804439" style="fill: #ff0000; stroke: #ff0000"/>
     <use xlink:href="#m045b0e6375" x="349.693097" y="28.286488" style="fill: #ff0000; stroke: #ff0000"/>
     <use xlink:href="#m045b0e6375" x="351.324527" y="27.438181" style="fill: #ff0000; stroke: #ff0000"/>
     <use xlink:href="#m045b0e6375" x="352.955957" y="28.132099" style="fill: #ff0000; stroke: #ff0000"/>
     <use xlink:href="#m045b0e6375" x="354.587387" y="27.980646" style="fill: #ff0000; stroke: #ff0000"/>
     <use xlink:href="#m045b0e6375" x="356.218817" y="27.399583" style="fill: #ff0000; stroke: #ff0000"/>
     <use xlink:href="#m045b0e6375" x="357.850247" y="27.12143" style="fill: #ff0000; stroke: #ff0000"/>
     <use xlink:href="#m045b0e6375" x="359.481677" y="27.360987" style="fill: #ff0000; stroke: #ff0000"/>
     <use xlink:href="#m045b0e6375" x="361.113107" y="27.297636" style="fill: #ff0000; stroke: #ff0000"/>
     <use xlink:href="#m045b0e6375" x="362.744536" y="27.297636" style="fill: #ff0000; stroke: #ff0000"/>
     <use xlink:href="#m045b0e6375" x="364.375966" y="27.234286" style="fill: #ff0000; stroke: #ff0000"/>
     <use xlink:href="#m045b0e6375" x="366.007396" y="27.815347" style="fill: #ff0000; stroke: #ff0000"/>
     <use xlink:href="#m045b0e6375" x="367.638826" y="26.741327" style="fill: #ff0000; stroke: #ff0000"/>
     <use xlink:href="#m045b0e6375" x="369.270256" y="26.980885" style="fill: #ff0000; stroke: #ff0000"/>
     <use xlink:href="#m045b0e6375" x="370.901686" y="26.766079" style="fill: #ff0000; stroke: #ff0000"/>
     <use xlink:href="#m045b0e6375" x="372.533116" y="27.259038" style="fill: #ff0000; stroke: #ff0000"/>
     <use xlink:href="#m045b0e6375" x="374.164546" y="27.157091" style="fill: #ff0000; stroke: #ff0000"/>
     <use xlink:href="#m045b0e6375" x="375.795975" y="26.361225" style="fill: #ff0000; stroke: #ff0000"/>
     <use xlink:href="#m045b0e6375" x="377.427405" y="26.297875" style="fill: #ff0000; stroke: #ff0000"/>
     <use xlink:href="#m045b0e6375" x="379.058835" y="26.449328" style="fill: #ff0000; stroke: #ff0000"/>
    </g>
   </g>
   <g id="line2d_16">
    <path d="M 54.40429 268.217875 
L 62.561439 268.217875 
L 64.192869 240.639969 
L 65.824299 240.639969 
L 67.455729 239.386425 
L 69.087159 226.851013 
L 70.718589 216.822684 
L 72.350018 205.540815 
L 73.981448 203.033728 
L 77.244308 195.512482 
L 78.875738 199.273105 
L 80.507168 200.526649 
L 82.138598 200.526649 
L 83.770028 198.019562 
L 87.032887 203.033728 
L 88.664317 196.766026 
L 93.558607 204.287272 
L 95.190037 203.033728 
L 98.452896 205.540815 
L 100.084326 204.287272 
L 101.715756 201.780192 
L 103.347186 204.287272 
L 104.978616 201.780192 
L 106.610046 201.780192 
L 108.241476 194.258939 
L 109.872906 194.258939 
L 111.504335 199.273105 
L 113.135765 194.258939 
L 114.767195 193.005403 
L 116.398625 199.273105 
L 118.030055 190.498316 
L 122.924345 194.258939 
L 124.555774 194.258939 
L 126.187204 189.24478 
L 127.818634 193.005403 
L 129.450064 185.484149 
L 131.081494 185.484149 
L 132.712924 190.498316 
L 134.344354 187.991236 
L 135.975784 189.24478 
L 137.607213 189.24478 
L 139.238643 191.751859 
L 140.870073 189.24478 
L 142.501503 189.24478 
L 144.132933 190.498316 
L 145.764363 189.24478 
L 147.395793 190.498316 
L 149.027223 194.258939 
L 150.658652 191.751859 
L 152.290082 196.766026 
L 153.921512 196.766026 
L 155.552942 199.273105 
L 157.184372 199.273105 
L 158.815802 200.526649 
L 160.447232 195.512482 
L 162.078662 194.258939 
L 163.710092 196.766026 
L 166.972951 196.766026 
L 168.604381 194.258939 
L 170.235811 199.273105 
L 171.867241 200.526649 
L 175.130101 198.019562 
L 176.761531 200.526649 
L 178.39296 198.019562 
L 181.65582 200.526649 
L 183.28725 200.526649 
L 184.91868 194.258939 
L 186.55011 193.005403 
L 188.18154 199.273105 
L 191.444399 194.258939 
L 193.075829 195.512482 
L 194.707259 194.258939 
L 196.338689 189.24478 
L 197.970119 193.005403 
L 199.601549 194.258939 
L 201.232979 199.273105 
L 202.864409 193.005403 
L 204.495838 190.498316 
L 206.127268 195.512482 
L 207.758698 191.751859 
L 209.390128 199.273105 
L 211.021558 195.512482 
L 212.652988 198.019562 
L 214.284418 191.751859 
L 215.915848 198.019562 
L 217.547277 194.258939 
L 219.178707 193.005403 
L 220.810137 195.512482 
L 222.441567 199.273105 
L 224.072997 195.512482 
L 225.704427 194.258939 
L 227.335857 195.512482 
L 228.967287 193.005403 
L 232.230146 198.019562 
L 233.861576 193.005403 
L 235.493006 198.019562 
L 237.124436 196.766026 
L 238.755866 200.526649 
L 240.387296 195.512482 
L 242.018726 199.273105 
L 243.650155 198.019562 
L 245.281585 195.512482 
L 246.913015 203.033728 
L 248.544445 193.005403 
L 250.175875 191.751859 
L 251.807305 199.273105 
L 253.438735 196.766026 
L 255.070165 193.005403 
L 256.701594 199.273105 
L 258.333024 194.258939 
L 259.964454 199.273105 
L 261.595884 195.512482 
L 263.227314 203.033728 
L 264.858744 201.780192 
L 266.490174 191.751859 
L 269.753033 201.780192 
L 271.384463 189.24478 
L 273.015893 200.526649 
L 274.647323 196.766026 
L 276.278753 198.019562 
L 277.910183 200.526649 
L 279.541613 196.766026 
L 281.173043 201.780192 
L 282.804473 200.526649 
L 284.435902 200.526649 
L 286.067332 198.019562 
L 287.698762 198.019562 
L 290.961622 195.512482 
L 292.593052 199.273105 
L 294.224482 196.766026 
L 295.855912 201.780192 
L 297.487341 199.273105 
L 299.118771 201.780192 
L 300.750201 194.258939 
L 302.381631 201.780192 
L 304.013061 199.273105 
L 305.644491 195.512482 
L 307.275921 198.019562 
L 308.907351 196.766026 
L 310.53878 196.766026 
L 313.80164 194.258939 
L 315.43307 195.512482 
L 317.0645 198.019562 
L 318.69593 194.258939 
L 320.32736 195.512482 
L 321.95879 195.512482 
L 323.590219 194.258939 
L 325.221649 195.512482 
L 326.853079 201.780192 
L 328.484509 194.258939 
L 330.115939 196.766026 
L 331.747369 196.766026 
L 333.378799 195.512482 
L 335.010229 196.766026 
L 336.641658 196.766026 
L 338.273088 195.512482 
L 339.904518 200.526649 
L 341.535948 194.258939 
L 343.167378 196.766026 
L 344.798808 195.512482 
L 346.430238 198.019562 
L 348.061668 196.766026 
L 349.693097 198.019562 
L 351.324527 195.512482 
L 352.955957 200.526649 
L 354.587387 196.766026 
L 356.218817 195.512482 
L 357.850247 195.512482 
L 359.481677 198.019562 
L 361.113107 195.512482 
L 362.744536 201.780192 
L 364.375966 195.512482 
L 366.007396 204.287272 
L 367.638826 198.019562 
L 369.270256 196.766026 
L 370.901686 200.526649 
L 372.533116 203.033728 
L 374.164546 201.780192 
L 375.795975 195.512482 
L 377.427405 201.780192 
L 379.058835 199.273105 
L 379.058835 199.273105 
" clip-path="url(#p13a0ea2604)" style="fill: none; stroke: #0000ff; stroke-linecap: square"/>
    <defs>
     <path id="ma4dade8e89" d="M 0 2.5 
C 0.663008 2.5 1.29895 2.236584 1.767767 1.767767 
C 2.236584 1.29895 2.5 0.663008 2.5 0 
C 2.5 -0.663008 2.236584 -1.29895 1.767767 -1.767767 
C 1.29895 -2.236584 0.663008 -2.5 0 -2.5 
C -0.663008 -2.5 -1.29895 -2.236584 -1.767767 -1.767767 
C -2.236584 -1.29895 -2.5 -0.663008 -2.5 0 
C -2.5 0.663008 -2.236584 1.29895 -1.767767 1.767767 
C -1.29895 2.236584 -0.663008 2.5 0 2.5 
z
" style="stroke: #0000ff"/>
    </defs>
    <g clip-path="url(#p13a0ea2604)">
     <use xlink:href="#ma4dade8e89" x="54.40429" y="268.217875" style="fill: #0000ff; stroke: #0000ff"/>
     <use xlink:href="#ma4dade8e89" x="56.03572" y="268.217875" style="fill: #0000ff; stroke: #0000ff"/>
     <use xlink:href="#ma4dade8e89" x="57.66715" y="268.217875" style="fill: #0000ff; stroke: #0000ff"/>
     <use xlink:href="#ma4dade8e89" x="59.298579" y="268.217875" style="fill: #0000ff; stroke: #0000ff"/>
     <use xlink:href="#ma4dade8e89" x="60.930009" y="268.217875" style="fill: #0000ff; stroke: #0000ff"/>
     <use xlink:href="#ma4dade8e89" x="62.561439" y="268.217875" style="fill: #0000ff; stroke: #0000ff"/>
     <use xlink:href="#ma4dade8e89" x="64.192869" y="240.639969" style="fill: #0000ff; stroke: #0000ff"/>
     <use xlink:href="#ma4dade8e89" x="65.824299" y="240.639969" style="fill: #0000ff; stroke: #0000ff"/>
     <use xlink:href="#ma4dade8e89" x="67.455729" y="239.386425" style="fill: #0000ff; stroke: #0000ff"/>
     <use xlink:href="#ma4dade8e89" x="69.087159" y="226.851013" style="fill: #0000ff; stroke: #0000ff"/>
     <use xlink:href="#ma4dade8e89" x="70.718589" y="216.822684" style="fill: #0000ff; stroke: #0000ff"/>
     <use xlink:href="#ma4dade8e89" x="72.350018" y="205.540815" style="fill: #0000ff; stroke: #0000ff"/>
     <use xlink:href="#ma4dade8e89" x="73.981448" y="203.033728" style="fill: #0000ff; stroke: #0000ff"/>
     <use xlink:href="#ma4dade8e89" x="75.612878" y="199.273105" style="fill: #0000ff; stroke: #0000ff"/>
     <use xlink:href="#ma4dade8e89" x="77.244308" y="195.512482" style="fill: #0000ff; stroke: #0000ff"/>
     <use xlink:href="#ma4dade8e89" x="78.875738" y="199.273105" style="fill: #0000ff; stroke: #0000ff"/>
     <use xlink:href="#ma4dade8e89" x="80.507168" y="200.526649" style="fill: #0000ff; stroke: #0000ff"/>
     <use xlink:href="#ma4dade8e89" x="82.138598" y="200.526649" style="fill: #0000ff; stroke: #0000ff"/>
     <use xlink:href="#ma4dade8e89" x="83.770028" y="198.019562" style="fill: #0000ff; stroke: #0000ff"/>
     <use xlink:href="#ma4dade8e89" x="85.401457" y="200.526649" style="fill: #0000ff; stroke: #0000ff"/>
     <use xlink:href="#ma4dade8e89" x="87.032887" y="203.033728" style="fill: #0000ff; stroke: #0000ff"/>
     <use xlink:href="#ma4dade8e89" x="88.664317" y="196.766026" style="fill: #0000ff; stroke: #0000ff"/>
     <use xlink:href="#ma4dade8e89" x="90.295747" y="199.273105" style="fill: #0000ff; stroke: #0000ff"/>
     <use xlink:href="#ma4dade8e89" x="91.927177" y="201.780192" style="fill: #0000ff; stroke: #0000ff"/>
     <use xlink:href="#ma4dade8e89" x="93.558607" y="204.287272" style="fill: #0000ff; stroke: #0000ff"/>
     <use xlink:href="#ma4dade8e89" x="95.190037" y="203.033728" style="fill: #0000ff; stroke: #0000ff"/>
     <use xlink:href="#ma4dade8e89" x="96.821467" y="204.287272" style="fill: #0000ff; stroke: #0000ff"/>
     <use xlink:href="#ma4dade8e89" x="98.452896" y="205.540815" style="fill: #0000ff; stroke: #0000ff"/>
     <use xlink:href="#ma4dade8e89" x="100.084326" y="204.287272" style="fill: #0000ff; stroke: #0000ff"/>
     <use xlink:href="#ma4dade8e89" x="101.715756" y="201.780192" style="fill: #0000ff; stroke: #0000ff"/>
     <use xlink:href="#ma4dade8e89" x="103.347186" y="204.287272" style="fill: #0000ff; stroke: #0000ff"/>
     <use xlink:href="#ma4dade8e89" x="104.978616" y="201.780192" style="fill: #0000ff; stroke: #0000ff"/>
     <use xlink:href="#ma4dade8e89" x="106.610046" y="201.780192" style="fill: #0000ff; stroke: #0000ff"/>
     <use xlink:href="#ma4dade8e89" x="108.241476" y="194.258939" style="fill: #0000ff; stroke: #0000ff"/>
     <use xlink:href="#ma4dade8e89" x="109.872906" y="194.258939" style="fill: #0000ff; stroke: #0000ff"/>
     <use xlink:href="#ma4dade8e89" x="111.504335" y="199.273105" style="fill: #0000ff; stroke: #0000ff"/>
     <use xlink:href="#ma4dade8e89" x="113.135765" y="194.258939" style="fill: #0000ff; stroke: #0000ff"/>
     <use xlink:href="#ma4dade8e89" x="114.767195" y="193.005403" style="fill: #0000ff; stroke: #0000ff"/>
     <use xlink:href="#ma4dade8e89" x="116.398625" y="199.273105" style="fill: #0000ff; stroke: #0000ff"/>
     <use xlink:href="#ma4dade8e89" x="118.030055" y="190.498316" style="fill: #0000ff; stroke: #0000ff"/>
     <use xlink:href="#ma4dade8e89" x="119.661485" y="191.751859" style="fill: #0000ff; stroke: #0000ff"/>
     <use xlink:href="#ma4dade8e89" x="121.292915" y="193.005403" style="fill: #0000ff; stroke: #0000ff"/>
     <use xlink:href="#ma4dade8e89" x="122.924345" y="194.258939" style="fill: #0000ff; stroke: #0000ff"/>
     <use xlink:href="#ma4dade8e89" x="124.555774" y="194.258939" style="fill: #0000ff; stroke: #0000ff"/>
     <use xlink:href="#ma4dade8e89" x="126.187204" y="189.24478" style="fill: #0000ff; stroke: #0000ff"/>
     <use xlink:href="#ma4dade8e89" x="127.818634" y="193.005403" style="fill: #0000ff; stroke: #0000ff"/>
     <use xlink:href="#ma4dade8e89" x="129.450064" y="185.484149" style="fill: #0000ff; stroke: #0000ff"/>
     <use xlink:href="#ma4dade8e89" x="131.081494" y="185.484149" style="fill: #0000ff; stroke: #0000ff"/>
     <use xlink:href="#ma4dade8e89" x="132.712924" y="190.498316" style="fill: #0000ff; stroke: #0000ff"/>
     <use xlink:href="#ma4dade8e89" x="134.344354" y="187.991236" style="fill: #0000ff; stroke: #0000ff"/>
     <use xlink:href="#ma4dade8e89" x="135.975784" y="189.24478" style="fill: #0000ff; stroke: #0000ff"/>
     <use xlink:href="#ma4dade8e89" x="137.607213" y="189.24478" style="fill: #0000ff; stroke: #0000ff"/>
     <use xlink:href="#ma4dade8e89" x="139.238643" y="191.751859" style="fill: #0000ff; stroke: #0000ff"/>
     <use xlink:href="#ma4dade8e89" x="140.870073" y="189.24478" style="fill: #0000ff; stroke: #0000ff"/>
     <use xlink:href="#ma4dade8e89" x="142.501503" y="189.24478" style="fill: #0000ff; stroke: #0000ff"/>
     <use xlink:href="#ma4dade8e89" x="144.132933" y="190.498316" style="fill: #0000ff; stroke: #0000ff"/>
     <use xlink:href="#ma4dade8e89" x="145.764363" y="189.24478" style="fill: #0000ff; stroke: #0000ff"/>
     <use xlink:href="#ma4dade8e89" x="147.395793" y="190.498316" style="fill: #0000ff; stroke: #0000ff"/>
     <use xlink:href="#ma4dade8e89" x="149.027223" y="194.258939" style="fill: #0000ff; stroke: #0000ff"/>
     <use xlink:href="#ma4dade8e89" x="150.658652" y="191.751859" style="fill: #0000ff; stroke: #0000ff"/>
     <use xlink:href="#ma4dade8e89" x="152.290082" y="196.766026" style="fill: #0000ff; stroke: #0000ff"/>
     <use xlink:href="#ma4dade8e89" x="153.921512" y="196.766026" style="fill: #0000ff; stroke: #0000ff"/>
     <use xlink:href="#ma4dade8e89" x="155.552942" y="199.273105" style="fill: #0000ff; stroke: #0000ff"/>
     <use xlink:href="#ma4dade8e89" x="157.184372" y="199.273105" style="fill: #0000ff; stroke: #0000ff"/>
     <use xlink:href="#ma4dade8e89" x="158.815802" y="200.526649" style="fill: #0000ff; stroke: #0000ff"/>
     <use xlink:href="#ma4dade8e89" x="160.447232" y="195.512482" style="fill: #0000ff; stroke: #0000ff"/>
     <use xlink:href="#ma4dade8e89" x="162.078662" y="194.258939" style="fill: #0000ff; stroke: #0000ff"/>
     <use xlink:href="#ma4dade8e89" x="163.710092" y="196.766026" style="fill: #0000ff; stroke: #0000ff"/>
     <use xlink:href="#ma4dade8e89" x="165.341521" y="196.766026" style="fill: #0000ff; stroke: #0000ff"/>
     <use xlink:href="#ma4dade8e89" x="166.972951" y="196.766026" style="fill: #0000ff; stroke: #0000ff"/>
     <use xlink:href="#ma4dade8e89" x="168.604381" y="194.258939" style="fill: #0000ff; stroke: #0000ff"/>
     <use xlink:href="#ma4dade8e89" x="170.235811" y="199.273105" style="fill: #0000ff; stroke: #0000ff"/>
     <use xlink:href="#ma4dade8e89" x="171.867241" y="200.526649" style="fill: #0000ff; stroke: #0000ff"/>
     <use xlink:href="#ma4dade8e89" x="173.498671" y="199.273105" style="fill: #0000ff; stroke: #0000ff"/>
     <use xlink:href="#ma4dade8e89" x="175.130101" y="198.019562" style="fill: #0000ff; stroke: #0000ff"/>
     <use xlink:href="#ma4dade8e89" x="176.761531" y="200.526649" style="fill: #0000ff; stroke: #0000ff"/>
     <use xlink:href="#ma4dade8e89" x="178.39296" y="198.019562" style="fill: #0000ff; stroke: #0000ff"/>
     <use xlink:href="#ma4dade8e89" x="180.02439" y="199.273105" style="fill: #0000ff; stroke: #0000ff"/>
     <use xlink:href="#ma4dade8e89" x="181.65582" y="200.526649" style="fill: #0000ff; stroke: #0000ff"/>
     <use xlink:href="#ma4dade8e89" x="183.28725" y="200.526649" style="fill: #0000ff; stroke: #0000ff"/>
     <use xlink:href="#ma4dade8e89" x="184.91868" y="194.258939" style="fill: #0000ff; stroke: #0000ff"/>
     <use xlink:href="#ma4dade8e89" x="186.55011" y="193.005403" style="fill: #0000ff; stroke: #0000ff"/>
     <use xlink:href="#ma4dade8e89" x="188.18154" y="199.273105" style="fill: #0000ff; stroke: #0000ff"/>
     <use xlink:href="#ma4dade8e89" x="189.81297" y="196.766026" style="fill: #0000ff; stroke: #0000ff"/>
     <use xlink:href="#ma4dade8e89" x="191.444399" y="194.258939" style="fill: #0000ff; stroke: #0000ff"/>
     <use xlink:href="#ma4dade8e89" x="193.075829" y="195.512482" style="fill: #0000ff; stroke: #0000ff"/>
     <use xlink:href="#ma4dade8e89" x="194.707259" y="194.258939" style="fill: #0000ff; stroke: #0000ff"/>
     <use xlink:href="#ma4dade8e89" x="196.338689" y="189.24478" style="fill: #0000ff; stroke: #0000ff"/>
     <use xlink:href="#ma4dade8e89" x="197.970119" y="193.005403" style="fill: #0000ff; stroke: #0000ff"/>
     <use xlink:href="#ma4dade8e89" x="199.601549" y="194.258939" style="fill: #0000ff; stroke: #0000ff"/>
     <use xlink:href="#ma4dade8e89" x="201.232979" y="199.273105" style="fill: #0000ff; stroke: #0000ff"/>
     <use xlink:href="#ma4dade8e89" x="202.864409" y="193.005403" style="fill: #0000ff; stroke: #0000ff"/>
     <use xlink:href="#ma4dade8e89" x="204.495838" y="190.498316" style="fill: #0000ff; stroke: #0000ff"/>
     <use xlink:href="#ma4dade8e89" x="206.127268" y="195.512482" style="fill: #0000ff; stroke: #0000ff"/>
     <use xlink:href="#ma4dade8e89" x="207.758698" y="191.751859" style="fill: #0000ff; stroke: #0000ff"/>
     <use xlink:href="#ma4dade8e89" x="209.390128" y="199.273105" style="fill: #0000ff; stroke: #0000ff"/>
     <use xlink:href="#ma4dade8e89" x="211.021558" y="195.512482" style="fill: #0000ff; stroke: #0000ff"/>
     <use xlink:href="#ma4dade8e89" x="212.652988" y="198.019562" style="fill: #0000ff; stroke: #0000ff"/>
     <use xlink:href="#ma4dade8e89" x="214.284418" y="191.751859" style="fill: #0000ff; stroke: #0000ff"/>
     <use xlink:href="#ma4dade8e89" x="215.915848" y="198.019562" style="fill: #0000ff; stroke: #0000ff"/>
     <use xlink:href="#ma4dade8e89" x="217.547277" y="194.258939" style="fill: #0000ff; stroke: #0000ff"/>
     <use xlink:href="#ma4dade8e89" x="219.178707" y="193.005403" style="fill: #0000ff; stroke: #0000ff"/>
     <use xlink:href="#ma4dade8e89" x="220.810137" y="195.512482" style="fill: #0000ff; stroke: #0000ff"/>
     <use xlink:href="#ma4dade8e89" x="222.441567" y="199.273105" style="fill: #0000ff; stroke: #0000ff"/>
     <use xlink:href="#ma4dade8e89" x="224.072997" y="195.512482" style="fill: #0000ff; stroke: #0000ff"/>
     <use xlink:href="#ma4dade8e89" x="225.704427" y="194.258939" style="fill: #0000ff; stroke: #0000ff"/>
     <use xlink:href="#ma4dade8e89" x="227.335857" y="195.512482" style="fill: #0000ff; stroke: #0000ff"/>
     <use xlink:href="#ma4dade8e89" x="228.967287" y="193.005403" style="fill: #0000ff; stroke: #0000ff"/>
     <use xlink:href="#ma4dade8e89" x="230.598716" y="195.512482" style="fill: #0000ff; stroke: #0000ff"/>
     <use xlink:href="#ma4dade8e89" x="232.230146" y="198.019562" style="fill: #0000ff; stroke: #0000ff"/>
     <use xlink:href="#ma4dade8e89" x="233.861576" y="193.005403" style="fill: #0000ff; stroke: #0000ff"/>
     <use xlink:href="#ma4dade8e89" x="235.493006" y="198.019562" style="fill: #0000ff; stroke: #0000ff"/>
     <use xlink:href="#ma4dade8e89" x="237.124436" y="196.766026" style="fill: #0000ff; stroke: #0000ff"/>
     <use xlink:href="#ma4dade8e89" x="238.755866" y="200.526649" style="fill: #0000ff; stroke: #0000ff"/>
     <use xlink:href="#ma4dade8e89" x="240.387296" y="195.512482" style="fill: #0000ff; stroke: #0000ff"/>
     <use xlink:href="#ma4dade8e89" x="242.018726" y="199.273105" style="fill: #0000ff; stroke: #0000ff"/>
     <use xlink:href="#ma4dade8e89" x="243.650155" y="198.019562" style="fill: #0000ff; stroke: #0000ff"/>
     <use xlink:href="#ma4dade8e89" x="245.281585" y="195.512482" style="fill: #0000ff; stroke: #0000ff"/>
     <use xlink:href="#ma4dade8e89" x="246.913015" y="203.033728" style="fill: #0000ff; stroke: #0000ff"/>
     <use xlink:href="#ma4dade8e89" x="248.544445" y="193.005403" style="fill: #0000ff; stroke: #0000ff"/>
     <use xlink:href="#ma4dade8e89" x="250.175875" y="191.751859" style="fill: #0000ff; stroke: #0000ff"/>
     <use xlink:href="#ma4dade8e89" x="251.807305" y="199.273105" style="fill: #0000ff; stroke: #0000ff"/>
     <use xlink:href="#ma4dade8e89" x="253.438735" y="196.766026" style="fill: #0000ff; stroke: #0000ff"/>
     <use xlink:href="#ma4dade8e89" x="255.070165" y="193.005403" style="fill: #0000ff; stroke: #0000ff"/>
     <use xlink:href="#ma4dade8e89" x="256.701594" y="199.273105" style="fill: #0000ff; stroke: #0000ff"/>
     <use xlink:href="#ma4dade8e89" x="258.333024" y="194.258939" style="fill: #0000ff; stroke: #0000ff"/>
     <use xlink:href="#ma4dade8e89" x="259.964454" y="199.273105" style="fill: #0000ff; stroke: #0000ff"/>
     <use xlink:href="#ma4dade8e89" x="261.595884" y="195.512482" style="fill: #0000ff; stroke: #0000ff"/>
     <use xlink:href="#ma4dade8e89" x="263.227314" y="203.033728" style="fill: #0000ff; stroke: #0000ff"/>
     <use xlink:href="#ma4dade8e89" x="264.858744" y="201.780192" style="fill: #0000ff; stroke: #0000ff"/>
     <use xlink:href="#ma4dade8e89" x="266.490174" y="191.751859" style="fill: #0000ff; stroke: #0000ff"/>
     <use xlink:href="#ma4dade8e89" x="268.121604" y="196.766026" style="fill: #0000ff; stroke: #0000ff"/>
     <use xlink:href="#ma4dade8e89" x="269.753033" y="201.780192" style="fill: #0000ff; stroke: #0000ff"/>
     <use xlink:href="#ma4dade8e89" x="271.384463" y="189.24478" style="fill: #0000ff; stroke: #0000ff"/>
     <use xlink:href="#ma4dade8e89" x="273.015893" y="200.526649" style="fill: #0000ff; stroke: #0000ff"/>
     <use xlink:href="#ma4dade8e89" x="274.647323" y="196.766026" style="fill: #0000ff; stroke: #0000ff"/>
     <use xlink:href="#ma4dade8e89" x="276.278753" y="198.019562" style="fill: #0000ff; stroke: #0000ff"/>
     <use xlink:href="#ma4dade8e89" x="277.910183" y="200.526649" style="fill: #0000ff; stroke: #0000ff"/>
     <use xlink:href="#ma4dade8e89" x="279.541613" y="196.766026" style="fill: #0000ff; stroke: #0000ff"/>
     <use xlink:href="#ma4dade8e89" x="281.173043" y="201.780192" style="fill: #0000ff; stroke: #0000ff"/>
     <use xlink:href="#ma4dade8e89" x="282.804473" y="200.526649" style="fill: #0000ff; stroke: #0000ff"/>
     <use xlink:href="#ma4dade8e89" x="284.435902" y="200.526649" style="fill: #0000ff; stroke: #0000ff"/>
     <use xlink:href="#ma4dade8e89" x="286.067332" y="198.019562" style="fill: #0000ff; stroke: #0000ff"/>
     <use xlink:href="#ma4dade8e89" x="287.698762" y="198.019562" style="fill: #0000ff; stroke: #0000ff"/>
     <use xlink:href="#ma4dade8e89" x="289.330192" y="196.766026" style="fill: #0000ff; stroke: #0000ff"/>
     <use xlink:href="#ma4dade8e89" x="290.961622" y="195.512482" style="fill: #0000ff; stroke: #0000ff"/>
     <use xlink:href="#ma4dade8e89" x="292.593052" y="199.273105" style="fill: #0000ff; stroke: #0000ff"/>
     <use xlink:href="#ma4dade8e89" x="294.224482" y="196.766026" style="fill: #0000ff; stroke: #0000ff"/>
     <use xlink:href="#ma4dade8e89" x="295.855912" y="201.780192" style="fill: #0000ff; stroke: #0000ff"/>
     <use xlink:href="#ma4dade8e89" x="297.487341" y="199.273105" style="fill: #0000ff; stroke: #0000ff"/>
     <use xlink:href="#ma4dade8e89" x="299.118771" y="201.780192" style="fill: #0000ff; stroke: #0000ff"/>
     <use xlink:href="#ma4dade8e89" x="300.750201" y="194.258939" style="fill: #0000ff; stroke: #0000ff"/>
     <use xlink:href="#ma4dade8e89" x="302.381631" y="201.780192" style="fill: #0000ff; stroke: #0000ff"/>
     <use xlink:href="#ma4dade8e89" x="304.013061" y="199.273105" style="fill: #0000ff; stroke: #0000ff"/>
     <use xlink:href="#ma4dade8e89" x="305.644491" y="195.512482" style="fill: #0000ff; stroke: #0000ff"/>
     <use xlink:href="#ma4dade8e89" x="307.275921" y="198.019562" style="fill: #0000ff; stroke: #0000ff"/>
     <use xlink:href="#ma4dade8e89" x="308.907351" y="196.766026" style="fill: #0000ff; stroke: #0000ff"/>
     <use xlink:href="#ma4dade8e89" x="310.53878" y="196.766026" style="fill: #0000ff; stroke: #0000ff"/>
     <use xlink:href="#ma4dade8e89" x="312.17021" y="195.512482" style="fill: #0000ff; stroke: #0000ff"/>
     <use xlink:href="#ma4dade8e89" x="313.80164" y="194.258939" style="fill: #0000ff; stroke: #0000ff"/>
     <use xlink:href="#ma4dade8e89" x="315.43307" y="195.512482" style="fill: #0000ff; stroke: #0000ff"/>
     <use xlink:href="#ma4dade8e89" x="317.0645" y="198.019562" style="fill: #0000ff; stroke: #0000ff"/>
     <use xlink:href="#ma4dade8e89" x="318.69593" y="194.258939" style="fill: #0000ff; stroke: #0000ff"/>
     <use xlink:href="#ma4dade8e89" x="320.32736" y="195.512482" style="fill: #0000ff; stroke: #0000ff"/>
     <use xlink:href="#ma4dade8e89" x="321.95879" y="195.512482" style="fill: #0000ff; stroke: #0000ff"/>
     <use xlink:href="#ma4dade8e89" x="323.590219" y="194.258939" style="fill: #0000ff; stroke: #0000ff"/>
     <use xlink:href="#ma4dade8e89" x="325.221649" y="195.512482" style="fill: #0000ff; stroke: #0000ff"/>
     <use xlink:href="#ma4dade8e89" x="326.853079" y="201.780192" style="fill: #0000ff; stroke: #0000ff"/>
     <use xlink:href="#ma4dade8e89" x="328.484509" y="194.258939" style="fill: #0000ff; stroke: #0000ff"/>
     <use xlink:href="#ma4dade8e89" x="330.115939" y="196.766026" style="fill: #0000ff; stroke: #0000ff"/>
     <use xlink:href="#ma4dade8e89" x="331.747369" y="196.766026" style="fill: #0000ff; stroke: #0000ff"/>
     <use xlink:href="#ma4dade8e89" x="333.378799" y="195.512482" style="fill: #0000ff; stroke: #0000ff"/>
     <use xlink:href="#ma4dade8e89" x="335.010229" y="196.766026" style="fill: #0000ff; stroke: #0000ff"/>
     <use xlink:href="#ma4dade8e89" x="336.641658" y="196.766026" style="fill: #0000ff; stroke: #0000ff"/>
     <use xlink:href="#ma4dade8e89" x="338.273088" y="195.512482" style="fill: #0000ff; stroke: #0000ff"/>
     <use xlink:href="#ma4dade8e89" x="339.904518" y="200.526649" style="fill: #0000ff; stroke: #0000ff"/>
     <use xlink:href="#ma4dade8e89" x="341.535948" y="194.258939" style="fill: #0000ff; stroke: #0000ff"/>
     <use xlink:href="#ma4dade8e89" x="343.167378" y="196.766026" style="fill: #0000ff; stroke: #0000ff"/>
     <use xlink:href="#ma4dade8e89" x="344.798808" y="195.512482" style="fill: #0000ff; stroke: #0000ff"/>
     <use xlink:href="#ma4dade8e89" x="346.430238" y="198.019562" style="fill: #0000ff; stroke: #0000ff"/>
     <use xlink:href="#ma4dade8e89" x="348.061668" y="196.766026" style="fill: #0000ff; stroke: #0000ff"/>
     <use xlink:href="#ma4dade8e89" x="349.693097" y="198.019562" style="fill: #0000ff; stroke: #0000ff"/>
     <use xlink:href="#ma4dade8e89" x="351.324527" y="195.512482" style="fill: #0000ff; stroke: #0000ff"/>
     <use xlink:href="#ma4dade8e89" x="352.955957" y="200.526649" style="fill: #0000ff; stroke: #0000ff"/>
     <use xlink:href="#ma4dade8e89" x="354.587387" y="196.766026" style="fill: #0000ff; stroke: #0000ff"/>
     <use xlink:href="#ma4dade8e89" x="356.218817" y="195.512482" style="fill: #0000ff; stroke: #0000ff"/>
     <use xlink:href="#ma4dade8e89" x="357.850247" y="195.512482" style="fill: #0000ff; stroke: #0000ff"/>
     <use xlink:href="#ma4dade8e89" x="359.481677" y="198.019562" style="fill: #0000ff; stroke: #0000ff"/>
     <use xlink:href="#ma4dade8e89" x="361.113107" y="195.512482" style="fill: #0000ff; stroke: #0000ff"/>
     <use xlink:href="#ma4dade8e89" x="362.744536" y="201.780192" style="fill: #0000ff; stroke: #0000ff"/>
     <use xlink:href="#ma4dade8e89" x="364.375966" y="195.512482" style="fill: #0000ff; stroke: #0000ff"/>
     <use xlink:href="#ma4dade8e89" x="366.007396" y="204.287272" style="fill: #0000ff; stroke: #0000ff"/>
     <use xlink:href="#ma4dade8e89" x="367.638826" y="198.019562" style="fill: #0000ff; stroke: #0000ff"/>
     <use xlink:href="#ma4dade8e89" x="369.270256" y="196.766026" style="fill: #0000ff; stroke: #0000ff"/>
     <use xlink:href="#ma4dade8e89" x="370.901686" y="200.526649" style="fill: #0000ff; stroke: #0000ff"/>
     <use xlink:href="#ma4dade8e89" x="372.533116" y="203.033728" style="fill: #0000ff; stroke: #0000ff"/>
     <use xlink:href="#ma4dade8e89" x="374.164546" y="201.780192" style="fill: #0000ff; stroke: #0000ff"/>
     <use xlink:href="#ma4dade8e89" x="375.795975" y="195.512482" style="fill: #0000ff; stroke: #0000ff"/>
     <use xlink:href="#ma4dade8e89" x="377.427405" y="201.780192" style="fill: #0000ff; stroke: #0000ff"/>
     <use xlink:href="#ma4dade8e89" x="379.058835" y="199.273105" style="fill: #0000ff; stroke: #0000ff"/>
    </g>
   </g>
   <g id="patch_3">
    <path d="M 38.171563 280.313875 
L 38.171563 14.201875 
" style="fill: none; stroke: #000000; stroke-width: 0.8; stroke-linejoin: miter; stroke-linecap: square"/>
   </g>
   <g id="patch_4">
    <path d="M 395.291563 280.313875 
L 395.291563 14.201875 
" style="fill: none; stroke: #000000; stroke-width: 0.8; stroke-linejoin: miter; stroke-linecap: square"/>
   </g>
   <g id="patch_5">
    <path d="M 38.171563 280.313875 
L 395.291563 280.313875 
" style="fill: none; stroke: #000000; stroke-width: 0.8; stroke-linejoin: miter; stroke-linecap: square"/>
   </g>
   <g id="patch_6">
    <path d="M 38.171563 14.201875 
L 395.291563 14.201875 
" style="fill: none; stroke: #000000; stroke-width: 0.8; stroke-linejoin: miter; stroke-linecap: square"/>
   </g>
   <g id="text_17">
    <!-- ResNet32: Accuracy -->
    <g transform="translate(154.927891 8.201875) scale(0.11 -0.11)">
     <defs>
      <path id="DejaVuSerif-Bold-52" d="M 3397 2278 
Q 3675 2238 3865 2094 
Q 4056 1950 4197 1678 
L 4878 378 
L 5356 378 
L 5356 0 
L 3822 0 
L 3078 1409 
Q 2863 1847 2711 1967 
Q 2559 2088 2291 2088 
L 2100 2088 
L 2100 378 
L 2700 378 
L 2700 0 
L 300 0 
L 300 378 
L 897 378 
L 897 4288 
L 300 4288 
L 300 4666 
L 2963 4666 
Q 3775 4666 4217 4339 
Q 4659 4013 4659 3413 
Q 4659 2925 4345 2642 
Q 4031 2359 3397 2278 
z
M 2100 2463 
L 2509 2463 
Q 2947 2463 3183 2700 
Q 3419 2938 3419 3378 
Q 3419 3819 3183 4053 
Q 2947 4288 2509 4288 
L 2100 4288 
L 2100 2463 
z
" transform="scale(0.015625)"/>
      <path id="DejaVuSerif-Bold-65" d="M 2566 1875 
Q 2566 2531 2444 2795 
Q 2322 3059 2028 3059 
Q 1744 3059 1620 2800 
Q 1497 2541 1497 1931 
L 1497 1875 
L 2566 1875 
z
M 3781 1503 
L 1497 1503 
L 1497 1478 
Q 1497 834 1690 548 
Q 1884 263 2316 263 
Q 2675 263 2897 453 
Q 3119 644 3181 1006 
L 3700 1006 
Q 3566 441 3166 175 
Q 2766 -91 2047 -91 
Q 1184 -91 723 364 
Q 263 819 263 1663 
Q 263 2488 734 2950 
Q 1206 3413 2047 3413 
Q 2872 3413 3312 2927 
Q 3753 2441 3781 1503 
z
" transform="scale(0.015625)"/>
      <path id="DejaVuSerif-Bold-73" d="M 300 97 
L 300 1025 
L 653 1025 
Q 697 653 931 458 
Q 1166 263 1569 263 
Q 1906 263 2086 380 
Q 2266 497 2266 716 
Q 2266 916 2152 1025 
Q 2038 1134 1709 1216 
L 1253 1331 
Q 738 1459 506 1698 
Q 275 1938 275 2344 
Q 275 2884 650 3148 
Q 1025 3413 1806 3413 
Q 2100 3413 2433 3364 
Q 2766 3316 3169 3213 
L 3169 2375 
L 2816 2375 
Q 2788 2716 2573 2887 
Q 2359 3059 1959 3059 
Q 1622 3059 1448 2951 
Q 1275 2844 1275 2638 
Q 1275 2469 1375 2372 
Q 1475 2275 1734 2209 
L 2188 2094 
Q 2841 1928 3091 1684 
Q 3341 1441 3341 1006 
Q 3341 444 2939 176 
Q 2538 -91 1691 -91 
Q 1381 -91 1034 -44 
Q 688 3 300 97 
z
" transform="scale(0.015625)"/>
      <path id="DejaVuSerif-Bold-4e" d="M 281 0 
L 281 378 
L 878 378 
L 878 4288 
L 281 4288 
L 281 4666 
L 1741 4666 
L 4556 1363 
L 4556 4288 
L 3963 4288 
L 3963 4666 
L 5594 4666 
L 5594 4288 
L 4997 4288 
L 4997 0 
L 4178 0 
L 1319 3372 
L 1319 378 
L 1913 378 
L 1913 0 
L 281 0 
z
" transform="scale(0.015625)"/>
      <path id="DejaVuSerif-Bold-74" d="M 634 2944 
L 153 2944 
L 153 3322 
L 634 3322 
L 634 4353 
L 1741 4353 
L 1741 3322 
L 2663 3322 
L 2663 2944 
L 1741 2944 
L 1741 909 
Q 1741 475 1809 369 
Q 1878 263 2059 263 
Q 2259 263 2356 397 
Q 2453 531 2459 813 
L 2925 813 
Q 2897 313 2651 111 
Q 2406 -91 1806 -91 
Q 1122 -91 878 123 
Q 634 338 634 909 
L 634 2944 
z
" transform="scale(0.015625)"/>
      <path id="DejaVuSerif-Bold-33" d="M 550 4531 
Q 963 4641 1350 4695 
Q 1738 4750 2106 4750 
Q 2950 4750 3401 4448 
Q 3853 4147 3853 3584 
Q 3853 3163 3593 2900 
Q 3334 2638 2834 2547 
Q 3444 2450 3744 2131 
Q 4044 1813 4044 1259 
Q 4044 606 3526 257 
Q 3009 -91 2028 -91 
Q 1659 -91 1267 -28 
Q 875 34 447 159 
L 447 1184 
L 825 1184 
Q 859 741 1103 508 
Q 1347 275 1778 275 
Q 2253 275 2512 539 
Q 2772 803 2772 1288 
Q 2772 1794 2501 2069 
Q 2231 2344 1734 2344 
L 1528 2344 
L 1528 2719 
L 1691 2719 
Q 2150 2719 2381 2931 
Q 2613 3144 2613 3566 
Q 2613 3963 2395 4173 
Q 2178 4384 1772 4384 
Q 1403 4384 1187 4182 
Q 972 3981 928 3597 
L 550 3597 
L 550 4531 
z
" transform="scale(0.015625)"/>
      <path id="DejaVuSerif-Bold-32" d="M 844 3513 
L 469 3513 
L 469 4519 
Q 850 4634 1223 4692 
Q 1597 4750 1978 4750 
Q 2869 4750 3367 4386 
Q 3866 4022 3866 3372 
Q 3866 2909 3591 2542 
Q 3316 2175 2541 1672 
L 1241 819 
L 3450 819 
L 3450 1369 
L 3878 1369 
L 3878 0 
L 428 0 
L 428 763 
L 1119 1241 
Q 2003 1850 2297 2278 
Q 2591 2706 2591 3278 
Q 2591 3819 2367 4101 
Q 2144 4384 1716 4384 
Q 1347 4384 1125 4161 
Q 903 3938 844 3513 
z
" transform="scale(0.015625)"/>
      <path id="DejaVuSerif-Bold-3a" d="M 588 2541 
Q 588 2788 761 2963 
Q 934 3138 1178 3138 
Q 1422 3138 1597 2961 
Q 1772 2784 1772 2541 
Q 1772 2297 1598 2125 
Q 1425 1953 1178 1953 
Q 931 1953 759 2125 
Q 588 2297 588 2541 
z
M 588 506 
Q 588 750 761 925 
Q 934 1100 1178 1100 
Q 1422 1100 1597 925 
Q 1772 750 1772 506 
Q 1772 259 1597 84 
Q 1422 -91 1178 -91 
Q 934 -91 761 84 
Q 588 259 588 506 
z
" transform="scale(0.015625)"/>
      <path id="DejaVuSerif-Bold-20" transform="scale(0.015625)"/>
      <path id="DejaVuSerif-Bold-41" d="M -50 0 
L -50 378 
L 331 378 
L 2088 4666 
L 2834 4666 
L 4594 378 
L 5038 378 
L 5038 0 
L 2853 0 
L 2853 378 
L 3309 378 
L 2925 1331 
L 1172 1331 
L 781 378 
L 1338 378 
L 1338 0 
L -50 0 
z
M 1325 1709 
L 2772 1709 
L 2053 3494 
L 1325 1709 
z
" transform="scale(0.015625)"/>
      <path id="DejaVuSerif-Bold-63" d="M 3609 1038 
Q 3491 469 3123 189 
Q 2756 -91 2125 -91 
Q 1238 -91 750 368 
Q 263 828 263 1663 
Q 263 2488 744 2950 
Q 1225 3413 2081 3413 
Q 2428 3413 2781 3347 
Q 3134 3281 3500 3150 
L 3500 2228 
L 3150 2228 
Q 3100 2650 2903 2854 
Q 2706 3059 2350 3059 
Q 1888 3059 1692 2746 
Q 1497 2434 1497 1663 
Q 1497 909 1687 586 
Q 1878 263 2309 263 
Q 2644 263 2845 463 
Q 3047 663 3091 1038 
L 3609 1038 
z
" transform="scale(0.015625)"/>
      <path id="DejaVuSerif-Bold-75" d="M 3963 3322 
L 3963 378 
L 4434 378 
L 4434 0 
L 2853 0 
L 2853 469 
Q 2656 172 2400 40 
Q 2144 -91 1753 -91 
Q 1194 -91 908 239 
Q 622 569 622 1209 
L 622 2944 
L 147 2944 
L 147 3322 
L 1728 3322 
L 1728 1381 
Q 1728 763 1831 595 
Q 1934 428 2209 428 
Q 2544 428 2698 675 
Q 2853 922 2853 1459 
L 2853 2944 
L 2450 2944 
L 2450 3322 
L 3963 3322 
z
" transform="scale(0.015625)"/>
      <path id="DejaVuSerif-Bold-72" d="M 3438 3359 
L 3438 2369 
L 3084 2369 
Q 3066 2634 2941 2764 
Q 2816 2894 2578 2894 
Q 2216 2894 2006 2575 
Q 1797 2256 1797 1691 
L 1797 378 
L 2400 378 
L 2400 0 
L 219 0 
L 219 378 
L 691 378 
L 691 2944 
L 184 2944 
L 184 3322 
L 1797 3322 
L 1797 2731 
Q 1959 3078 2226 3245 
Q 2494 3413 2881 3413 
Q 2978 3413 3117 3398 
Q 3256 3384 3438 3359 
z
" transform="scale(0.015625)"/>
      <path id="DejaVuSerif-Bold-61" d="M 3525 2041 
L 3525 378 
L 4000 378 
L 4000 0 
L 2419 0 
L 2419 422 
Q 2200 159 1931 34 
Q 1663 -91 1319 -91 
Q 809 -91 536 182 
Q 263 456 263 966 
Q 263 1525 655 1803 
Q 1047 2081 1838 2081 
L 2419 2081 
L 2419 2278 
Q 2419 2681 2228 2873 
Q 2038 3066 1638 3066 
Q 1306 3066 1126 2930 
Q 947 2794 872 2484 
L 519 2484 
L 519 3200 
Q 816 3306 1134 3359 
Q 1453 3413 1806 3413 
Q 2697 3413 3111 3081 
Q 3525 2750 3525 2041 
z
M 2419 1044 
L 2419 1709 
L 2003 1709 
Q 1694 1709 1528 1540 
Q 1363 1372 1363 1056 
Q 1363 741 1483 584 
Q 1603 428 1850 428 
Q 2106 428 2262 597 
Q 2419 766 2419 1044 
z
" transform="scale(0.015625)"/>
      <path id="DejaVuSerif-Bold-79" d="M 1997 -750 
Q 1847 -1116 1634 -1269 
Q 1422 -1422 1063 -1422 
Q 909 -1422 721 -1387 
Q 534 -1353 313 -1288 
L 313 -594 
L 666 -597 
Q 675 -838 779 -953 
Q 884 -1069 1094 -1069 
Q 1297 -1069 1422 -958 
Q 1547 -847 1672 -538 
L 1722 -422 
L 275 2944 
L -84 2944 
L -84 3322 
L 1831 3322 
L 1831 2944 
L 1434 2944 
L 2278 978 
L 3066 2944 
L 2625 2944 
L 2625 3322 
L 3872 3322 
L 3872 2944 
L 3469 2944 
L 1997 -750 
z
" transform="scale(0.015625)"/>
     </defs>
     <use xlink:href="#DejaVuSerif-Bold-52"/>
     <use xlink:href="#DejaVuSerif-Bold-65" x="83.105469"/>
     <use xlink:href="#DejaVuSerif-Bold-73" x="146.728516"/>
     <use xlink:href="#DejaVuSerif-Bold-4e" x="203.027344"/>
     <use xlink:href="#DejaVuSerif-Bold-65" x="294.433594"/>
     <use xlink:href="#DejaVuSerif-Bold-74" x="358.056641"/>
     <use xlink:href="#DejaVuSerif-Bold-33" x="404.248047"/>
     <use xlink:href="#DejaVuSerif-Bold-32" x="473.828125"/>
     <use xlink:href="#DejaVuSerif-Bold-3a" x="543.408203"/>
     <use xlink:href="#DejaVuSerif-Bold-20" x="580.322266"/>
     <use xlink:href="#DejaVuSerif-Bold-41" x="615.136719"/>
     <use xlink:href="#DejaVuSerif-Bold-63" x="692.724609"/>
     <use xlink:href="#DejaVuSerif-Bold-63" x="753.613281"/>
     <use xlink:href="#DejaVuSerif-Bold-75" x="814.501953"/>
     <use xlink:href="#DejaVuSerif-Bold-72" x="887.207031"/>
     <use xlink:href="#DejaVuSerif-Bold-61" x="939.892578"/>
     <use xlink:href="#DejaVuSerif-Bold-63" x="1004.6875"/>
     <use xlink:href="#DejaVuSerif-Bold-79" x="1065.576172"/>
    </g>
   </g>
   <g id="legend_1">
    <g id="patch_7">
     <path d="M 45.871563 55.29375 
L 107.923594 55.29375 
Q 110.123594 55.29375 110.123594 53.09375 
L 110.123594 21.901875 
Q 110.123594 19.701875 107.923594 19.701875 
L 45.871563 19.701875 
Q 43.671563 19.701875 43.671563 21.901875 
L 43.671563 53.09375 
Q 43.671563 55.29375 45.871563 55.29375 
z
" style="fill: #ffffff; opacity: 0.8; stroke: #cccccc; stroke-linejoin: miter"/>
    </g>
    <g id="line2d_17">
     <path d="M 48.071563 28.610156 
L 59.071563 28.610156 
L 70.071562 28.610156 
" style="fill: none; stroke: #ff0000; stroke-linecap: square"/>
     <g>
      <use xlink:href="#m045b0e6375" x="59.071563" y="28.610156" style="fill: #ff0000; stroke: #ff0000"/>
     </g>
    </g>
    <g id="text_18">
     <!-- train -->
     <g transform="translate(78.871563 32.460156) scale(0.11 -0.11)">
      <defs>
       <path id="DejaVuSerif-74" d="M 691 2988 
L 184 2988 
L 184 3322 
L 691 3322 
L 691 4353 
L 1269 4353 
L 1269 3322 
L 2350 3322 
L 2350 2988 
L 1269 2988 
L 1269 878 
Q 1269 456 1350 337 
Q 1431 219 1650 219 
Q 1875 219 1978 351 
Q 2081 484 2088 781 
L 2522 781 
Q 2497 328 2275 118 
Q 2053 -91 1600 -91 
Q 1103 -91 897 129 
Q 691 350 691 878 
L 691 2988 
z
" transform="scale(0.015625)"/>
       <path id="DejaVuSerif-69" d="M 622 4353 
Q 622 4497 726 4603 
Q 831 4709 978 4709 
Q 1122 4709 1226 4603 
Q 1331 4497 1331 4353 
Q 1331 4206 1228 4103 
Q 1125 4000 978 4000 
Q 831 4000 726 4103 
Q 622 4206 622 4353 
z
M 1356 331 
L 1900 331 
L 1900 0 
L 231 0 
L 231 331 
L 781 331 
L 781 2988 
L 231 2988 
L 231 3322 
L 1356 3322 
L 1356 331 
z
" transform="scale(0.015625)"/>
       <path id="DejaVuSerif-6e" d="M 263 0 
L 263 331 
L 781 331 
L 781 2988 
L 231 2988 
L 231 3322 
L 1356 3322 
L 1356 2731 
Q 1516 3069 1770 3241 
Q 2025 3413 2363 3413 
Q 2913 3413 3172 3097 
Q 3431 2781 3431 2113 
L 3431 331 
L 3944 331 
L 3944 0 
L 2356 0 
L 2356 331 
L 2853 331 
L 2853 1931 
Q 2853 2541 2703 2767 
Q 2553 2994 2175 2994 
Q 1775 2994 1565 2701 
Q 1356 2409 1356 1850 
L 1356 331 
L 1856 331 
L 1856 0 
L 263 0 
z
" transform="scale(0.015625)"/>
      </defs>
      <use xlink:href="#DejaVuSerif-74"/>
      <use xlink:href="#DejaVuSerif-72" x="40.185547"/>
      <use xlink:href="#DejaVuSerif-61" x="87.988281"/>
      <use xlink:href="#DejaVuSerif-69" x="147.607422"/>
      <use xlink:href="#DejaVuSerif-6e" x="179.589844"/>
     </g>
    </g>
    <g id="line2d_18">
     <path d="M 48.071563 44.756094 
L 59.071563 44.756094 
L 70.071562 44.756094 
" style="fill: none; stroke: #0000ff; stroke-linecap: square"/>
     <g>
      <use xlink:href="#ma4dade8e89" x="59.071563" y="44.756094" style="fill: #0000ff; stroke: #0000ff"/>
     </g>
    </g>
    <g id="text_19">
     <!-- valid -->
     <g transform="translate(78.871563 48.606094) scale(0.11 -0.11)">
      <defs>
       <path id="DejaVuSerif-76" d="M 1581 0 
L 359 2988 
L -19 2988 
L -19 3322 
L 1509 3322 
L 1509 2988 
L 978 2988 
L 1913 703 
L 2847 2988 
L 2350 2988 
L 2350 3322 
L 3597 3322 
L 3597 2988 
L 3225 2988 
L 2003 0 
L 1581 0 
z
" transform="scale(0.015625)"/>
       <path id="DejaVuSerif-6c" d="M 1313 331 
L 1856 331 
L 1856 0 
L 184 0 
L 184 331 
L 738 331 
L 738 4531 
L 184 4531 
L 184 4863 
L 1313 4863 
L 1313 331 
z
" transform="scale(0.015625)"/>
       <path id="DejaVuSerif-64" d="M 3359 331 
L 3909 331 
L 3909 0 
L 2784 0 
L 2784 519 
Q 2616 206 2355 57 
Q 2094 -91 1709 -91 
Q 1097 -91 708 395 
Q 319 881 319 1663 
Q 319 2444 706 2928 
Q 1094 3413 1709 3413 
Q 2094 3413 2355 3264 
Q 2616 3116 2784 2803 
L 2784 4531 
L 2241 4531 
L 2241 4863 
L 3359 4863 
L 3359 331 
z
M 2784 1497 
L 2784 1825 
Q 2784 2422 2554 2737 
Q 2325 3053 1888 3053 
Q 1444 3053 1217 2703 
Q 991 2353 991 1663 
Q 991 975 1217 622 
Q 1444 269 1888 269 
Q 2325 269 2554 583 
Q 2784 897 2784 1497 
z
" transform="scale(0.015625)"/>
      </defs>
      <use xlink:href="#DejaVuSerif-76"/>
      <use xlink:href="#DejaVuSerif-61" x="56.494141"/>
      <use xlink:href="#DejaVuSerif-6c" x="116.113281"/>
      <use xlink:href="#DejaVuSerif-69" x="148.095703"/>
      <use xlink:href="#DejaVuSerif-64" x="180.078125"/>
     </g>
    </g>
   </g>
  </g>
 </g>
 <defs>
  <clipPath id="p13a0ea2604">
   <rect x="38.171563" y="14.201875" width="357.12" height="266.112"/>
  </clipPath>
 </defs>
</svg>
