<?xml version="1.0" encoding="utf-8" standalone="no"?>
<!DOCTYPE svg PUBLIC "-//W3C//DTD SVG 1.1//EN"
  "http://www.w3.org/Graphics/SVG/1.1/DTD/svg11.dtd">
<svg xmlns:xlink="http://www.w3.org/1999/xlink" width="402.290313pt" height="311.637937pt" viewBox="0 0 402.290313 311.637937" xmlns="http://www.w3.org/2000/svg" version="1.1">
 <metadata>
  <rdf:RDF xmlns:dc="http://purl.org/dc/elements/1.1/" xmlns:cc="http://creativecommons.org/ns#" xmlns:rdf="http://www.w3.org/1999/02/22-rdf-syntax-ns#">
   <cc:Work>
    <dc:type rdf:resource="http://purl.org/dc/dcmitype/StillImage"/>
    <dc:date>2023-02-26T20:36:13.861808</dc:date>
    <dc:format>image/svg+xml</dc:format>
    <dc:creator>
     <cc:Agent>
      <dc:title>Matplotlib v3.7.0, https://matplotlib.org/</dc:title>
     </cc:Agent>
    </dc:creator>
   </cc:Work>
  </rdf:RDF>
 </metadata>
 <defs>
  <style type="text/css">*{stroke-linejoin: round; stroke-linecap: butt}</style>
 </defs>
 <g id="figure_1">
  <g id="patch_1">
   <path d="M 0 311.637937 
L 402.290313 311.637937 
L 402.290313 0 
L 0 0 
L 0 311.637937 
z
" style="fill: none"/>
  </g>
  <g id="axes_1">
   <g id="patch_2">
    <path d="M 45.170313 280.313875 
L 402.290313 280.313875 
L 402.290313 14.201875 
L 45.170313 14.201875 
L 45.170313 280.313875 
z
" style="fill: none"/>
   </g>
   <g id="matplotlib.axis_1">
    <g id="xtick_1">
     <g id="line2d_1">
      <defs>
       <path id="m201d124071" d="M 0 0 
L 0 3.5 
" style="stroke: #000000; stroke-width: 0.8"/>
      </defs>
      <g>
       <use xlink:href="#m201d124071" x="61.40304" y="280.313875" style="stroke: #000000; stroke-width: 0.8"/>
      </g>
     </g>
     <g id="text_1">
      <!-- 0 -->
      <g transform="translate(57.903665 295.672156) scale(0.11 -0.11)">
       <defs>
        <path id="DejaVuSerif-30" d="M 2034 219 
Q 2513 219 2750 744 
Q 2988 1269 2988 2328 
Q 2988 3391 2750 3916 
Q 2513 4441 2034 4441 
Q 1556 4441 1318 3916 
Q 1081 3391 1081 2328 
Q 1081 1269 1318 744 
Q 1556 219 2034 219 
z
M 2034 -91 
Q 1275 -91 848 546 
Q 422 1184 422 2328 
Q 422 3475 848 4112 
Q 1275 4750 2034 4750 
Q 2797 4750 3222 4112 
Q 3647 3475 3647 2328 
Q 3647 1184 3222 546 
Q 2797 -91 2034 -91 
z
" transform="scale(0.015625)"/>
       </defs>
       <use xlink:href="#DejaVuSerif-30"/>
      </g>
     </g>
    </g>
    <g id="xtick_2">
     <g id="line2d_2">
      <g>
       <use xlink:href="#m201d124071" x="101.984858" y="280.313875" style="stroke: #000000; stroke-width: 0.8"/>
      </g>
     </g>
     <g id="text_2">
      <!-- 25 -->
      <g transform="translate(94.986108 295.672156) scale(0.11 -0.11)">
       <defs>
        <path id="DejaVuSerif-32" d="M 819 3553 
L 469 3553 
L 469 4384 
Q 803 4563 1142 4656 
Q 1481 4750 1806 4750 
Q 2534 4750 2956 4397 
Q 3378 4044 3378 3438 
Q 3378 2753 2422 1800 
Q 2347 1728 2309 1691 
L 1131 513 
L 3078 513 
L 3078 1088 
L 3444 1088 
L 3444 0 
L 434 0 
L 434 341 
L 1850 1753 
Q 2319 2222 2519 2614 
Q 2719 3006 2719 3438 
Q 2719 3909 2473 4175 
Q 2228 4441 1797 4441 
Q 1350 4441 1106 4219 
Q 863 3997 819 3553 
z
" transform="scale(0.015625)"/>
        <path id="DejaVuSerif-35" d="M 3219 4666 
L 3219 4153 
L 1081 4153 
L 1081 2816 
Q 1244 2928 1461 2984 
Q 1678 3041 1947 3041 
Q 2703 3041 3140 2622 
Q 3578 2203 3578 1478 
Q 3578 738 3136 323 
Q 2694 -91 1894 -91 
Q 1572 -91 1234 -12 
Q 897 66 544 225 
L 544 1131 
L 897 1131 
Q 925 688 1179 453 
Q 1434 219 1894 219 
Q 2388 219 2653 544 
Q 2919 869 2919 1478 
Q 2919 2084 2655 2407 
Q 2391 2731 1894 2731 
Q 1613 2731 1398 2631 
Q 1184 2531 1019 2322 
L 750 2322 
L 750 4666 
L 3219 4666 
z
" transform="scale(0.015625)"/>
       </defs>
       <use xlink:href="#DejaVuSerif-32"/>
       <use xlink:href="#DejaVuSerif-35" x="63.623047"/>
      </g>
     </g>
    </g>
    <g id="xtick_3">
     <g id="line2d_3">
      <g>
       <use xlink:href="#m201d124071" x="142.566676" y="280.313875" style="stroke: #000000; stroke-width: 0.8"/>
      </g>
     </g>
     <g id="text_3">
      <!-- 50 -->
      <g transform="translate(135.567926 295.672156) scale(0.11 -0.11)">
       <use xlink:href="#DejaVuSerif-35"/>
       <use xlink:href="#DejaVuSerif-30" x="63.623047"/>
      </g>
     </g>
    </g>
    <g id="xtick_4">
     <g id="line2d_4">
      <g>
       <use xlink:href="#m201d124071" x="183.148494" y="280.313875" style="stroke: #000000; stroke-width: 0.8"/>
      </g>
     </g>
     <g id="text_4">
      <!-- 75 -->
      <g transform="translate(176.149744 295.672156) scale(0.11 -0.11)">
       <defs>
        <path id="DejaVuSerif-37" d="M 3609 4347 
L 1784 0 
L 1319 0 
L 3059 4153 
L 903 4153 
L 903 3578 
L 538 3578 
L 538 4666 
L 3609 4666 
L 3609 4347 
z
" transform="scale(0.015625)"/>
       </defs>
       <use xlink:href="#DejaVuSerif-37"/>
       <use xlink:href="#DejaVuSerif-35" x="63.623047"/>
      </g>
     </g>
    </g>
    <g id="xtick_5">
     <g id="line2d_5">
      <g>
       <use xlink:href="#m201d124071" x="223.730312" y="280.313875" style="stroke: #000000; stroke-width: 0.8"/>
      </g>
     </g>
     <g id="text_5">
      <!-- 100 -->
      <g transform="translate(213.232188 295.672156) scale(0.11 -0.11)">
       <defs>
        <path id="DejaVuSerif-31" d="M 909 0 
L 909 331 
L 1722 331 
L 1722 4213 
L 781 3603 
L 781 4013 
L 1919 4750 
L 2350 4750 
L 2350 331 
L 3163 331 
L 3163 0 
L 909 0 
z
" transform="scale(0.015625)"/>
       </defs>
       <use xlink:href="#DejaVuSerif-31"/>
       <use xlink:href="#DejaVuSerif-30" x="63.623047"/>
       <use xlink:href="#DejaVuSerif-30" x="127.246094"/>
      </g>
     </g>
    </g>
    <g id="xtick_6">
     <g id="line2d_6">
      <g>
       <use xlink:href="#m201d124071" x="264.312131" y="280.313875" style="stroke: #000000; stroke-width: 0.8"/>
      </g>
     </g>
     <g id="text_6">
      <!-- 125 -->
      <g transform="translate(253.814006 295.672156) scale(0.11 -0.11)">
       <use xlink:href="#DejaVuSerif-31"/>
       <use xlink:href="#DejaVuSerif-32" x="63.623047"/>
       <use xlink:href="#DejaVuSerif-35" x="127.246094"/>
      </g>
     </g>
    </g>
    <g id="xtick_7">
     <g id="line2d_7">
      <g>
       <use xlink:href="#m201d124071" x="304.893949" y="280.313875" style="stroke: #000000; stroke-width: 0.8"/>
      </g>
     </g>
     <g id="text_7">
      <!-- 150 -->
      <g transform="translate(294.395824 295.672156) scale(0.11 -0.11)">
       <use xlink:href="#DejaVuSerif-31"/>
       <use xlink:href="#DejaVuSerif-35" x="63.623047"/>
       <use xlink:href="#DejaVuSerif-30" x="127.246094"/>
      </g>
     </g>
    </g>
    <g id="xtick_8">
     <g id="line2d_8">
      <g>
       <use xlink:href="#m201d124071" x="345.475767" y="280.313875" style="stroke: #000000; stroke-width: 0.8"/>
      </g>
     </g>
     <g id="text_8">
      <!-- 175 -->
      <g transform="translate(334.977642 295.672156) scale(0.11 -0.11)">
       <use xlink:href="#DejaVuSerif-31"/>
       <use xlink:href="#DejaVuSerif-37" x="63.623047"/>
       <use xlink:href="#DejaVuSerif-35" x="127.246094"/>
      </g>
     </g>
    </g>
    <g id="xtick_9">
     <g id="line2d_9">
      <g>
       <use xlink:href="#m201d124071" x="386.057585" y="280.313875" style="stroke: #000000; stroke-width: 0.8"/>
      </g>
     </g>
     <g id="text_9">
      <!-- 200 -->
      <g transform="translate(375.55946 295.672156) scale(0.11 -0.11)">
       <use xlink:href="#DejaVuSerif-32"/>
       <use xlink:href="#DejaVuSerif-30" x="63.623047"/>
       <use xlink:href="#DejaVuSerif-30" x="127.246094"/>
      </g>
     </g>
    </g>
    <g id="text_10">
     <!-- epoch -->
     <g transform="translate(208.539687 309.55825) scale(0.1 -0.1)">
      <defs>
       <path id="DejaVuSerif-65" d="M 3469 1600 
L 991 1600 
L 991 1575 
Q 991 903 1244 561 
Q 1497 219 1991 219 
Q 2369 219 2611 417 
Q 2853 616 2950 1006 
L 3413 1006 
Q 3275 459 2904 184 
Q 2534 -91 1931 -91 
Q 1203 -91 761 389 
Q 319 869 319 1663 
Q 319 2450 753 2931 
Q 1188 3413 1894 3413 
Q 2647 3413 3050 2948 
Q 3453 2484 3469 1600 
z
M 2791 1931 
Q 2772 2513 2545 2808 
Q 2319 3103 1894 3103 
Q 1497 3103 1269 2806 
Q 1041 2509 991 1931 
L 2791 1931 
z
" transform="scale(0.015625)"/>
       <path id="DejaVuSerif-70" d="M 1313 1825 
L 1313 1497 
Q 1313 897 1542 583 
Q 1772 269 2209 269 
Q 2650 269 2876 622 
Q 3103 975 3103 1663 
Q 3103 2353 2876 2703 
Q 2650 3053 2209 3053 
Q 1772 3053 1542 2737 
Q 1313 2422 1313 1825 
z
M 738 2988 
L 184 2988 
L 184 3322 
L 1313 3322 
L 1313 2803 
Q 1481 3116 1742 3264 
Q 2003 3413 2388 3413 
Q 3000 3413 3387 2928 
Q 3775 2444 3775 1663 
Q 3775 881 3387 395 
Q 3000 -91 2388 -91 
Q 2003 -91 1742 57 
Q 1481 206 1313 519 
L 1313 -997 
L 1856 -997 
L 1856 -1331 
L 184 -1331 
L 184 -997 
L 738 -997 
L 738 2988 
z
" transform="scale(0.015625)"/>
       <path id="DejaVuSerif-6f" d="M 1925 219 
Q 2388 219 2623 584 
Q 2859 950 2859 1663 
Q 2859 2375 2623 2739 
Q 2388 3103 1925 3103 
Q 1463 3103 1227 2739 
Q 991 2375 991 1663 
Q 991 950 1228 584 
Q 1466 219 1925 219 
z
M 1925 -91 
Q 1200 -91 759 389 
Q 319 869 319 1663 
Q 319 2456 758 2934 
Q 1197 3413 1925 3413 
Q 2653 3413 3092 2934 
Q 3531 2456 3531 1663 
Q 3531 869 3092 389 
Q 2653 -91 1925 -91 
z
" transform="scale(0.015625)"/>
       <path id="DejaVuSerif-63" d="M 3291 997 
Q 3169 466 2822 187 
Q 2475 -91 1925 -91 
Q 1200 -91 759 389 
Q 319 869 319 1663 
Q 319 2459 759 2936 
Q 1200 3413 1925 3413 
Q 2241 3413 2553 3339 
Q 2866 3266 3181 3116 
L 3181 2266 
L 2847 2266 
Q 2781 2703 2561 2903 
Q 2341 3103 1931 3103 
Q 1466 3103 1228 2742 
Q 991 2381 991 1663 
Q 991 944 1227 581 
Q 1463 219 1931 219 
Q 2303 219 2525 412 
Q 2747 606 2828 997 
L 3291 997 
z
" transform="scale(0.015625)"/>
       <path id="DejaVuSerif-68" d="M 263 0 
L 263 331 
L 781 331 
L 781 4531 
L 231 4531 
L 231 4863 
L 1356 4863 
L 1356 2731 
Q 1516 3069 1770 3241 
Q 2025 3413 2363 3413 
Q 2913 3413 3172 3097 
Q 3431 2781 3431 2113 
L 3431 331 
L 3944 331 
L 3944 0 
L 2356 0 
L 2356 331 
L 2853 331 
L 2853 1931 
Q 2853 2541 2704 2764 
Q 2556 2988 2175 2988 
Q 1775 2988 1565 2697 
Q 1356 2406 1356 1850 
L 1356 331 
L 1856 331 
L 1856 0 
L 263 0 
z
" transform="scale(0.015625)"/>
      </defs>
      <use xlink:href="#DejaVuSerif-65"/>
      <use xlink:href="#DejaVuSerif-70" x="59.179688"/>
      <use xlink:href="#DejaVuSerif-6f" x="123.193359"/>
      <use xlink:href="#DejaVuSerif-63" x="183.398438"/>
      <use xlink:href="#DejaVuSerif-68" x="239.404297"/>
     </g>
    </g>
   </g>
   <g id="matplotlib.axis_2">
    <g id="ytick_1">
     <g id="line2d_10">
      <defs>
       <path id="mf04e2d2555" d="M 0 0 
L -3.5 0 
" style="stroke: #000000; stroke-width: 0.8"/>
      </defs>
      <g>
       <use xlink:href="#mf04e2d2555" x="45.170313" y="279.169371" style="stroke: #000000; stroke-width: 0.8"/>
      </g>
     </g>
     <g id="text_11">
      <!-- 0.15 -->
      <g transform="translate(13.678125 283.348511) scale(0.11 -0.11)">
       <defs>
        <path id="DejaVuSerif-2e" d="M 603 325 
Q 603 500 722 622 
Q 841 744 1019 744 
Q 1191 744 1312 622 
Q 1434 500 1434 325 
Q 1434 153 1312 31 
Q 1191 -91 1019 -91 
Q 841 -91 722 29 
Q 603 150 603 325 
z
" transform="scale(0.015625)"/>
       </defs>
       <use xlink:href="#DejaVuSerif-30"/>
       <use xlink:href="#DejaVuSerif-2e" x="63.623047"/>
       <use xlink:href="#DejaVuSerif-31" x="95.410156"/>
       <use xlink:href="#DejaVuSerif-35" x="159.033203"/>
      </g>
     </g>
    </g>
    <g id="ytick_2">
     <g id="line2d_11">
      <g>
       <use xlink:href="#mf04e2d2555" x="45.170313" y="248.313214" style="stroke: #000000; stroke-width: 0.8"/>
      </g>
     </g>
     <g id="text_12">
      <!-- 0.16 -->
      <g transform="translate(13.678125 252.492354) scale(0.11 -0.11)">
       <defs>
        <path id="DejaVuSerif-36" d="M 2094 219 
Q 2534 219 2771 542 
Q 3009 866 3009 1472 
Q 3009 2078 2771 2401 
Q 2534 2725 2094 2725 
Q 1647 2725 1412 2412 
Q 1178 2100 1178 1509 
Q 1178 888 1415 553 
Q 1653 219 2094 219 
z
M 1075 2569 
Q 1288 2803 1556 2918 
Q 1825 3034 2163 3034 
Q 2859 3034 3264 2615 
Q 3669 2197 3669 1472 
Q 3669 763 3233 336 
Q 2797 -91 2069 -91 
Q 1278 -91 853 498 
Q 428 1088 428 2181 
Q 428 3406 931 4078 
Q 1434 4750 2350 4750 
Q 2597 4750 2869 4703 
Q 3141 4656 3425 4563 
L 3425 3794 
L 3072 3794 
Q 3034 4109 2831 4275 
Q 2628 4441 2284 4441 
Q 1678 4441 1381 3981 
Q 1084 3522 1075 2569 
z
" transform="scale(0.015625)"/>
       </defs>
       <use xlink:href="#DejaVuSerif-30"/>
       <use xlink:href="#DejaVuSerif-2e" x="63.623047"/>
       <use xlink:href="#DejaVuSerif-31" x="95.410156"/>
       <use xlink:href="#DejaVuSerif-36" x="159.033203"/>
      </g>
     </g>
    </g>
    <g id="ytick_3">
     <g id="line2d_12">
      <g>
       <use xlink:href="#mf04e2d2555" x="45.170313" y="217.457056" style="stroke: #000000; stroke-width: 0.8"/>
      </g>
     </g>
     <g id="text_13">
      <!-- 0.17 -->
      <g transform="translate(13.678125 221.636197) scale(0.11 -0.11)">
       <use xlink:href="#DejaVuSerif-30"/>
       <use xlink:href="#DejaVuSerif-2e" x="63.623047"/>
       <use xlink:href="#DejaVuSerif-31" x="95.410156"/>
       <use xlink:href="#DejaVuSerif-37" x="159.033203"/>
      </g>
     </g>
    </g>
    <g id="ytick_4">
     <g id="line2d_13">
      <g>
       <use xlink:href="#mf04e2d2555" x="45.170313" y="186.600899" style="stroke: #000000; stroke-width: 0.8"/>
      </g>
     </g>
     <g id="text_14">
      <!-- 0.18 -->
      <g transform="translate(13.678125 190.78004) scale(0.11 -0.11)">
       <defs>
        <path id="DejaVuSerif-38" d="M 2981 1275 
Q 2981 1775 2732 2051 
Q 2484 2328 2034 2328 
Q 1584 2328 1336 2051 
Q 1088 1775 1088 1275 
Q 1088 772 1336 495 
Q 1584 219 2034 219 
Q 2484 219 2732 495 
Q 2981 772 2981 1275 
z
M 2853 3541 
Q 2853 3966 2637 4203 
Q 2422 4441 2034 4441 
Q 1650 4441 1433 4203 
Q 1216 3966 1216 3541 
Q 1216 3113 1433 2875 
Q 1650 2638 2034 2638 
Q 2422 2638 2637 2875 
Q 2853 3113 2853 3541 
z
M 2516 2484 
Q 3047 2413 3344 2092 
Q 3641 1772 3641 1275 
Q 3641 619 3225 264 
Q 2809 -91 2034 -91 
Q 1263 -91 845 264 
Q 428 619 428 1275 
Q 428 1772 725 2092 
Q 1022 2413 1556 2484 
Q 1084 2569 832 2842 
Q 581 3116 581 3541 
Q 581 4103 968 4426 
Q 1356 4750 2034 4750 
Q 2713 4750 3100 4426 
Q 3488 4103 3488 3541 
Q 3488 3116 3236 2842 
Q 2984 2569 2516 2484 
z
" transform="scale(0.015625)"/>
       </defs>
       <use xlink:href="#DejaVuSerif-30"/>
       <use xlink:href="#DejaVuSerif-2e" x="63.623047"/>
       <use xlink:href="#DejaVuSerif-31" x="95.410156"/>
       <use xlink:href="#DejaVuSerif-38" x="159.033203"/>
      </g>
     </g>
    </g>
    <g id="ytick_5">
     <g id="line2d_14">
      <g>
       <use xlink:href="#mf04e2d2555" x="45.170313" y="155.744742" style="stroke: #000000; stroke-width: 0.8"/>
      </g>
     </g>
     <g id="text_15">
      <!-- 0.19 -->
      <g transform="translate(13.678125 159.923883) scale(0.11 -0.11)">
       <defs>
        <path id="DejaVuSerif-39" d="M 2994 2091 
Q 2784 1856 2512 1740 
Q 2241 1625 1900 1625 
Q 1206 1625 804 2044 
Q 403 2463 403 3188 
Q 403 3897 839 4323 
Q 1275 4750 2003 4750 
Q 2794 4750 3217 4161 
Q 3641 3572 3641 2478 
Q 3641 1253 3137 581 
Q 2634 -91 1722 -91 
Q 1475 -91 1203 -44 
Q 931 3 647 97 
L 647 872 
L 997 872 
Q 1038 556 1241 387 
Q 1444 219 1784 219 
Q 2391 219 2687 676 
Q 2984 1134 2994 2091 
z
M 1978 4441 
Q 1534 4441 1298 4117 
Q 1063 3794 1063 3188 
Q 1063 2581 1298 2256 
Q 1534 1931 1978 1931 
Q 2422 1931 2658 2245 
Q 2894 2559 2894 3150 
Q 2894 3772 2656 4106 
Q 2419 4441 1978 4441 
z
" transform="scale(0.015625)"/>
       </defs>
       <use xlink:href="#DejaVuSerif-30"/>
       <use xlink:href="#DejaVuSerif-2e" x="63.623047"/>
       <use xlink:href="#DejaVuSerif-31" x="95.410156"/>
       <use xlink:href="#DejaVuSerif-39" x="159.033203"/>
      </g>
     </g>
    </g>
    <g id="ytick_6">
     <g id="line2d_15">
      <g>
       <use xlink:href="#mf04e2d2555" x="45.170313" y="124.888585" style="stroke: #000000; stroke-width: 0.8"/>
      </g>
     </g>
     <g id="text_16">
      <!-- 0.20 -->
      <g transform="translate(13.678125 129.067725) scale(0.11 -0.11)">
       <use xlink:href="#DejaVuSerif-30"/>
       <use xlink:href="#DejaVuSerif-2e" x="63.623047"/>
       <use xlink:href="#DejaVuSerif-32" x="95.410156"/>
       <use xlink:href="#DejaVuSerif-30" x="159.033203"/>
      </g>
     </g>
    </g>
    <g id="ytick_7">
     <g id="line2d_16">
      <g>
       <use xlink:href="#mf04e2d2555" x="45.170313" y="94.032427" style="stroke: #000000; stroke-width: 0.8"/>
      </g>
     </g>
     <g id="text_17">
      <!-- 0.21 -->
      <g transform="translate(13.678125 98.211568) scale(0.11 -0.11)">
       <use xlink:href="#DejaVuSerif-30"/>
       <use xlink:href="#DejaVuSerif-2e" x="63.623047"/>
       <use xlink:href="#DejaVuSerif-32" x="95.410156"/>
       <use xlink:href="#DejaVuSerif-31" x="159.033203"/>
      </g>
     </g>
    </g>
    <g id="ytick_8">
     <g id="line2d_17">
      <g>
       <use xlink:href="#mf04e2d2555" x="45.170313" y="63.17627" style="stroke: #000000; stroke-width: 0.8"/>
      </g>
     </g>
     <g id="text_18">
      <!-- 0.22 -->
      <g transform="translate(13.678125 67.355411) scale(0.11 -0.11)">
       <use xlink:href="#DejaVuSerif-30"/>
       <use xlink:href="#DejaVuSerif-2e" x="63.623047"/>
       <use xlink:href="#DejaVuSerif-32" x="95.410156"/>
       <use xlink:href="#DejaVuSerif-32" x="159.033203"/>
      </g>
     </g>
    </g>
    <g id="ytick_9">
     <g id="line2d_18">
      <g>
       <use xlink:href="#mf04e2d2555" x="45.170313" y="32.320113" style="stroke: #000000; stroke-width: 0.8"/>
      </g>
     </g>
     <g id="text_19">
      <!-- 0.23 -->
      <g transform="translate(13.678125 36.499254) scale(0.11 -0.11)">
       <defs>
        <path id="DejaVuSerif-33" d="M 622 4469 
Q 988 4606 1323 4678 
Q 1659 4750 1953 4750 
Q 2638 4750 3022 4454 
Q 3406 4159 3406 3634 
Q 3406 3213 3140 2930 
Q 2875 2647 2388 2547 
Q 2963 2466 3280 2130 
Q 3597 1794 3597 1259 
Q 3597 606 3158 257 
Q 2719 -91 1894 -91 
Q 1528 -91 1179 -12 
Q 831 66 488 225 
L 488 1131 
L 838 1131 
Q 869 681 1141 450 
Q 1413 219 1906 219 
Q 2384 219 2661 495 
Q 2938 772 2938 1253 
Q 2938 1803 2653 2086 
Q 2369 2369 1819 2369 
L 1522 2369 
L 1522 2688 
L 1678 2688 
Q 2225 2688 2498 2914 
Q 2772 3141 2772 3597 
Q 2772 4006 2547 4223 
Q 2322 4441 1900 4441 
Q 1478 4441 1245 4241 
Q 1013 4041 972 3647 
L 622 3647 
L 622 4469 
z
" transform="scale(0.015625)"/>
       </defs>
       <use xlink:href="#DejaVuSerif-30"/>
       <use xlink:href="#DejaVuSerif-2e" x="63.623047"/>
       <use xlink:href="#DejaVuSerif-32" x="95.410156"/>
       <use xlink:href="#DejaVuSerif-33" x="159.033203"/>
      </g>
     </g>
    </g>
    <g id="text_20">
     <!-- accuracy -->
     <g transform="translate(7.45625 170.055531) rotate(-90) scale(0.1 -0.1)">
      <defs>
       <path id="DejaVuSerif-61" d="M 2547 1044 
L 2547 1747 
L 1806 1747 
Q 1378 1747 1168 1562 
Q 959 1378 959 997 
Q 959 650 1171 447 
Q 1384 244 1747 244 
Q 2106 244 2326 466 
Q 2547 688 2547 1044 
z
M 3122 2075 
L 3122 331 
L 3634 331 
L 3634 0 
L 2547 0 
L 2547 359 
Q 2356 128 2106 18 
Q 1856 -91 1522 -91 
Q 969 -91 644 203 
Q 319 497 319 997 
Q 319 1513 691 1797 
Q 1063 2081 1741 2081 
L 2547 2081 
L 2547 2309 
Q 2547 2688 2317 2895 
Q 2088 3103 1672 3103 
Q 1328 3103 1125 2947 
Q 922 2791 872 2484 
L 575 2484 
L 575 3156 
Q 875 3284 1158 3348 
Q 1441 3413 1709 3413 
Q 2400 3413 2761 3070 
Q 3122 2728 3122 2075 
z
" transform="scale(0.015625)"/>
       <path id="DejaVuSerif-75" d="M 2266 3322 
L 3341 3322 
L 3341 331 
L 3884 331 
L 3884 0 
L 2766 0 
L 2766 588 
Q 2606 256 2353 82 
Q 2100 -91 1766 -91 
Q 1213 -91 952 223 
Q 691 538 691 1209 
L 691 2988 
L 172 2988 
L 172 3322 
L 1269 3322 
L 1269 1388 
Q 1269 781 1417 556 
Q 1566 331 1947 331 
Q 2347 331 2556 625 
Q 2766 919 2766 1478 
L 2766 2988 
L 2266 2988 
L 2266 3322 
z
" transform="scale(0.015625)"/>
       <path id="DejaVuSerif-72" d="M 3059 3328 
L 3059 2497 
L 2728 2497 
Q 2713 2744 2591 2866 
Q 2469 2988 2234 2988 
Q 1809 2988 1582 2694 
Q 1356 2400 1356 1850 
L 1356 331 
L 2022 331 
L 2022 0 
L 263 0 
L 263 331 
L 781 331 
L 781 2994 
L 231 2994 
L 231 3322 
L 1356 3322 
L 1356 2731 
Q 1525 3078 1790 3245 
Q 2056 3413 2438 3413 
Q 2578 3413 2733 3391 
Q 2888 3369 3059 3328 
z
" transform="scale(0.015625)"/>
       <path id="DejaVuSerif-79" d="M 1381 -609 
L 1600 -56 
L 359 2988 
L -19 2988 
L -19 3322 
L 1509 3322 
L 1509 2988 
L 978 2988 
L 1913 703 
L 2847 2988 
L 2350 2988 
L 2350 3322 
L 3597 3322 
L 3597 2988 
L 3225 2988 
L 1703 -750 
Q 1547 -1138 1356 -1280 
Q 1166 -1422 819 -1422 
Q 672 -1422 517 -1397 
Q 363 -1372 206 -1325 
L 206 -691 
L 500 -691 
Q 519 -903 608 -995 
Q 697 -1088 884 -1088 
Q 1056 -1088 1161 -992 
Q 1266 -897 1381 -609 
z
" transform="scale(0.015625)"/>
      </defs>
      <use xlink:href="#DejaVuSerif-61"/>
      <use xlink:href="#DejaVuSerif-63" x="59.619141"/>
      <use xlink:href="#DejaVuSerif-63" x="115.625"/>
      <use xlink:href="#DejaVuSerif-75" x="171.630859"/>
      <use xlink:href="#DejaVuSerif-72" x="236.035156"/>
      <use xlink:href="#DejaVuSerif-61" x="283.837891"/>
      <use xlink:href="#DejaVuSerif-63" x="343.457031"/>
      <use xlink:href="#DejaVuSerif-79" x="399.462891"/>
     </g>
    </g>
   </g>
   <g id="line2d_19">
    <path d="M 61.40304 229.13501 
L 63.03447 187.641507 
L 64.6659 268.217875 
L 66.297329 233.203641 
L 67.928759 230.340328 
L 69.560189 60.499472 
L 71.191619 31.451837 
L 72.823049 30.879175 
L 74.454479 32.215396 
L 76.085909 33.933384 
L 77.717339 30.115625 
L 79.348768 28.779412 
L 80.980198 28.779412 
L 82.611628 31.26095 
L 84.243058 32.788059 
L 85.874488 30.879175 
L 87.505918 30.115625 
L 89.137348 31.26095 
L 90.768778 31.451837 
L 92.400207 28.20675 
L 94.031637 30.4974 
L 95.663067 30.115625 
L 97.294497 30.688287 
L 98.925927 30.306512 
L 100.557357 29.542962 
L 102.188787 29.161187 
L 103.820217 34.315159 
L 107.083076 28.9703 
L 108.714506 32.406284 
L 110.345936 30.4974 
L 111.977366 28.779412 
L 113.608796 32.597171 
L 115.240226 27.634087 
L 116.871656 29.542962 
L 118.503085 29.924737 
L 120.134515 29.542962 
L 121.765945 30.115625 
L 123.397375 29.73385 
L 125.028805 28.9703 
L 126.660235 32.024509 
L 128.291665 30.115625 
L 129.923095 28.779412 
L 131.554524 28.9703 
L 133.185954 30.879175 
L 134.817384 30.879175 
L 136.448814 31.451837 
L 138.080244 28.588525 
L 139.711674 33.933384 
L 141.343104 33.551609 
L 142.974534 30.115625 
L 144.605963 30.879175 
L 146.237393 29.542962 
L 147.868823 31.070062 
L 149.500253 32.024509 
L 151.131683 30.115625 
L 152.763113 32.215396 
L 154.394543 28.20675 
L 156.025973 30.688287 
L 157.657402 28.20675 
L 159.288832 29.352075 
L 160.920262 32.597171 
L 162.551692 29.924737 
L 164.183122 27.824975 
L 165.814552 30.306512 
L 167.445982 30.879175 
L 169.077412 28.588525 
L 170.708842 32.215396 
L 172.340271 27.252312 
L 173.971701 30.879175 
L 175.603131 31.451837 
L 177.234561 32.406284 
L 178.865991 30.115625 
L 180.497421 31.26095 
L 182.128851 30.306512 
L 183.760281 32.024509 
L 185.39171 33.360721 
L 187.02314 31.451837 
L 188.65457 32.788059 
L 190.286 32.406284 
L 191.91743 31.642725 
L 193.54886 30.4974 
L 196.81172 32.024509 
L 198.443149 29.73385 
L 200.074579 30.4974 
L 201.706009 31.070062 
L 203.337439 28.779412 
L 204.968869 29.542962 
L 206.600299 28.20675 
L 208.231729 31.451837 
L 209.863159 30.879175 
L 211.494588 30.4974 
L 213.126018 30.4974 
L 214.757448 32.215396 
L 216.388878 30.4974 
L 218.020308 29.924737 
L 219.651738 32.978946 
L 221.283168 30.688287 
L 222.914598 30.688287 
L 224.546027 29.73385 
L 226.177457 31.26095 
L 227.808887 31.642725 
L 229.440317 32.597171 
L 231.071747 30.879175 
L 232.703177 30.306512 
L 234.334607 31.833612 
L 235.966037 27.4432 
L 237.597466 30.4974 
L 239.228896 30.688287 
L 240.860326 29.542962 
L 242.491756 31.26095 
L 244.123186 32.215396 
L 245.754616 32.788059 
L 247.386046 30.688287 
L 249.017476 30.4974 
L 250.648905 30.115625 
L 252.280335 29.924737 
L 253.911765 31.833612 
L 255.543195 29.73385 
L 257.174625 31.451837 
L 258.806055 31.070062 
L 260.437485 31.26095 
L 262.068915 30.688287 
L 263.700344 31.833612 
L 266.963204 30.688287 
L 268.594634 27.634087 
L 270.226064 28.588525 
L 273.488924 30.879175 
L 276.751783 32.024509 
L 278.383213 28.588525 
L 280.014643 26.297875 
L 281.646073 31.833612 
L 283.277503 30.306512 
L 284.908933 32.215396 
L 286.540363 28.20675 
L 288.171793 33.169834 
L 293.066082 29.161187 
L 294.697512 31.833612 
L 296.328942 30.688287 
L 297.960372 30.115625 
L 299.591802 30.4974 
L 301.223232 32.406284 
L 302.854662 33.360721 
L 304.486091 30.879175 
L 306.117521 30.4974 
L 307.748951 28.20675 
L 309.380381 31.833612 
L 311.011811 28.015862 
L 312.643241 31.070062 
L 314.274671 32.024509 
L 317.53753 32.024509 
L 319.16896 30.4974 
L 320.80039 31.833612 
L 322.43182 31.451837 
L 324.06325 31.833612 
L 325.69468 30.115625 
L 327.32611 32.978946 
L 328.95754 32.024509 
L 330.588969 29.73385 
L 332.220399 31.26095 
L 333.851829 32.597171 
L 335.483259 28.20675 
L 337.114689 30.879175 
L 338.746119 30.306512 
L 340.377549 32.406284 
L 342.008979 30.4974 
L 343.640408 30.306512 
L 345.271838 31.26095 
L 346.903268 31.070062 
L 348.534698 30.306512 
L 350.166128 30.306512 
L 351.797558 29.542962 
L 355.060418 32.597171 
L 356.691847 30.115625 
L 358.323277 28.9703 
L 359.954707 29.924737 
L 361.586137 32.215396 
L 363.217567 29.73385 
L 364.848997 30.4974 
L 366.480427 30.879175 
L 368.111857 32.597171 
L 369.743286 30.306512 
L 371.374716 31.451837 
L 373.006146 30.115625 
L 374.637576 29.924737 
L 376.269006 30.4974 
L 377.900436 33.551609 
L 379.531866 31.833612 
L 381.163296 27.252312 
L 382.794725 31.451837 
L 384.426155 30.879175 
L 386.057585 32.597171 
L 386.057585 32.597171 
" clip-path="url(#pae96362780)" style="fill: none; stroke: #ff0000; stroke-linecap: square"/>
    <defs>
     <path id="mf3c51cb3b1" d="M 0 2.5 
C 0.663008 2.5 1.29895 2.236584 1.767767 1.767767 
C 2.236584 1.29895 2.5 0.663008 2.5 0 
C 2.5 -0.663008 2.236584 -1.29895 1.767767 -1.767767 
C 1.29895 -2.236584 0.663008 -2.5 0 -2.5 
C -0.663008 -2.5 -1.29895 -2.236584 -1.767767 -1.767767 
C -2.236584 -1.29895 -2.5 -0.663008 -2.5 0 
C -2.5 0.663008 -2.236584 1.29895 -1.767767 1.767767 
C -1.29895 2.236584 -0.663008 2.5 0 2.5 
z
" style="stroke: #ff0000"/>
    </defs>
    <g clip-path="url(#pae96362780)">
     <use xlink:href="#mf3c51cb3b1" x="61.40304" y="229.13501" style="fill: #ff0000; stroke: #ff0000"/>
     <use xlink:href="#mf3c51cb3b1" x="63.03447" y="187.641507" style="fill: #ff0000; stroke: #ff0000"/>
     <use xlink:href="#mf3c51cb3b1" x="64.6659" y="268.217875" style="fill: #ff0000; stroke: #ff0000"/>
     <use xlink:href="#mf3c51cb3b1" x="66.297329" y="233.203641" style="fill: #ff0000; stroke: #ff0000"/>
     <use xlink:href="#mf3c51cb3b1" x="67.928759" y="230.340328" style="fill: #ff0000; stroke: #ff0000"/>
     <use xlink:href="#mf3c51cb3b1" x="69.560189" y="60.499472" style="fill: #ff0000; stroke: #ff0000"/>
     <use xlink:href="#mf3c51cb3b1" x="71.191619" y="31.451837" style="fill: #ff0000; stroke: #ff0000"/>
     <use xlink:href="#mf3c51cb3b1" x="72.823049" y="30.879175" style="fill: #ff0000; stroke: #ff0000"/>
     <use xlink:href="#mf3c51cb3b1" x="74.454479" y="32.215396" style="fill: #ff0000; stroke: #ff0000"/>
     <use xlink:href="#mf3c51cb3b1" x="76.085909" y="33.933384" style="fill: #ff0000; stroke: #ff0000"/>
     <use xlink:href="#mf3c51cb3b1" x="77.717339" y="30.115625" style="fill: #ff0000; stroke: #ff0000"/>
     <use xlink:href="#mf3c51cb3b1" x="79.348768" y="28.779412" style="fill: #ff0000; stroke: #ff0000"/>
     <use xlink:href="#mf3c51cb3b1" x="80.980198" y="28.779412" style="fill: #ff0000; stroke: #ff0000"/>
     <use xlink:href="#mf3c51cb3b1" x="82.611628" y="31.26095" style="fill: #ff0000; stroke: #ff0000"/>
     <use xlink:href="#mf3c51cb3b1" x="84.243058" y="32.788059" style="fill: #ff0000; stroke: #ff0000"/>
     <use xlink:href="#mf3c51cb3b1" x="85.874488" y="30.879175" style="fill: #ff0000; stroke: #ff0000"/>
     <use xlink:href="#mf3c51cb3b1" x="87.505918" y="30.115625" style="fill: #ff0000; stroke: #ff0000"/>
     <use xlink:href="#mf3c51cb3b1" x="89.137348" y="31.26095" style="fill: #ff0000; stroke: #ff0000"/>
     <use xlink:href="#mf3c51cb3b1" x="90.768778" y="31.451837" style="fill: #ff0000; stroke: #ff0000"/>
     <use xlink:href="#mf3c51cb3b1" x="92.400207" y="28.20675" style="fill: #ff0000; stroke: #ff0000"/>
     <use xlink:href="#mf3c51cb3b1" x="94.031637" y="30.4974" style="fill: #ff0000; stroke: #ff0000"/>
     <use xlink:href="#mf3c51cb3b1" x="95.663067" y="30.115625" style="fill: #ff0000; stroke: #ff0000"/>
     <use xlink:href="#mf3c51cb3b1" x="97.294497" y="30.688287" style="fill: #ff0000; stroke: #ff0000"/>
     <use xlink:href="#mf3c51cb3b1" x="98.925927" y="30.306512" style="fill: #ff0000; stroke: #ff0000"/>
     <use xlink:href="#mf3c51cb3b1" x="100.557357" y="29.542962" style="fill: #ff0000; stroke: #ff0000"/>
     <use xlink:href="#mf3c51cb3b1" x="102.188787" y="29.161187" style="fill: #ff0000; stroke: #ff0000"/>
     <use xlink:href="#mf3c51cb3b1" x="103.820217" y="34.315159" style="fill: #ff0000; stroke: #ff0000"/>
     <use xlink:href="#mf3c51cb3b1" x="105.451646" y="31.642725" style="fill: #ff0000; stroke: #ff0000"/>
     <use xlink:href="#mf3c51cb3b1" x="107.083076" y="28.9703" style="fill: #ff0000; stroke: #ff0000"/>
     <use xlink:href="#mf3c51cb3b1" x="108.714506" y="32.406284" style="fill: #ff0000; stroke: #ff0000"/>
     <use xlink:href="#mf3c51cb3b1" x="110.345936" y="30.4974" style="fill: #ff0000; stroke: #ff0000"/>
     <use xlink:href="#mf3c51cb3b1" x="111.977366" y="28.779412" style="fill: #ff0000; stroke: #ff0000"/>
     <use xlink:href="#mf3c51cb3b1" x="113.608796" y="32.597171" style="fill: #ff0000; stroke: #ff0000"/>
     <use xlink:href="#mf3c51cb3b1" x="115.240226" y="27.634087" style="fill: #ff0000; stroke: #ff0000"/>
     <use xlink:href="#mf3c51cb3b1" x="116.871656" y="29.542962" style="fill: #ff0000; stroke: #ff0000"/>
     <use xlink:href="#mf3c51cb3b1" x="118.503085" y="29.924737" style="fill: #ff0000; stroke: #ff0000"/>
     <use xlink:href="#mf3c51cb3b1" x="120.134515" y="29.542962" style="fill: #ff0000; stroke: #ff0000"/>
     <use xlink:href="#mf3c51cb3b1" x="121.765945" y="30.115625" style="fill: #ff0000; stroke: #ff0000"/>
     <use xlink:href="#mf3c51cb3b1" x="123.397375" y="29.73385" style="fill: #ff0000; stroke: #ff0000"/>
     <use xlink:href="#mf3c51cb3b1" x="125.028805" y="28.9703" style="fill: #ff0000; stroke: #ff0000"/>
     <use xlink:href="#mf3c51cb3b1" x="126.660235" y="32.024509" style="fill: #ff0000; stroke: #ff0000"/>
     <use xlink:href="#mf3c51cb3b1" x="128.291665" y="30.115625" style="fill: #ff0000; stroke: #ff0000"/>
     <use xlink:href="#mf3c51cb3b1" x="129.923095" y="28.779412" style="fill: #ff0000; stroke: #ff0000"/>
     <use xlink:href="#mf3c51cb3b1" x="131.554524" y="28.9703" style="fill: #ff0000; stroke: #ff0000"/>
     <use xlink:href="#mf3c51cb3b1" x="133.185954" y="30.879175" style="fill: #ff0000; stroke: #ff0000"/>
     <use xlink:href="#mf3c51cb3b1" x="134.817384" y="30.879175" style="fill: #ff0000; stroke: #ff0000"/>
     <use xlink:href="#mf3c51cb3b1" x="136.448814" y="31.451837" style="fill: #ff0000; stroke: #ff0000"/>
     <use xlink:href="#mf3c51cb3b1" x="138.080244" y="28.588525" style="fill: #ff0000; stroke: #ff0000"/>
     <use xlink:href="#mf3c51cb3b1" x="139.711674" y="33.933384" style="fill: #ff0000; stroke: #ff0000"/>
     <use xlink:href="#mf3c51cb3b1" x="141.343104" y="33.551609" style="fill: #ff0000; stroke: #ff0000"/>
     <use xlink:href="#mf3c51cb3b1" x="142.974534" y="30.115625" style="fill: #ff0000; stroke: #ff0000"/>
     <use xlink:href="#mf3c51cb3b1" x="144.605963" y="30.879175" style="fill: #ff0000; stroke: #ff0000"/>
     <use xlink:href="#mf3c51cb3b1" x="146.237393" y="29.542962" style="fill: #ff0000; stroke: #ff0000"/>
     <use xlink:href="#mf3c51cb3b1" x="147.868823" y="31.070062" style="fill: #ff0000; stroke: #ff0000"/>
     <use xlink:href="#mf3c51cb3b1" x="149.500253" y="32.024509" style="fill: #ff0000; stroke: #ff0000"/>
     <use xlink:href="#mf3c51cb3b1" x="151.131683" y="30.115625" style="fill: #ff0000; stroke: #ff0000"/>
     <use xlink:href="#mf3c51cb3b1" x="152.763113" y="32.215396" style="fill: #ff0000; stroke: #ff0000"/>
     <use xlink:href="#mf3c51cb3b1" x="154.394543" y="28.20675" style="fill: #ff0000; stroke: #ff0000"/>
     <use xlink:href="#mf3c51cb3b1" x="156.025973" y="30.688287" style="fill: #ff0000; stroke: #ff0000"/>
     <use xlink:href="#mf3c51cb3b1" x="157.657402" y="28.20675" style="fill: #ff0000; stroke: #ff0000"/>
     <use xlink:href="#mf3c51cb3b1" x="159.288832" y="29.352075" style="fill: #ff0000; stroke: #ff0000"/>
     <use xlink:href="#mf3c51cb3b1" x="160.920262" y="32.597171" style="fill: #ff0000; stroke: #ff0000"/>
     <use xlink:href="#mf3c51cb3b1" x="162.551692" y="29.924737" style="fill: #ff0000; stroke: #ff0000"/>
     <use xlink:href="#mf3c51cb3b1" x="164.183122" y="27.824975" style="fill: #ff0000; stroke: #ff0000"/>
     <use xlink:href="#mf3c51cb3b1" x="165.814552" y="30.306512" style="fill: #ff0000; stroke: #ff0000"/>
     <use xlink:href="#mf3c51cb3b1" x="167.445982" y="30.879175" style="fill: #ff0000; stroke: #ff0000"/>
     <use xlink:href="#mf3c51cb3b1" x="169.077412" y="28.588525" style="fill: #ff0000; stroke: #ff0000"/>
     <use xlink:href="#mf3c51cb3b1" x="170.708842" y="32.215396" style="fill: #ff0000; stroke: #ff0000"/>
     <use xlink:href="#mf3c51cb3b1" x="172.340271" y="27.252312" style="fill: #ff0000; stroke: #ff0000"/>
     <use xlink:href="#mf3c51cb3b1" x="173.971701" y="30.879175" style="fill: #ff0000; stroke: #ff0000"/>
     <use xlink:href="#mf3c51cb3b1" x="175.603131" y="31.451837" style="fill: #ff0000; stroke: #ff0000"/>
     <use xlink:href="#mf3c51cb3b1" x="177.234561" y="32.406284" style="fill: #ff0000; stroke: #ff0000"/>
     <use xlink:href="#mf3c51cb3b1" x="178.865991" y="30.115625" style="fill: #ff0000; stroke: #ff0000"/>
     <use xlink:href="#mf3c51cb3b1" x="180.497421" y="31.26095" style="fill: #ff0000; stroke: #ff0000"/>
     <use xlink:href="#mf3c51cb3b1" x="182.128851" y="30.306512" style="fill: #ff0000; stroke: #ff0000"/>
     <use xlink:href="#mf3c51cb3b1" x="183.760281" y="32.024509" style="fill: #ff0000; stroke: #ff0000"/>
     <use xlink:href="#mf3c51cb3b1" x="185.39171" y="33.360721" style="fill: #ff0000; stroke: #ff0000"/>
     <use xlink:href="#mf3c51cb3b1" x="187.02314" y="31.451837" style="fill: #ff0000; stroke: #ff0000"/>
     <use xlink:href="#mf3c51cb3b1" x="188.65457" y="32.788059" style="fill: #ff0000; stroke: #ff0000"/>
     <use xlink:href="#mf3c51cb3b1" x="190.286" y="32.406284" style="fill: #ff0000; stroke: #ff0000"/>
     <use xlink:href="#mf3c51cb3b1" x="191.91743" y="31.642725" style="fill: #ff0000; stroke: #ff0000"/>
     <use xlink:href="#mf3c51cb3b1" x="193.54886" y="30.4974" style="fill: #ff0000; stroke: #ff0000"/>
     <use xlink:href="#mf3c51cb3b1" x="195.18029" y="31.26095" style="fill: #ff0000; stroke: #ff0000"/>
     <use xlink:href="#mf3c51cb3b1" x="196.81172" y="32.024509" style="fill: #ff0000; stroke: #ff0000"/>
     <use xlink:href="#mf3c51cb3b1" x="198.443149" y="29.73385" style="fill: #ff0000; stroke: #ff0000"/>
     <use xlink:href="#mf3c51cb3b1" x="200.074579" y="30.4974" style="fill: #ff0000; stroke: #ff0000"/>
     <use xlink:href="#mf3c51cb3b1" x="201.706009" y="31.070062" style="fill: #ff0000; stroke: #ff0000"/>
     <use xlink:href="#mf3c51cb3b1" x="203.337439" y="28.779412" style="fill: #ff0000; stroke: #ff0000"/>
     <use xlink:href="#mf3c51cb3b1" x="204.968869" y="29.542962" style="fill: #ff0000; stroke: #ff0000"/>
     <use xlink:href="#mf3c51cb3b1" x="206.600299" y="28.20675" style="fill: #ff0000; stroke: #ff0000"/>
     <use xlink:href="#mf3c51cb3b1" x="208.231729" y="31.451837" style="fill: #ff0000; stroke: #ff0000"/>
     <use xlink:href="#mf3c51cb3b1" x="209.863159" y="30.879175" style="fill: #ff0000; stroke: #ff0000"/>
     <use xlink:href="#mf3c51cb3b1" x="211.494588" y="30.4974" style="fill: #ff0000; stroke: #ff0000"/>
     <use xlink:href="#mf3c51cb3b1" x="213.126018" y="30.4974" style="fill: #ff0000; stroke: #ff0000"/>
     <use xlink:href="#mf3c51cb3b1" x="214.757448" y="32.215396" style="fill: #ff0000; stroke: #ff0000"/>
     <use xlink:href="#mf3c51cb3b1" x="216.388878" y="30.4974" style="fill: #ff0000; stroke: #ff0000"/>
     <use xlink:href="#mf3c51cb3b1" x="218.020308" y="29.924737" style="fill: #ff0000; stroke: #ff0000"/>
     <use xlink:href="#mf3c51cb3b1" x="219.651738" y="32.978946" style="fill: #ff0000; stroke: #ff0000"/>
     <use xlink:href="#mf3c51cb3b1" x="221.283168" y="30.688287" style="fill: #ff0000; stroke: #ff0000"/>
     <use xlink:href="#mf3c51cb3b1" x="222.914598" y="30.688287" style="fill: #ff0000; stroke: #ff0000"/>
     <use xlink:href="#mf3c51cb3b1" x="224.546027" y="29.73385" style="fill: #ff0000; stroke: #ff0000"/>
     <use xlink:href="#mf3c51cb3b1" x="226.177457" y="31.26095" style="fill: #ff0000; stroke: #ff0000"/>
     <use xlink:href="#mf3c51cb3b1" x="227.808887" y="31.642725" style="fill: #ff0000; stroke: #ff0000"/>
     <use xlink:href="#mf3c51cb3b1" x="229.440317" y="32.597171" style="fill: #ff0000; stroke: #ff0000"/>
     <use xlink:href="#mf3c51cb3b1" x="231.071747" y="30.879175" style="fill: #ff0000; stroke: #ff0000"/>
     <use xlink:href="#mf3c51cb3b1" x="232.703177" y="30.306512" style="fill: #ff0000; stroke: #ff0000"/>
     <use xlink:href="#mf3c51cb3b1" x="234.334607" y="31.833612" style="fill: #ff0000; stroke: #ff0000"/>
     <use xlink:href="#mf3c51cb3b1" x="235.966037" y="27.4432" style="fill: #ff0000; stroke: #ff0000"/>
     <use xlink:href="#mf3c51cb3b1" x="237.597466" y="30.4974" style="fill: #ff0000; stroke: #ff0000"/>
     <use xlink:href="#mf3c51cb3b1" x="239.228896" y="30.688287" style="fill: #ff0000; stroke: #ff0000"/>
     <use xlink:href="#mf3c51cb3b1" x="240.860326" y="29.542962" style="fill: #ff0000; stroke: #ff0000"/>
     <use xlink:href="#mf3c51cb3b1" x="242.491756" y="31.26095" style="fill: #ff0000; stroke: #ff0000"/>
     <use xlink:href="#mf3c51cb3b1" x="244.123186" y="32.215396" style="fill: #ff0000; stroke: #ff0000"/>
     <use xlink:href="#mf3c51cb3b1" x="245.754616" y="32.788059" style="fill: #ff0000; stroke: #ff0000"/>
     <use xlink:href="#mf3c51cb3b1" x="247.386046" y="30.688287" style="fill: #ff0000; stroke: #ff0000"/>
     <use xlink:href="#mf3c51cb3b1" x="249.017476" y="30.4974" style="fill: #ff0000; stroke: #ff0000"/>
     <use xlink:href="#mf3c51cb3b1" x="250.648905" y="30.115625" style="fill: #ff0000; stroke: #ff0000"/>
     <use xlink:href="#mf3c51cb3b1" x="252.280335" y="29.924737" style="fill: #ff0000; stroke: #ff0000"/>
     <use xlink:href="#mf3c51cb3b1" x="253.911765" y="31.833612" style="fill: #ff0000; stroke: #ff0000"/>
     <use xlink:href="#mf3c51cb3b1" x="255.543195" y="29.73385" style="fill: #ff0000; stroke: #ff0000"/>
     <use xlink:href="#mf3c51cb3b1" x="257.174625" y="31.451837" style="fill: #ff0000; stroke: #ff0000"/>
     <use xlink:href="#mf3c51cb3b1" x="258.806055" y="31.070062" style="fill: #ff0000; stroke: #ff0000"/>
     <use xlink:href="#mf3c51cb3b1" x="260.437485" y="31.26095" style="fill: #ff0000; stroke: #ff0000"/>
     <use xlink:href="#mf3c51cb3b1" x="262.068915" y="30.688287" style="fill: #ff0000; stroke: #ff0000"/>
     <use xlink:href="#mf3c51cb3b1" x="263.700344" y="31.833612" style="fill: #ff0000; stroke: #ff0000"/>
     <use xlink:href="#mf3c51cb3b1" x="265.331774" y="31.26095" style="fill: #ff0000; stroke: #ff0000"/>
     <use xlink:href="#mf3c51cb3b1" x="266.963204" y="30.688287" style="fill: #ff0000; stroke: #ff0000"/>
     <use xlink:href="#mf3c51cb3b1" x="268.594634" y="27.634087" style="fill: #ff0000; stroke: #ff0000"/>
     <use xlink:href="#mf3c51cb3b1" x="270.226064" y="28.588525" style="fill: #ff0000; stroke: #ff0000"/>
     <use xlink:href="#mf3c51cb3b1" x="271.857494" y="29.73385" style="fill: #ff0000; stroke: #ff0000"/>
     <use xlink:href="#mf3c51cb3b1" x="273.488924" y="30.879175" style="fill: #ff0000; stroke: #ff0000"/>
     <use xlink:href="#mf3c51cb3b1" x="275.120354" y="31.451837" style="fill: #ff0000; stroke: #ff0000"/>
     <use xlink:href="#mf3c51cb3b1" x="276.751783" y="32.024509" style="fill: #ff0000; stroke: #ff0000"/>
     <use xlink:href="#mf3c51cb3b1" x="278.383213" y="28.588525" style="fill: #ff0000; stroke: #ff0000"/>
     <use xlink:href="#mf3c51cb3b1" x="280.014643" y="26.297875" style="fill: #ff0000; stroke: #ff0000"/>
     <use xlink:href="#mf3c51cb3b1" x="281.646073" y="31.833612" style="fill: #ff0000; stroke: #ff0000"/>
     <use xlink:href="#mf3c51cb3b1" x="283.277503" y="30.306512" style="fill: #ff0000; stroke: #ff0000"/>
     <use xlink:href="#mf3c51cb3b1" x="284.908933" y="32.215396" style="fill: #ff0000; stroke: #ff0000"/>
     <use xlink:href="#mf3c51cb3b1" x="286.540363" y="28.20675" style="fill: #ff0000; stroke: #ff0000"/>
     <use xlink:href="#mf3c51cb3b1" x="288.171793" y="33.169834" style="fill: #ff0000; stroke: #ff0000"/>
     <use xlink:href="#mf3c51cb3b1" x="289.803223" y="31.833612" style="fill: #ff0000; stroke: #ff0000"/>
     <use xlink:href="#mf3c51cb3b1" x="291.434652" y="30.4974" style="fill: #ff0000; stroke: #ff0000"/>
     <use xlink:href="#mf3c51cb3b1" x="293.066082" y="29.161187" style="fill: #ff0000; stroke: #ff0000"/>
     <use xlink:href="#mf3c51cb3b1" x="294.697512" y="31.833612" style="fill: #ff0000; stroke: #ff0000"/>
     <use xlink:href="#mf3c51cb3b1" x="296.328942" y="30.688287" style="fill: #ff0000; stroke: #ff0000"/>
     <use xlink:href="#mf3c51cb3b1" x="297.960372" y="30.115625" style="fill: #ff0000; stroke: #ff0000"/>
     <use xlink:href="#mf3c51cb3b1" x="299.591802" y="30.4974" style="fill: #ff0000; stroke: #ff0000"/>
     <use xlink:href="#mf3c51cb3b1" x="301.223232" y="32.406284" style="fill: #ff0000; stroke: #ff0000"/>
     <use xlink:href="#mf3c51cb3b1" x="302.854662" y="33.360721" style="fill: #ff0000; stroke: #ff0000"/>
     <use xlink:href="#mf3c51cb3b1" x="304.486091" y="30.879175" style="fill: #ff0000; stroke: #ff0000"/>
     <use xlink:href="#mf3c51cb3b1" x="306.117521" y="30.4974" style="fill: #ff0000; stroke: #ff0000"/>
     <use xlink:href="#mf3c51cb3b1" x="307.748951" y="28.20675" style="fill: #ff0000; stroke: #ff0000"/>
     <use xlink:href="#mf3c51cb3b1" x="309.380381" y="31.833612" style="fill: #ff0000; stroke: #ff0000"/>
     <use xlink:href="#mf3c51cb3b1" x="311.011811" y="28.015862" style="fill: #ff0000; stroke: #ff0000"/>
     <use xlink:href="#mf3c51cb3b1" x="312.643241" y="31.070062" style="fill: #ff0000; stroke: #ff0000"/>
     <use xlink:href="#mf3c51cb3b1" x="314.274671" y="32.024509" style="fill: #ff0000; stroke: #ff0000"/>
     <use xlink:href="#mf3c51cb3b1" x="315.906101" y="32.024509" style="fill: #ff0000; stroke: #ff0000"/>
     <use xlink:href="#mf3c51cb3b1" x="317.53753" y="32.024509" style="fill: #ff0000; stroke: #ff0000"/>
     <use xlink:href="#mf3c51cb3b1" x="319.16896" y="30.4974" style="fill: #ff0000; stroke: #ff0000"/>
     <use xlink:href="#mf3c51cb3b1" x="320.80039" y="31.833612" style="fill: #ff0000; stroke: #ff0000"/>
     <use xlink:href="#mf3c51cb3b1" x="322.43182" y="31.451837" style="fill: #ff0000; stroke: #ff0000"/>
     <use xlink:href="#mf3c51cb3b1" x="324.06325" y="31.833612" style="fill: #ff0000; stroke: #ff0000"/>
     <use xlink:href="#mf3c51cb3b1" x="325.69468" y="30.115625" style="fill: #ff0000; stroke: #ff0000"/>
     <use xlink:href="#mf3c51cb3b1" x="327.32611" y="32.978946" style="fill: #ff0000; stroke: #ff0000"/>
     <use xlink:href="#mf3c51cb3b1" x="328.95754" y="32.024509" style="fill: #ff0000; stroke: #ff0000"/>
     <use xlink:href="#mf3c51cb3b1" x="330.588969" y="29.73385" style="fill: #ff0000; stroke: #ff0000"/>
     <use xlink:href="#mf3c51cb3b1" x="332.220399" y="31.26095" style="fill: #ff0000; stroke: #ff0000"/>
     <use xlink:href="#mf3c51cb3b1" x="333.851829" y="32.597171" style="fill: #ff0000; stroke: #ff0000"/>
     <use xlink:href="#mf3c51cb3b1" x="335.483259" y="28.20675" style="fill: #ff0000; stroke: #ff0000"/>
     <use xlink:href="#mf3c51cb3b1" x="337.114689" y="30.879175" style="fill: #ff0000; stroke: #ff0000"/>
     <use xlink:href="#mf3c51cb3b1" x="338.746119" y="30.306512" style="fill: #ff0000; stroke: #ff0000"/>
     <use xlink:href="#mf3c51cb3b1" x="340.377549" y="32.406284" style="fill: #ff0000; stroke: #ff0000"/>
     <use xlink:href="#mf3c51cb3b1" x="342.008979" y="30.4974" style="fill: #ff0000; stroke: #ff0000"/>
     <use xlink:href="#mf3c51cb3b1" x="343.640408" y="30.306512" style="fill: #ff0000; stroke: #ff0000"/>
     <use xlink:href="#mf3c51cb3b1" x="345.271838" y="31.26095" style="fill: #ff0000; stroke: #ff0000"/>
     <use xlink:href="#mf3c51cb3b1" x="346.903268" y="31.070062" style="fill: #ff0000; stroke: #ff0000"/>
     <use xlink:href="#mf3c51cb3b1" x="348.534698" y="30.306512" style="fill: #ff0000; stroke: #ff0000"/>
     <use xlink:href="#mf3c51cb3b1" x="350.166128" y="30.306512" style="fill: #ff0000; stroke: #ff0000"/>
     <use xlink:href="#mf3c51cb3b1" x="351.797558" y="29.542962" style="fill: #ff0000; stroke: #ff0000"/>
     <use xlink:href="#mf3c51cb3b1" x="353.428988" y="31.070062" style="fill: #ff0000; stroke: #ff0000"/>
     <use xlink:href="#mf3c51cb3b1" x="355.060418" y="32.597171" style="fill: #ff0000; stroke: #ff0000"/>
     <use xlink:href="#mf3c51cb3b1" x="356.691847" y="30.115625" style="fill: #ff0000; stroke: #ff0000"/>
     <use xlink:href="#mf3c51cb3b1" x="358.323277" y="28.9703" style="fill: #ff0000; stroke: #ff0000"/>
     <use xlink:href="#mf3c51cb3b1" x="359.954707" y="29.924737" style="fill: #ff0000; stroke: #ff0000"/>
     <use xlink:href="#mf3c51cb3b1" x="361.586137" y="32.215396" style="fill: #ff0000; stroke: #ff0000"/>
     <use xlink:href="#mf3c51cb3b1" x="363.217567" y="29.73385" style="fill: #ff0000; stroke: #ff0000"/>
     <use xlink:href="#mf3c51cb3b1" x="364.848997" y="30.4974" style="fill: #ff0000; stroke: #ff0000"/>
     <use xlink:href="#mf3c51cb3b1" x="366.480427" y="30.879175" style="fill: #ff0000; stroke: #ff0000"/>
     <use xlink:href="#mf3c51cb3b1" x="368.111857" y="32.597171" style="fill: #ff0000; stroke: #ff0000"/>
     <use xlink:href="#mf3c51cb3b1" x="369.743286" y="30.306512" style="fill: #ff0000; stroke: #ff0000"/>
     <use xlink:href="#mf3c51cb3b1" x="371.374716" y="31.451837" style="fill: #ff0000; stroke: #ff0000"/>
     <use xlink:href="#mf3c51cb3b1" x="373.006146" y="30.115625" style="fill: #ff0000; stroke: #ff0000"/>
     <use xlink:href="#mf3c51cb3b1" x="374.637576" y="29.924737" style="fill: #ff0000; stroke: #ff0000"/>
     <use xlink:href="#mf3c51cb3b1" x="376.269006" y="30.4974" style="fill: #ff0000; stroke: #ff0000"/>
     <use xlink:href="#mf3c51cb3b1" x="377.900436" y="33.551609" style="fill: #ff0000; stroke: #ff0000"/>
     <use xlink:href="#mf3c51cb3b1" x="379.531866" y="31.833612" style="fill: #ff0000; stroke: #ff0000"/>
     <use xlink:href="#mf3c51cb3b1" x="381.163296" y="27.252312" style="fill: #ff0000; stroke: #ff0000"/>
     <use xlink:href="#mf3c51cb3b1" x="382.794725" y="31.451837" style="fill: #ff0000; stroke: #ff0000"/>
     <use xlink:href="#mf3c51cb3b1" x="384.426155" y="30.879175" style="fill: #ff0000; stroke: #ff0000"/>
     <use xlink:href="#mf3c51cb3b1" x="386.057585" y="32.597171" style="fill: #ff0000; stroke: #ff0000"/>
    </g>
   </g>
   <g id="line2d_20">
    <path d="M 61.40304 99.024937 
L 77.717339 99.024937 
L 79.348768 68.065892 
L 80.980198 99.024937 
L 84.243058 99.024937 
L 85.874488 68.065892 
L 87.505918 68.065892 
L 89.137348 99.024937 
L 90.768778 68.065892 
L 95.663067 68.065892 
L 97.294497 99.024937 
L 98.925927 99.024937 
L 100.557357 68.065892 
L 102.188787 99.024937 
L 110.345936 99.024937 
L 111.977366 68.065892 
L 125.028805 68.065892 
L 126.660235 99.024937 
L 128.291665 99.024937 
L 129.923095 68.065892 
L 131.554524 68.065892 
L 133.185954 99.024937 
L 134.817384 68.065892 
L 149.500253 68.065892 
L 151.131683 99.024937 
L 152.763113 68.065892 
L 160.920262 68.065892 
L 162.551692 99.024937 
L 175.603131 99.024937 
L 177.234561 68.065892 
L 178.865991 68.065892 
L 180.497421 99.024937 
L 188.65457 99.024937 
L 190.286 68.065892 
L 200.074579 68.065892 
L 201.706009 99.024937 
L 216.388878 99.024937 
L 218.020308 68.065892 
L 231.071747 68.065892 
L 232.703177 99.024937 
L 245.754616 99.024937 
L 247.386046 68.065892 
L 258.806055 68.065892 
L 260.437485 99.024937 
L 265.331774 99.024937 
L 266.963204 68.065892 
L 273.488924 68.065892 
L 275.120354 99.024937 
L 288.171793 99.024937 
L 289.803223 68.065892 
L 294.697512 68.065892 
L 296.328942 99.024937 
L 320.80039 99.024937 
L 322.43182 68.065892 
L 338.746119 68.065892 
L 340.377549 99.024937 
L 343.640408 99.024937 
L 345.271838 68.065892 
L 348.534698 68.065892 
L 350.166128 99.024937 
L 351.797558 99.024937 
L 353.428988 68.065892 
L 374.637576 68.065892 
L 376.269006 99.024937 
L 386.057585 99.024937 
L 386.057585 99.024937 
" clip-path="url(#pae96362780)" style="fill: none; stroke: #0000ff; stroke-linecap: square"/>
    <defs>
     <path id="m61ddf0524f" d="M 0 2.5 
C 0.663008 2.5 1.29895 2.236584 1.767767 1.767767 
C 2.236584 1.29895 2.5 0.663008 2.5 0 
C 2.5 -0.663008 2.236584 -1.29895 1.767767 -1.767767 
C 1.29895 -2.236584 0.663008 -2.5 0 -2.5 
C -0.663008 -2.5 -1.29895 -2.236584 -1.767767 -1.767767 
C -2.236584 -1.29895 -2.5 -0.663008 -2.5 0 
C -2.5 0.663008 -2.236584 1.29895 -1.767767 1.767767 
C -1.29895 2.236584 -0.663008 2.5 0 2.5 
z
" style="stroke: #0000ff"/>
    </defs>
    <g clip-path="url(#pae96362780)">
     <use xlink:href="#m61ddf0524f" x="61.40304" y="99.024937" style="fill: #0000ff; stroke: #0000ff"/>
     <use xlink:href="#m61ddf0524f" x="63.03447" y="99.024937" style="fill: #0000ff; stroke: #0000ff"/>
     <use xlink:href="#m61ddf0524f" x="64.6659" y="99.024937" style="fill: #0000ff; stroke: #0000ff"/>
     <use xlink:href="#m61ddf0524f" x="66.297329" y="99.024937" style="fill: #0000ff; stroke: #0000ff"/>
     <use xlink:href="#m61ddf0524f" x="67.928759" y="99.024937" style="fill: #0000ff; stroke: #0000ff"/>
     <use xlink:href="#m61ddf0524f" x="69.560189" y="99.024937" style="fill: #0000ff; stroke: #0000ff"/>
     <use xlink:href="#m61ddf0524f" x="71.191619" y="99.024937" style="fill: #0000ff; stroke: #0000ff"/>
     <use xlink:href="#m61ddf0524f" x="72.823049" y="99.024937" style="fill: #0000ff; stroke: #0000ff"/>
     <use xlink:href="#m61ddf0524f" x="74.454479" y="99.024937" style="fill: #0000ff; stroke: #0000ff"/>
     <use xlink:href="#m61ddf0524f" x="76.085909" y="99.024937" style="fill: #0000ff; stroke: #0000ff"/>
     <use xlink:href="#m61ddf0524f" x="77.717339" y="99.024937" style="fill: #0000ff; stroke: #0000ff"/>
     <use xlink:href="#m61ddf0524f" x="79.348768" y="68.065892" style="fill: #0000ff; stroke: #0000ff"/>
     <use xlink:href="#m61ddf0524f" x="80.980198" y="99.024937" style="fill: #0000ff; stroke: #0000ff"/>
     <use xlink:href="#m61ddf0524f" x="82.611628" y="99.024937" style="fill: #0000ff; stroke: #0000ff"/>
     <use xlink:href="#m61ddf0524f" x="84.243058" y="99.024937" style="fill: #0000ff; stroke: #0000ff"/>
     <use xlink:href="#m61ddf0524f" x="85.874488" y="68.065892" style="fill: #0000ff; stroke: #0000ff"/>
     <use xlink:href="#m61ddf0524f" x="87.505918" y="68.065892" style="fill: #0000ff; stroke: #0000ff"/>
     <use xlink:href="#m61ddf0524f" x="89.137348" y="99.024937" style="fill: #0000ff; stroke: #0000ff"/>
     <use xlink:href="#m61ddf0524f" x="90.768778" y="68.065892" style="fill: #0000ff; stroke: #0000ff"/>
     <use xlink:href="#m61ddf0524f" x="92.400207" y="68.065892" style="fill: #0000ff; stroke: #0000ff"/>
     <use xlink:href="#m61ddf0524f" x="94.031637" y="68.065892" style="fill: #0000ff; stroke: #0000ff"/>
     <use xlink:href="#m61ddf0524f" x="95.663067" y="68.065892" style="fill: #0000ff; stroke: #0000ff"/>
     <use xlink:href="#m61ddf0524f" x="97.294497" y="99.024937" style="fill: #0000ff; stroke: #0000ff"/>
     <use xlink:href="#m61ddf0524f" x="98.925927" y="99.024937" style="fill: #0000ff; stroke: #0000ff"/>
     <use xlink:href="#m61ddf0524f" x="100.557357" y="68.065892" style="fill: #0000ff; stroke: #0000ff"/>
     <use xlink:href="#m61ddf0524f" x="102.188787" y="99.024937" style="fill: #0000ff; stroke: #0000ff"/>
     <use xlink:href="#m61ddf0524f" x="103.820217" y="99.024937" style="fill: #0000ff; stroke: #0000ff"/>
     <use xlink:href="#m61ddf0524f" x="105.451646" y="99.024937" style="fill: #0000ff; stroke: #0000ff"/>
     <use xlink:href="#m61ddf0524f" x="107.083076" y="99.024937" style="fill: #0000ff; stroke: #0000ff"/>
     <use xlink:href="#m61ddf0524f" x="108.714506" y="99.024937" style="fill: #0000ff; stroke: #0000ff"/>
     <use xlink:href="#m61ddf0524f" x="110.345936" y="99.024937" style="fill: #0000ff; stroke: #0000ff"/>
     <use xlink:href="#m61ddf0524f" x="111.977366" y="68.065892" style="fill: #0000ff; stroke: #0000ff"/>
     <use xlink:href="#m61ddf0524f" x="113.608796" y="68.065892" style="fill: #0000ff; stroke: #0000ff"/>
     <use xlink:href="#m61ddf0524f" x="115.240226" y="68.065892" style="fill: #0000ff; stroke: #0000ff"/>
     <use xlink:href="#m61ddf0524f" x="116.871656" y="68.065892" style="fill: #0000ff; stroke: #0000ff"/>
     <use xlink:href="#m61ddf0524f" x="118.503085" y="68.065892" style="fill: #0000ff; stroke: #0000ff"/>
     <use xlink:href="#m61ddf0524f" x="120.134515" y="68.065892" style="fill: #0000ff; stroke: #0000ff"/>
     <use xlink:href="#m61ddf0524f" x="121.765945" y="68.065892" style="fill: #0000ff; stroke: #0000ff"/>
     <use xlink:href="#m61ddf0524f" x="123.397375" y="68.065892" style="fill: #0000ff; stroke: #0000ff"/>
     <use xlink:href="#m61ddf0524f" x="125.028805" y="68.065892" style="fill: #0000ff; stroke: #0000ff"/>
     <use xlink:href="#m61ddf0524f" x="126.660235" y="99.024937" style="fill: #0000ff; stroke: #0000ff"/>
     <use xlink:href="#m61ddf0524f" x="128.291665" y="99.024937" style="fill: #0000ff; stroke: #0000ff"/>
     <use xlink:href="#m61ddf0524f" x="129.923095" y="68.065892" style="fill: #0000ff; stroke: #0000ff"/>
     <use xlink:href="#m61ddf0524f" x="131.554524" y="68.065892" style="fill: #0000ff; stroke: #0000ff"/>
     <use xlink:href="#m61ddf0524f" x="133.185954" y="99.024937" style="fill: #0000ff; stroke: #0000ff"/>
     <use xlink:href="#m61ddf0524f" x="134.817384" y="68.065892" style="fill: #0000ff; stroke: #0000ff"/>
     <use xlink:href="#m61ddf0524f" x="136.448814" y="68.065892" style="fill: #0000ff; stroke: #0000ff"/>
     <use xlink:href="#m61ddf0524f" x="138.080244" y="68.065892" style="fill: #0000ff; stroke: #0000ff"/>
     <use xlink:href="#m61ddf0524f" x="139.711674" y="68.065892" style="fill: #0000ff; stroke: #0000ff"/>
     <use xlink:href="#m61ddf0524f" x="141.343104" y="68.065892" style="fill: #0000ff; stroke: #0000ff"/>
     <use xlink:href="#m61ddf0524f" x="142.974534" y="68.065892" style="fill: #0000ff; stroke: #0000ff"/>
     <use xlink:href="#m61ddf0524f" x="144.605963" y="68.065892" style="fill: #0000ff; stroke: #0000ff"/>
     <use xlink:href="#m61ddf0524f" x="146.237393" y="68.065892" style="fill: #0000ff; stroke: #0000ff"/>
     <use xlink:href="#m61ddf0524f" x="147.868823" y="68.065892" style="fill: #0000ff; stroke: #0000ff"/>
     <use xlink:href="#m61ddf0524f" x="149.500253" y="68.065892" style="fill: #0000ff; stroke: #0000ff"/>
     <use xlink:href="#m61ddf0524f" x="151.131683" y="99.024937" style="fill: #0000ff; stroke: #0000ff"/>
     <use xlink:href="#m61ddf0524f" x="152.763113" y="68.065892" style="fill: #0000ff; stroke: #0000ff"/>
     <use xlink:href="#m61ddf0524f" x="154.394543" y="68.065892" style="fill: #0000ff; stroke: #0000ff"/>
     <use xlink:href="#m61ddf0524f" x="156.025973" y="68.065892" style="fill: #0000ff; stroke: #0000ff"/>
     <use xlink:href="#m61ddf0524f" x="157.657402" y="68.065892" style="fill: #0000ff; stroke: #0000ff"/>
     <use xlink:href="#m61ddf0524f" x="159.288832" y="68.065892" style="fill: #0000ff; stroke: #0000ff"/>
     <use xlink:href="#m61ddf0524f" x="160.920262" y="68.065892" style="fill: #0000ff; stroke: #0000ff"/>
     <use xlink:href="#m61ddf0524f" x="162.551692" y="99.024937" style="fill: #0000ff; stroke: #0000ff"/>
     <use xlink:href="#m61ddf0524f" x="164.183122" y="99.024937" style="fill: #0000ff; stroke: #0000ff"/>
     <use xlink:href="#m61ddf0524f" x="165.814552" y="99.024937" style="fill: #0000ff; stroke: #0000ff"/>
     <use xlink:href="#m61ddf0524f" x="167.445982" y="99.024937" style="fill: #0000ff; stroke: #0000ff"/>
     <use xlink:href="#m61ddf0524f" x="169.077412" y="99.024937" style="fill: #0000ff; stroke: #0000ff"/>
     <use xlink:href="#m61ddf0524f" x="170.708842" y="99.024937" style="fill: #0000ff; stroke: #0000ff"/>
     <use xlink:href="#m61ddf0524f" x="172.340271" y="99.024937" style="fill: #0000ff; stroke: #0000ff"/>
     <use xlink:href="#m61ddf0524f" x="173.971701" y="99.024937" style="fill: #0000ff; stroke: #0000ff"/>
     <use xlink:href="#m61ddf0524f" x="175.603131" y="99.024937" style="fill: #0000ff; stroke: #0000ff"/>
     <use xlink:href="#m61ddf0524f" x="177.234561" y="68.065892" style="fill: #0000ff; stroke: #0000ff"/>
     <use xlink:href="#m61ddf0524f" x="178.865991" y="68.065892" style="fill: #0000ff; stroke: #0000ff"/>
     <use xlink:href="#m61ddf0524f" x="180.497421" y="99.024937" style="fill: #0000ff; stroke: #0000ff"/>
     <use xlink:href="#m61ddf0524f" x="182.128851" y="99.024937" style="fill: #0000ff; stroke: #0000ff"/>
     <use xlink:href="#m61ddf0524f" x="183.760281" y="99.024937" style="fill: #0000ff; stroke: #0000ff"/>
     <use xlink:href="#m61ddf0524f" x="185.39171" y="99.024937" style="fill: #0000ff; stroke: #0000ff"/>
     <use xlink:href="#m61ddf0524f" x="187.02314" y="99.024937" style="fill: #0000ff; stroke: #0000ff"/>
     <use xlink:href="#m61ddf0524f" x="188.65457" y="99.024937" style="fill: #0000ff; stroke: #0000ff"/>
     <use xlink:href="#m61ddf0524f" x="190.286" y="68.065892" style="fill: #0000ff; stroke: #0000ff"/>
     <use xlink:href="#m61ddf0524f" x="191.91743" y="68.065892" style="fill: #0000ff; stroke: #0000ff"/>
     <use xlink:href="#m61ddf0524f" x="193.54886" y="68.065892" style="fill: #0000ff; stroke: #0000ff"/>
     <use xlink:href="#m61ddf0524f" x="195.18029" y="68.065892" style="fill: #0000ff; stroke: #0000ff"/>
     <use xlink:href="#m61ddf0524f" x="196.81172" y="68.065892" style="fill: #0000ff; stroke: #0000ff"/>
     <use xlink:href="#m61ddf0524f" x="198.443149" y="68.065892" style="fill: #0000ff; stroke: #0000ff"/>
     <use xlink:href="#m61ddf0524f" x="200.074579" y="68.065892" style="fill: #0000ff; stroke: #0000ff"/>
     <use xlink:href="#m61ddf0524f" x="201.706009" y="99.024937" style="fill: #0000ff; stroke: #0000ff"/>
     <use xlink:href="#m61ddf0524f" x="203.337439" y="99.024937" style="fill: #0000ff; stroke: #0000ff"/>
     <use xlink:href="#m61ddf0524f" x="204.968869" y="99.024937" style="fill: #0000ff; stroke: #0000ff"/>
     <use xlink:href="#m61ddf0524f" x="206.600299" y="99.024937" style="fill: #0000ff; stroke: #0000ff"/>
     <use xlink:href="#m61ddf0524f" x="208.231729" y="99.024937" style="fill: #0000ff; stroke: #0000ff"/>
     <use xlink:href="#m61ddf0524f" x="209.863159" y="99.024937" style="fill: #0000ff; stroke: #0000ff"/>
     <use xlink:href="#m61ddf0524f" x="211.494588" y="99.024937" style="fill: #0000ff; stroke: #0000ff"/>
     <use xlink:href="#m61ddf0524f" x="213.126018" y="99.024937" style="fill: #0000ff; stroke: #0000ff"/>
     <use xlink:href="#m61ddf0524f" x="214.757448" y="99.024937" style="fill: #0000ff; stroke: #0000ff"/>
     <use xlink:href="#m61ddf0524f" x="216.388878" y="99.024937" style="fill: #0000ff; stroke: #0000ff"/>
     <use xlink:href="#m61ddf0524f" x="218.020308" y="68.065892" style="fill: #0000ff; stroke: #0000ff"/>
     <use xlink:href="#m61ddf0524f" x="219.651738" y="68.065892" style="fill: #0000ff; stroke: #0000ff"/>
     <use xlink:href="#m61ddf0524f" x="221.283168" y="68.065892" style="fill: #0000ff; stroke: #0000ff"/>
     <use xlink:href="#m61ddf0524f" x="222.914598" y="68.065892" style="fill: #0000ff; stroke: #0000ff"/>
     <use xlink:href="#m61ddf0524f" x="224.546027" y="68.065892" style="fill: #0000ff; stroke: #0000ff"/>
     <use xlink:href="#m61ddf0524f" x="226.177457" y="68.065892" style="fill: #0000ff; stroke: #0000ff"/>
     <use xlink:href="#m61ddf0524f" x="227.808887" y="68.065892" style="fill: #0000ff; stroke: #0000ff"/>
     <use xlink:href="#m61ddf0524f" x="229.440317" y="68.065892" style="fill: #0000ff; stroke: #0000ff"/>
     <use xlink:href="#m61ddf0524f" x="231.071747" y="68.065892" style="fill: #0000ff; stroke: #0000ff"/>
     <use xlink:href="#m61ddf0524f" x="232.703177" y="99.024937" style="fill: #0000ff; stroke: #0000ff"/>
     <use xlink:href="#m61ddf0524f" x="234.334607" y="99.024937" style="fill: #0000ff; stroke: #0000ff"/>
     <use xlink:href="#m61ddf0524f" x="235.966037" y="99.024937" style="fill: #0000ff; stroke: #0000ff"/>
     <use xlink:href="#m61ddf0524f" x="237.597466" y="99.024937" style="fill: #0000ff; stroke: #0000ff"/>
     <use xlink:href="#m61ddf0524f" x="239.228896" y="99.024937" style="fill: #0000ff; stroke: #0000ff"/>
     <use xlink:href="#m61ddf0524f" x="240.860326" y="99.024937" style="fill: #0000ff; stroke: #0000ff"/>
     <use xlink:href="#m61ddf0524f" x="242.491756" y="99.024937" style="fill: #0000ff; stroke: #0000ff"/>
     <use xlink:href="#m61ddf0524f" x="244.123186" y="99.024937" style="fill: #0000ff; stroke: #0000ff"/>
     <use xlink:href="#m61ddf0524f" x="245.754616" y="99.024937" style="fill: #0000ff; stroke: #0000ff"/>
     <use xlink:href="#m61ddf0524f" x="247.386046" y="68.065892" style="fill: #0000ff; stroke: #0000ff"/>
     <use xlink:href="#m61ddf0524f" x="249.017476" y="68.065892" style="fill: #0000ff; stroke: #0000ff"/>
     <use xlink:href="#m61ddf0524f" x="250.648905" y="68.065892" style="fill: #0000ff; stroke: #0000ff"/>
     <use xlink:href="#m61ddf0524f" x="252.280335" y="68.065892" style="fill: #0000ff; stroke: #0000ff"/>
     <use xlink:href="#m61ddf0524f" x="253.911765" y="68.065892" style="fill: #0000ff; stroke: #0000ff"/>
     <use xlink:href="#m61ddf0524f" x="255.543195" y="68.065892" style="fill: #0000ff; stroke: #0000ff"/>
     <use xlink:href="#m61ddf0524f" x="257.174625" y="68.065892" style="fill: #0000ff; stroke: #0000ff"/>
     <use xlink:href="#m61ddf0524f" x="258.806055" y="68.065892" style="fill: #0000ff; stroke: #0000ff"/>
     <use xlink:href="#m61ddf0524f" x="260.437485" y="99.024937" style="fill: #0000ff; stroke: #0000ff"/>
     <use xlink:href="#m61ddf0524f" x="262.068915" y="99.024937" style="fill: #0000ff; stroke: #0000ff"/>
     <use xlink:href="#m61ddf0524f" x="263.700344" y="99.024937" style="fill: #0000ff; stroke: #0000ff"/>
     <use xlink:href="#m61ddf0524f" x="265.331774" y="99.024937" style="fill: #0000ff; stroke: #0000ff"/>
     <use xlink:href="#m61ddf0524f" x="266.963204" y="68.065892" style="fill: #0000ff; stroke: #0000ff"/>
     <use xlink:href="#m61ddf0524f" x="268.594634" y="68.065892" style="fill: #0000ff; stroke: #0000ff"/>
     <use xlink:href="#m61ddf0524f" x="270.226064" y="68.065892" style="fill: #0000ff; stroke: #0000ff"/>
     <use xlink:href="#m61ddf0524f" x="271.857494" y="68.065892" style="fill: #0000ff; stroke: #0000ff"/>
     <use xlink:href="#m61ddf0524f" x="273.488924" y="68.065892" style="fill: #0000ff; stroke: #0000ff"/>
     <use xlink:href="#m61ddf0524f" x="275.120354" y="99.024937" style="fill: #0000ff; stroke: #0000ff"/>
     <use xlink:href="#m61ddf0524f" x="276.751783" y="99.024937" style="fill: #0000ff; stroke: #0000ff"/>
     <use xlink:href="#m61ddf0524f" x="278.383213" y="99.024937" style="fill: #0000ff; stroke: #0000ff"/>
     <use xlink:href="#m61ddf0524f" x="280.014643" y="99.024937" style="fill: #0000ff; stroke: #0000ff"/>
     <use xlink:href="#m61ddf0524f" x="281.646073" y="99.024937" style="fill: #0000ff; stroke: #0000ff"/>
     <use xlink:href="#m61ddf0524f" x="283.277503" y="99.024937" style="fill: #0000ff; stroke: #0000ff"/>
     <use xlink:href="#m61ddf0524f" x="284.908933" y="99.024937" style="fill: #0000ff; stroke: #0000ff"/>
     <use xlink:href="#m61ddf0524f" x="286.540363" y="99.024937" style="fill: #0000ff; stroke: #0000ff"/>
     <use xlink:href="#m61ddf0524f" x="288.171793" y="99.024937" style="fill: #0000ff; stroke: #0000ff"/>
     <use xlink:href="#m61ddf0524f" x="289.803223" y="68.065892" style="fill: #0000ff; stroke: #0000ff"/>
     <use xlink:href="#m61ddf0524f" x="291.434652" y="68.065892" style="fill: #0000ff; stroke: #0000ff"/>
     <use xlink:href="#m61ddf0524f" x="293.066082" y="68.065892" style="fill: #0000ff; stroke: #0000ff"/>
     <use xlink:href="#m61ddf0524f" x="294.697512" y="68.065892" style="fill: #0000ff; stroke: #0000ff"/>
     <use xlink:href="#m61ddf0524f" x="296.328942" y="99.024937" style="fill: #0000ff; stroke: #0000ff"/>
     <use xlink:href="#m61ddf0524f" x="297.960372" y="99.024937" style="fill: #0000ff; stroke: #0000ff"/>
     <use xlink:href="#m61ddf0524f" x="299.591802" y="99.024937" style="fill: #0000ff; stroke: #0000ff"/>
     <use xlink:href="#m61ddf0524f" x="301.223232" y="99.024937" style="fill: #0000ff; stroke: #0000ff"/>
     <use xlink:href="#m61ddf0524f" x="302.854662" y="99.024937" style="fill: #0000ff; stroke: #0000ff"/>
     <use xlink:href="#m61ddf0524f" x="304.486091" y="99.024937" style="fill: #0000ff; stroke: #0000ff"/>
     <use xlink:href="#m61ddf0524f" x="306.117521" y="99.024937" style="fill: #0000ff; stroke: #0000ff"/>
     <use xlink:href="#m61ddf0524f" x="307.748951" y="99.024937" style="fill: #0000ff; stroke: #0000ff"/>
     <use xlink:href="#m61ddf0524f" x="309.380381" y="99.024937" style="fill: #0000ff; stroke: #0000ff"/>
     <use xlink:href="#m61ddf0524f" x="311.011811" y="99.024937" style="fill: #0000ff; stroke: #0000ff"/>
     <use xlink:href="#m61ddf0524f" x="312.643241" y="99.024937" style="fill: #0000ff; stroke: #0000ff"/>
     <use xlink:href="#m61ddf0524f" x="314.274671" y="99.024937" style="fill: #0000ff; stroke: #0000ff"/>
     <use xlink:href="#m61ddf0524f" x="315.906101" y="99.024937" style="fill: #0000ff; stroke: #0000ff"/>
     <use xlink:href="#m61ddf0524f" x="317.53753" y="99.024937" style="fill: #0000ff; stroke: #0000ff"/>
     <use xlink:href="#m61ddf0524f" x="319.16896" y="99.024937" style="fill: #0000ff; stroke: #0000ff"/>
     <use xlink:href="#m61ddf0524f" x="320.80039" y="99.024937" style="fill: #0000ff; stroke: #0000ff"/>
     <use xlink:href="#m61ddf0524f" x="322.43182" y="68.065892" style="fill: #0000ff; stroke: #0000ff"/>
     <use xlink:href="#m61ddf0524f" x="324.06325" y="68.065892" style="fill: #0000ff; stroke: #0000ff"/>
     <use xlink:href="#m61ddf0524f" x="325.69468" y="68.065892" style="fill: #0000ff; stroke: #0000ff"/>
     <use xlink:href="#m61ddf0524f" x="327.32611" y="68.065892" style="fill: #0000ff; stroke: #0000ff"/>
     <use xlink:href="#m61ddf0524f" x="328.95754" y="68.065892" style="fill: #0000ff; stroke: #0000ff"/>
     <use xlink:href="#m61ddf0524f" x="330.588969" y="68.065892" style="fill: #0000ff; stroke: #0000ff"/>
     <use xlink:href="#m61ddf0524f" x="332.220399" y="68.065892" style="fill: #0000ff; stroke: #0000ff"/>
     <use xlink:href="#m61ddf0524f" x="333.851829" y="68.065892" style="fill: #0000ff; stroke: #0000ff"/>
     <use xlink:href="#m61ddf0524f" x="335.483259" y="68.065892" style="fill: #0000ff; stroke: #0000ff"/>
     <use xlink:href="#m61ddf0524f" x="337.114689" y="68.065892" style="fill: #0000ff; stroke: #0000ff"/>
     <use xlink:href="#m61ddf0524f" x="338.746119" y="68.065892" style="fill: #0000ff; stroke: #0000ff"/>
     <use xlink:href="#m61ddf0524f" x="340.377549" y="99.024937" style="fill: #0000ff; stroke: #0000ff"/>
     <use xlink:href="#m61ddf0524f" x="342.008979" y="99.024937" style="fill: #0000ff; stroke: #0000ff"/>
     <use xlink:href="#m61ddf0524f" x="343.640408" y="99.024937" style="fill: #0000ff; stroke: #0000ff"/>
     <use xlink:href="#m61ddf0524f" x="345.271838" y="68.065892" style="fill: #0000ff; stroke: #0000ff"/>
     <use xlink:href="#m61ddf0524f" x="346.903268" y="68.065892" style="fill: #0000ff; stroke: #0000ff"/>
     <use xlink:href="#m61ddf0524f" x="348.534698" y="68.065892" style="fill: #0000ff; stroke: #0000ff"/>
     <use xlink:href="#m61ddf0524f" x="350.166128" y="99.024937" style="fill: #0000ff; stroke: #0000ff"/>
     <use xlink:href="#m61ddf0524f" x="351.797558" y="99.024937" style="fill: #0000ff; stroke: #0000ff"/>
     <use xlink:href="#m61ddf0524f" x="353.428988" y="68.065892" style="fill: #0000ff; stroke: #0000ff"/>
     <use xlink:href="#m61ddf0524f" x="355.060418" y="68.065892" style="fill: #0000ff; stroke: #0000ff"/>
     <use xlink:href="#m61ddf0524f" x="356.691847" y="68.065892" style="fill: #0000ff; stroke: #0000ff"/>
     <use xlink:href="#m61ddf0524f" x="358.323277" y="68.065892" style="fill: #0000ff; stroke: #0000ff"/>
     <use xlink:href="#m61ddf0524f" x="359.954707" y="68.065892" style="fill: #0000ff; stroke: #0000ff"/>
     <use xlink:href="#m61ddf0524f" x="361.586137" y="68.065892" style="fill: #0000ff; stroke: #0000ff"/>
     <use xlink:href="#m61ddf0524f" x="363.217567" y="68.065892" style="fill: #0000ff; stroke: #0000ff"/>
     <use xlink:href="#m61ddf0524f" x="364.848997" y="68.065892" style="fill: #0000ff; stroke: #0000ff"/>
     <use xlink:href="#m61ddf0524f" x="366.480427" y="68.065892" style="fill: #0000ff; stroke: #0000ff"/>
     <use xlink:href="#m61ddf0524f" x="368.111857" y="68.065892" style="fill: #0000ff; stroke: #0000ff"/>
     <use xlink:href="#m61ddf0524f" x="369.743286" y="68.065892" style="fill: #0000ff; stroke: #0000ff"/>
     <use xlink:href="#m61ddf0524f" x="371.374716" y="68.065892" style="fill: #0000ff; stroke: #0000ff"/>
     <use xlink:href="#m61ddf0524f" x="373.006146" y="68.065892" style="fill: #0000ff; stroke: #0000ff"/>
     <use xlink:href="#m61ddf0524f" x="374.637576" y="68.065892" style="fill: #0000ff; stroke: #0000ff"/>
     <use xlink:href="#m61ddf0524f" x="376.269006" y="99.024937" style="fill: #0000ff; stroke: #0000ff"/>
     <use xlink:href="#m61ddf0524f" x="377.900436" y="99.024937" style="fill: #0000ff; stroke: #0000ff"/>
     <use xlink:href="#m61ddf0524f" x="379.531866" y="99.024937" style="fill: #0000ff; stroke: #0000ff"/>
     <use xlink:href="#m61ddf0524f" x="381.163296" y="99.024937" style="fill: #0000ff; stroke: #0000ff"/>
     <use xlink:href="#m61ddf0524f" x="382.794725" y="99.024937" style="fill: #0000ff; stroke: #0000ff"/>
     <use xlink:href="#m61ddf0524f" x="384.426155" y="99.024937" style="fill: #0000ff; stroke: #0000ff"/>
     <use xlink:href="#m61ddf0524f" x="386.057585" y="99.024937" style="fill: #0000ff; stroke: #0000ff"/>
    </g>
   </g>
   <g id="patch_3">
    <path d="M 45.170313 280.313875 
L 45.170313 14.201875 
" style="fill: none; stroke: #000000; stroke-width: 0.8; stroke-linejoin: miter; stroke-linecap: square"/>
   </g>
   <g id="patch_4">
    <path d="M 402.290313 280.313875 
L 402.290313 14.201875 
" style="fill: none; stroke: #000000; stroke-width: 0.8; stroke-linejoin: miter; stroke-linecap: square"/>
   </g>
   <g id="patch_5">
    <path d="M 45.170313 280.313875 
L 402.290312 280.313875 
" style="fill: none; stroke: #000000; stroke-width: 0.8; stroke-linejoin: miter; stroke-linecap: square"/>
   </g>
   <g id="patch_6">
    <path d="M 45.170313 14.201875 
L 402.290312 14.201875 
" style="fill: none; stroke: #000000; stroke-width: 0.8; stroke-linejoin: miter; stroke-linecap: square"/>
   </g>
   <g id="text_21">
    <!-- ResNet32: Accuracy -->
    <g transform="translate(161.926641 8.201875) scale(0.11 -0.11)">
     <defs>
      <path id="DejaVuSerif-Bold-52" d="M 3397 2278 
Q 3675 2238 3865 2094 
Q 4056 1950 4197 1678 
L 4878 378 
L 5356 378 
L 5356 0 
L 3822 0 
L 3078 1409 
Q 2863 1847 2711 1967 
Q 2559 2088 2291 2088 
L 2100 2088 
L 2100 378 
L 2700 378 
L 2700 0 
L 300 0 
L 300 378 
L 897 378 
L 897 4288 
L 300 4288 
L 300 4666 
L 2963 4666 
Q 3775 4666 4217 4339 
Q 4659 4013 4659 3413 
Q 4659 2925 4345 2642 
Q 4031 2359 3397 2278 
z
M 2100 2463 
L 2509 2463 
Q 2947 2463 3183 2700 
Q 3419 2938 3419 3378 
Q 3419 3819 3183 4053 
Q 2947 4288 2509 4288 
L 2100 4288 
L 2100 2463 
z
" transform="scale(0.015625)"/>
      <path id="DejaVuSerif-Bold-65" d="M 2566 1875 
Q 2566 2531 2444 2795 
Q 2322 3059 2028 3059 
Q 1744 3059 1620 2800 
Q 1497 2541 1497 1931 
L 1497 1875 
L 2566 1875 
z
M 3781 1503 
L 1497 1503 
L 1497 1478 
Q 1497 834 1690 548 
Q 1884 263 2316 263 
Q 2675 263 2897 453 
Q 3119 644 3181 1006 
L 3700 1006 
Q 3566 441 3166 175 
Q 2766 -91 2047 -91 
Q 1184 -91 723 364 
Q 263 819 263 1663 
Q 263 2488 734 2950 
Q 1206 3413 2047 3413 
Q 2872 3413 3312 2927 
Q 3753 2441 3781 1503 
z
" transform="scale(0.015625)"/>
      <path id="DejaVuSerif-Bold-73" d="M 300 97 
L 300 1025 
L 653 1025 
Q 697 653 931 458 
Q 1166 263 1569 263 
Q 1906 263 2086 380 
Q 2266 497 2266 716 
Q 2266 916 2152 1025 
Q 2038 1134 1709 1216 
L 1253 1331 
Q 738 1459 506 1698 
Q 275 1938 275 2344 
Q 275 2884 650 3148 
Q 1025 3413 1806 3413 
Q 2100 3413 2433 3364 
Q 2766 3316 3169 3213 
L 3169 2375 
L 2816 2375 
Q 2788 2716 2573 2887 
Q 2359 3059 1959 3059 
Q 1622 3059 1448 2951 
Q 1275 2844 1275 2638 
Q 1275 2469 1375 2372 
Q 1475 2275 1734 2209 
L 2188 2094 
Q 2841 1928 3091 1684 
Q 3341 1441 3341 1006 
Q 3341 444 2939 176 
Q 2538 -91 1691 -91 
Q 1381 -91 1034 -44 
Q 688 3 300 97 
z
" transform="scale(0.015625)"/>
      <path id="DejaVuSerif-Bold-4e" d="M 281 0 
L 281 378 
L 878 378 
L 878 4288 
L 281 4288 
L 281 4666 
L 1741 4666 
L 4556 1363 
L 4556 4288 
L 3963 4288 
L 3963 4666 
L 5594 4666 
L 5594 4288 
L 4997 4288 
L 4997 0 
L 4178 0 
L 1319 3372 
L 1319 378 
L 1913 378 
L 1913 0 
L 281 0 
z
" transform="scale(0.015625)"/>
      <path id="DejaVuSerif-Bold-74" d="M 634 2944 
L 153 2944 
L 153 3322 
L 634 3322 
L 634 4353 
L 1741 4353 
L 1741 3322 
L 2663 3322 
L 2663 2944 
L 1741 2944 
L 1741 909 
Q 1741 475 1809 369 
Q 1878 263 2059 263 
Q 2259 263 2356 397 
Q 2453 531 2459 813 
L 2925 813 
Q 2897 313 2651 111 
Q 2406 -91 1806 -91 
Q 1122 -91 878 123 
Q 634 338 634 909 
L 634 2944 
z
" transform="scale(0.015625)"/>
      <path id="DejaVuSerif-Bold-33" d="M 550 4531 
Q 963 4641 1350 4695 
Q 1738 4750 2106 4750 
Q 2950 4750 3401 4448 
Q 3853 4147 3853 3584 
Q 3853 3163 3593 2900 
Q 3334 2638 2834 2547 
Q 3444 2450 3744 2131 
Q 4044 1813 4044 1259 
Q 4044 606 3526 257 
Q 3009 -91 2028 -91 
Q 1659 -91 1267 -28 
Q 875 34 447 159 
L 447 1184 
L 825 1184 
Q 859 741 1103 508 
Q 1347 275 1778 275 
Q 2253 275 2512 539 
Q 2772 803 2772 1288 
Q 2772 1794 2501 2069 
Q 2231 2344 1734 2344 
L 1528 2344 
L 1528 2719 
L 1691 2719 
Q 2150 2719 2381 2931 
Q 2613 3144 2613 3566 
Q 2613 3963 2395 4173 
Q 2178 4384 1772 4384 
Q 1403 4384 1187 4182 
Q 972 3981 928 3597 
L 550 3597 
L 550 4531 
z
" transform="scale(0.015625)"/>
      <path id="DejaVuSerif-Bold-32" d="M 844 3513 
L 469 3513 
L 469 4519 
Q 850 4634 1223 4692 
Q 1597 4750 1978 4750 
Q 2869 4750 3367 4386 
Q 3866 4022 3866 3372 
Q 3866 2909 3591 2542 
Q 3316 2175 2541 1672 
L 1241 819 
L 3450 819 
L 3450 1369 
L 3878 1369 
L 3878 0 
L 428 0 
L 428 763 
L 1119 1241 
Q 2003 1850 2297 2278 
Q 2591 2706 2591 3278 
Q 2591 3819 2367 4101 
Q 2144 4384 1716 4384 
Q 1347 4384 1125 4161 
Q 903 3938 844 3513 
z
" transform="scale(0.015625)"/>
      <path id="DejaVuSerif-Bold-3a" d="M 588 2541 
Q 588 2788 761 2963 
Q 934 3138 1178 3138 
Q 1422 3138 1597 2961 
Q 1772 2784 1772 2541 
Q 1772 2297 1598 2125 
Q 1425 1953 1178 1953 
Q 931 1953 759 2125 
Q 588 2297 588 2541 
z
M 588 506 
Q 588 750 761 925 
Q 934 1100 1178 1100 
Q 1422 1100 1597 925 
Q 1772 750 1772 506 
Q 1772 259 1597 84 
Q 1422 -91 1178 -91 
Q 934 -91 761 84 
Q 588 259 588 506 
z
" transform="scale(0.015625)"/>
      <path id="DejaVuSerif-Bold-20" transform="scale(0.015625)"/>
      <path id="DejaVuSerif-Bold-41" d="M -50 0 
L -50 378 
L 331 378 
L 2088 4666 
L 2834 4666 
L 4594 378 
L 5038 378 
L 5038 0 
L 2853 0 
L 2853 378 
L 3309 378 
L 2925 1331 
L 1172 1331 
L 781 378 
L 1338 378 
L 1338 0 
L -50 0 
z
M 1325 1709 
L 2772 1709 
L 2053 3494 
L 1325 1709 
z
" transform="scale(0.015625)"/>
      <path id="DejaVuSerif-Bold-63" d="M 3609 1038 
Q 3491 469 3123 189 
Q 2756 -91 2125 -91 
Q 1238 -91 750 368 
Q 263 828 263 1663 
Q 263 2488 744 2950 
Q 1225 3413 2081 3413 
Q 2428 3413 2781 3347 
Q 3134 3281 3500 3150 
L 3500 2228 
L 3150 2228 
Q 3100 2650 2903 2854 
Q 2706 3059 2350 3059 
Q 1888 3059 1692 2746 
Q 1497 2434 1497 1663 
Q 1497 909 1687 586 
Q 1878 263 2309 263 
Q 2644 263 2845 463 
Q 3047 663 3091 1038 
L 3609 1038 
z
" transform="scale(0.015625)"/>
      <path id="DejaVuSerif-Bold-75" d="M 3963 3322 
L 3963 378 
L 4434 378 
L 4434 0 
L 2853 0 
L 2853 469 
Q 2656 172 2400 40 
Q 2144 -91 1753 -91 
Q 1194 -91 908 239 
Q 622 569 622 1209 
L 622 2944 
L 147 2944 
L 147 3322 
L 1728 3322 
L 1728 1381 
Q 1728 763 1831 595 
Q 1934 428 2209 428 
Q 2544 428 2698 675 
Q 2853 922 2853 1459 
L 2853 2944 
L 2450 2944 
L 2450 3322 
L 3963 3322 
z
" transform="scale(0.015625)"/>
      <path id="DejaVuSerif-Bold-72" d="M 3438 3359 
L 3438 2369 
L 3084 2369 
Q 3066 2634 2941 2764 
Q 2816 2894 2578 2894 
Q 2216 2894 2006 2575 
Q 1797 2256 1797 1691 
L 1797 378 
L 2400 378 
L 2400 0 
L 219 0 
L 219 378 
L 691 378 
L 691 2944 
L 184 2944 
L 184 3322 
L 1797 3322 
L 1797 2731 
Q 1959 3078 2226 3245 
Q 2494 3413 2881 3413 
Q 2978 3413 3117 3398 
Q 3256 3384 3438 3359 
z
" transform="scale(0.015625)"/>
      <path id="DejaVuSerif-Bold-61" d="M 3525 2041 
L 3525 378 
L 4000 378 
L 4000 0 
L 2419 0 
L 2419 422 
Q 2200 159 1931 34 
Q 1663 -91 1319 -91 
Q 809 -91 536 182 
Q 263 456 263 966 
Q 263 1525 655 1803 
Q 1047 2081 1838 2081 
L 2419 2081 
L 2419 2278 
Q 2419 2681 2228 2873 
Q 2038 3066 1638 3066 
Q 1306 3066 1126 2930 
Q 947 2794 872 2484 
L 519 2484 
L 519 3200 
Q 816 3306 1134 3359 
Q 1453 3413 1806 3413 
Q 2697 3413 3111 3081 
Q 3525 2750 3525 2041 
z
M 2419 1044 
L 2419 1709 
L 2003 1709 
Q 1694 1709 1528 1540 
Q 1363 1372 1363 1056 
Q 1363 741 1483 584 
Q 1603 428 1850 428 
Q 2106 428 2262 597 
Q 2419 766 2419 1044 
z
" transform="scale(0.015625)"/>
      <path id="DejaVuSerif-Bold-79" d="M 1997 -750 
Q 1847 -1116 1634 -1269 
Q 1422 -1422 1063 -1422 
Q 909 -1422 721 -1387 
Q 534 -1353 313 -1288 
L 313 -594 
L 666 -597 
Q 675 -838 779 -953 
Q 884 -1069 1094 -1069 
Q 1297 -1069 1422 -958 
Q 1547 -847 1672 -538 
L 1722 -422 
L 275 2944 
L -84 2944 
L -84 3322 
L 1831 3322 
L 1831 2944 
L 1434 2944 
L 2278 978 
L 3066 2944 
L 2625 2944 
L 2625 3322 
L 3872 3322 
L 3872 2944 
L 3469 2944 
L 1997 -750 
z
" transform="scale(0.015625)"/>
     </defs>
     <use xlink:href="#DejaVuSerif-Bold-52"/>
     <use xlink:href="#DejaVuSerif-Bold-65" x="83.105469"/>
     <use xlink:href="#DejaVuSerif-Bold-73" x="146.728516"/>
     <use xlink:href="#DejaVuSerif-Bold-4e" x="203.027344"/>
     <use xlink:href="#DejaVuSerif-Bold-65" x="294.433594"/>
     <use xlink:href="#DejaVuSerif-Bold-74" x="358.056641"/>
     <use xlink:href="#DejaVuSerif-Bold-33" x="404.248047"/>
     <use xlink:href="#DejaVuSerif-Bold-32" x="473.828125"/>
     <use xlink:href="#DejaVuSerif-Bold-3a" x="543.408203"/>
     <use xlink:href="#DejaVuSerif-Bold-20" x="580.322266"/>
     <use xlink:href="#DejaVuSerif-Bold-41" x="615.136719"/>
     <use xlink:href="#DejaVuSerif-Bold-63" x="692.724609"/>
     <use xlink:href="#DejaVuSerif-Bold-63" x="753.613281"/>
     <use xlink:href="#DejaVuSerif-Bold-75" x="814.501953"/>
     <use xlink:href="#DejaVuSerif-Bold-72" x="887.207031"/>
     <use xlink:href="#DejaVuSerif-Bold-61" x="939.892578"/>
     <use xlink:href="#DejaVuSerif-Bold-63" x="1004.6875"/>
     <use xlink:href="#DejaVuSerif-Bold-79" x="1065.576172"/>
    </g>
   </g>
   <g id="legend_1">
    <g id="patch_7">
     <path d="M 332.538281 274.813875 
L 394.590313 274.813875 
Q 396.790313 274.813875 396.790313 272.613875 
L 396.790313 241.422 
Q 396.790313 239.222 394.590313 239.222 
L 332.538281 239.222 
Q 330.338281 239.222 330.338281 241.422 
L 330.338281 272.613875 
Q 330.338281 274.813875 332.538281 274.813875 
z
" style="fill: #ffffff; opacity: 0.8; stroke: #cccccc; stroke-linejoin: miter"/>
    </g>
    <g id="line2d_21">
     <path d="M 334.738281 248.130281 
L 345.738281 248.130281 
L 356.738281 248.130281 
" style="fill: none; stroke: #ff0000; stroke-linecap: square"/>
     <g>
      <use xlink:href="#mf3c51cb3b1" x="345.738281" y="248.130281" style="fill: #ff0000; stroke: #ff0000"/>
     </g>
    </g>
    <g id="text_22">
     <!-- train -->
     <g transform="translate(365.538281 251.980281) scale(0.11 -0.11)">
      <defs>
       <path id="DejaVuSerif-74" d="M 691 2988 
L 184 2988 
L 184 3322 
L 691 3322 
L 691 4353 
L 1269 4353 
L 1269 3322 
L 2350 3322 
L 2350 2988 
L 1269 2988 
L 1269 878 
Q 1269 456 1350 337 
Q 1431 219 1650 219 
Q 1875 219 1978 351 
Q 2081 484 2088 781 
L 2522 781 
Q 2497 328 2275 118 
Q 2053 -91 1600 -91 
Q 1103 -91 897 129 
Q 691 350 691 878 
L 691 2988 
z
" transform="scale(0.015625)"/>
       <path id="DejaVuSerif-69" d="M 622 4353 
Q 622 4497 726 4603 
Q 831 4709 978 4709 
Q 1122 4709 1226 4603 
Q 1331 4497 1331 4353 
Q 1331 4206 1228 4103 
Q 1125 4000 978 4000 
Q 831 4000 726 4103 
Q 622 4206 622 4353 
z
M 1356 331 
L 1900 331 
L 1900 0 
L 231 0 
L 231 331 
L 781 331 
L 781 2988 
L 231 2988 
L 231 3322 
L 1356 3322 
L 1356 331 
z
" transform="scale(0.015625)"/>
       <path id="DejaVuSerif-6e" d="M 263 0 
L 263 331 
L 781 331 
L 781 2988 
L 231 2988 
L 231 3322 
L 1356 3322 
L 1356 2731 
Q 1516 3069 1770 3241 
Q 2025 3413 2363 3413 
Q 2913 3413 3172 3097 
Q 3431 2781 3431 2113 
L 3431 331 
L 3944 331 
L 3944 0 
L 2356 0 
L 2356 331 
L 2853 331 
L 2853 1931 
Q 2853 2541 2703 2767 
Q 2553 2994 2175 2994 
Q 1775 2994 1565 2701 
Q 1356 2409 1356 1850 
L 1356 331 
L 1856 331 
L 1856 0 
L 263 0 
z
" transform="scale(0.015625)"/>
      </defs>
      <use xlink:href="#DejaVuSerif-74"/>
      <use xlink:href="#DejaVuSerif-72" x="40.185547"/>
      <use xlink:href="#DejaVuSerif-61" x="87.988281"/>
      <use xlink:href="#DejaVuSerif-69" x="147.607422"/>
      <use xlink:href="#DejaVuSerif-6e" x="179.589844"/>
     </g>
    </g>
    <g id="line2d_22">
     <path d="M 334.738281 264.276219 
L 345.738281 264.276219 
L 356.738281 264.276219 
" style="fill: none; stroke: #0000ff; stroke-linecap: square"/>
     <g>
      <use xlink:href="#m61ddf0524f" x="345.738281" y="264.276219" style="fill: #0000ff; stroke: #0000ff"/>
     </g>
    </g>
    <g id="text_23">
     <!-- valid -->
     <g transform="translate(365.538281 268.126219) scale(0.11 -0.11)">
      <defs>
       <path id="DejaVuSerif-76" d="M 1581 0 
L 359 2988 
L -19 2988 
L -19 3322 
L 1509 3322 
L 1509 2988 
L 978 2988 
L 1913 703 
L 2847 2988 
L 2350 2988 
L 2350 3322 
L 3597 3322 
L 3597 2988 
L 3225 2988 
L 2003 0 
L 1581 0 
z
" transform="scale(0.015625)"/>
       <path id="DejaVuSerif-6c" d="M 1313 331 
L 1856 331 
L 1856 0 
L 184 0 
L 184 331 
L 738 331 
L 738 4531 
L 184 4531 
L 184 4863 
L 1313 4863 
L 1313 331 
z
" transform="scale(0.015625)"/>
       <path id="DejaVuSerif-64" d="M 3359 331 
L 3909 331 
L 3909 0 
L 2784 0 
L 2784 519 
Q 2616 206 2355 57 
Q 2094 -91 1709 -91 
Q 1097 -91 708 395 
Q 319 881 319 1663 
Q 319 2444 706 2928 
Q 1094 3413 1709 3413 
Q 2094 3413 2355 3264 
Q 2616 3116 2784 2803 
L 2784 4531 
L 2241 4531 
L 2241 4863 
L 3359 4863 
L 3359 331 
z
M 2784 1497 
L 2784 1825 
Q 2784 2422 2554 2737 
Q 2325 3053 1888 3053 
Q 1444 3053 1217 2703 
Q 991 2353 991 1663 
Q 991 975 1217 622 
Q 1444 269 1888 269 
Q 2325 269 2554 583 
Q 2784 897 2784 1497 
z
" transform="scale(0.015625)"/>
      </defs>
      <use xlink:href="#DejaVuSerif-76"/>
      <use xlink:href="#DejaVuSerif-61" x="56.494141"/>
      <use xlink:href="#DejaVuSerif-6c" x="116.113281"/>
      <use xlink:href="#DejaVuSerif-69" x="148.095703"/>
      <use xlink:href="#DejaVuSerif-64" x="180.078125"/>
     </g>
    </g>
   </g>
  </g>
 </g>
 <defs>
  <clipPath id="pae96362780">
   <rect x="45.170313" y="14.201875" width="357.12" height="266.112"/>
  </clipPath>
 </defs>
</svg>
